<ttFont>
    <TTGlyph name="A" xMin="24" yMin="-47" xMax="1548" yMax="1030">
      <contour>
        <pt x="1544" y="980" on="1"/>
        <pt x="1548" y="977" on="0"/>
        <pt x="1548" y="971" on="1"/>
        <pt x="1548" y="964" on="0"/>
        <pt x="1540" y="964" on="1"/>
        <pt x="1536" y="964" on="0"/>
        <pt x="1534" y="966" on="1"/>
        <pt x="1500" y="989" on="0"/>
        <pt x="1427" y="1011" on="0"/>
        <pt x="1392" y="1013" on="1"/>
        <pt x="1385" y="1008" on="0"/>
        <pt x="1327" y="966" on="0"/>
        <pt x="1243" y="888" on="0"/>
        <pt x="1145" y="773" on="0"/>
        <pt x="1051" y="619" on="0"/>
        <pt x="970" y="425" on="0"/>
        <pt x="947" y="306" on="1"/>
        <pt x="988" y="316" on="0"/>
        <pt x="1049" y="341" on="0"/>
        <pt x="1089" y="362" on="0"/>
        <pt x="1110" y="377" on="0"/>
        <pt x="1111" y="378" on="1"/>
        <pt x="1115" y="380" on="0"/>
        <pt x="1117" y="380" on="1"/>
        <pt x="1120" y="380" on="0"/>
        <pt x="1126" y="376" on="0"/>
        <pt x="1126" y="372" on="1"/>
        <pt x="1126" y="368" on="0"/>
        <pt x="1122" y="364" on="1"/>
        <pt x="1122" y="364" on="0"/>
        <pt x="1100" y="347" on="0"/>
        <pt x="1055" y="324" on="0"/>
        <pt x="988" y="297" on="0"/>
        <pt x="943" y="287" on="1"/>
        <pt x="932" y="220" on="0"/>
        <pt x="922" y="80" on="0"/>
        <pt x="922" y="0" on="1"/>
        <pt x="904" y="0" on="1"/>
        <pt x="904" y="63" on="0"/>
        <pt x="880" y="201" on="0"/>
        <pt x="852" y="271" on="1"/>
        <pt x="830" y="269" on="0"/>
        <pt x="788" y="267" on="0"/>
        <pt x="765" y="267" on="1"/>
        <pt x="694" y="267" on="0"/>
        <pt x="588" y="282" on="0"/>
        <pt x="550" y="293" on="1"/>
        <pt x="509" y="226" on="0"/>
        <pt x="429" y="103" on="0"/>
        <pt x="342" y="9" on="0"/>
        <pt x="244" y="-47" on="0"/>
        <pt x="185" y="-47" on="1"/>
        <pt x="146" y="-47" on="0"/>
        <pt x="92" y="-21" on="0"/>
        <pt x="56" y="19" on="0"/>
        <pt x="36" y="66" on="0"/>
        <pt x="26" y="107" on="0"/>
        <pt x="24" y="137" on="0"/>
        <pt x="24" y="139" on="1"/>
        <pt x="24" y="149" on="0"/>
        <pt x="33" y="149" on="1"/>
        <pt x="42" y="149" on="0"/>
        <pt x="42" y="140" on="1"/>
        <pt x="42" y="120" on="0"/>
        <pt x="55" y="63" on="0"/>
        <pt x="88" y="9" on="0"/>
        <pt x="144" y="-29" on="0"/>
        <pt x="186" y="-29" on="1"/>
        <pt x="240" y="-29" on="0"/>
        <pt x="331" y="24" on="0"/>
        <pt x="413" y="114" on="0"/>
        <pt x="491" y="233" on="0"/>
        <pt x="533" y="299" on="1"/>
        <pt x="484" y="319" on="0"/>
        <pt x="442" y="371" on="0"/>
        <pt x="442" y="400" on="1"/>
        <pt x="442" y="427" on="0"/>
        <pt x="465" y="466" on="0"/>
        <pt x="504" y="490" on="0"/>
        <pt x="554" y="501" on="0"/>
        <pt x="581" y="501" on="1"/>
        <pt x="600" y="501" on="0"/>
        <pt x="639" y="497" on="0"/>
        <pt x="659" y="491" on="1"/>
        <pt x="664" y="499" on="0"/>
        <pt x="676" y="516" on="0"/>
        <pt x="682" y="524" on="1"/>
        <pt x="762" y="632" on="0"/>
        <pt x="921" y="818" on="0"/>
        <pt x="1089" y="953" on="0"/>
        <pt x="1270" y="1030" on="0"/>
        <pt x="1372" y="1030" on="1"/>
        <pt x="1413" y="1030" on="0"/>
        <pt x="1502" y="1010" on="0"/>
      </contour>
      <contour>
        <pt x="460" y="400" on="1"/>
        <pt x="460" y="383" on="0"/>
        <pt x="475" y="357" on="0"/>
        <pt x="499" y="336" on="0"/>
        <pt x="528" y="321" on="0"/>
        <pt x="543" y="315" on="1"/>
        <pt x="568" y="354" on="0"/>
        <pt x="619" y="435" on="0"/>
        <pt x="648" y="476" on="1"/>
        <pt x="616" y="484" on="0"/>
        <pt x="581" y="484" on="1"/>
        <pt x="562" y="484" on="0"/>
        <pt x="520" y="477" on="0"/>
        <pt x="484" y="459" on="0"/>
        <pt x="460" y="426" on="0"/>
      </contour>
      <contour>
        <pt x="729" y="285" on="1"/>
        <pt x="757" y="285" on="0"/>
        <pt x="813" y="286" on="0"/>
        <pt x="845" y="289" on="1"/>
        <pt x="818" y="349" on="0"/>
        <pt x="732" y="448" on="0"/>
        <pt x="666" y="470" on="1"/>
        <pt x="637" y="430" on="0"/>
        <pt x="586" y="349" on="0"/>
        <pt x="560" y="309" on="1"/>
        <pt x="591" y="300" on="0"/>
        <pt x="673" y="287" on="0"/>
      </contour>
      <contour>
        <pt x="907" y="141" on="1"/>
        <pt x="909" y="179" on="0"/>
        <pt x="918" y="249" on="0"/>
        <pt x="924" y="282" on="1"/>
        <pt x="898" y="277" on="0"/>
        <pt x="870" y="273" on="1"/>
        <pt x="884" y="241" on="0"/>
        <pt x="902" y="172" on="0"/>
      </contour>
      <contour>
        <pt x="1143" y="795" on="1"/>
        <pt x="1176" y="840" on="0"/>
        <pt x="1242" y="911" on="0"/>
        <pt x="1299" y="965" on="0"/>
        <pt x="1346" y="1002" on="0"/>
        <pt x="1361" y="1013" on="1"/>
        <pt x="1265" y="1009" on="0"/>
        <pt x="1092" y="932" on="0"/>
        <pt x="931" y="801" on="0"/>
        <pt x="776" y="621" on="0"/>
        <pt x="697" y="513" on="1"/>
        <pt x="692" y="506" on="0"/>
        <pt x="682" y="493" on="0"/>
        <pt x="677" y="486" on="1"/>
        <pt x="747" y="460" on="0"/>
        <pt x="837" y="354" on="0"/>
        <pt x="863" y="291" on="1"/>
        <pt x="880" y="293" on="0"/>
        <pt x="913" y="298" on="0"/>
        <pt x="928" y="301" on="1"/>
        <pt x="943" y="382" on="0"/>
        <pt x="989" y="523" on="0"/>
        <pt x="1046" y="646" on="0"/>
        <pt x="1110" y="751" on="0"/>
      </contour>
    </TTGlyph>
    <TTGlyph name="AE" xMin="45" yMin="-47" xMax="1730" yMax="1030">
      <contour>
        <pt x="1265" y="0" on="1"/>
        <pt x="1211" y="2" on="0"/>
        <pt x="1115" y="36" on="0"/>
        <pt x="1043" y="97" on="0"/>
        <pt x="1001" y="185" on="0"/>
        <pt x="1001" y="242" on="1"/>
        <pt x="1001" y="292" on="0"/>
        <pt x="1024" y="372" on="0"/>
        <pt x="1059" y="433" on="0"/>
        <pt x="1099" y="478" on="0"/>
        <pt x="1116" y="492" on="1"/>
        <pt x="1154" y="524" on="0"/>
        <pt x="1233" y="565" on="0"/>
        <pt x="1278" y="574" on="1"/>
        <pt x="1262" y="618" on="0"/>
        <pt x="1262" y="667" on="1"/>
        <pt x="1262" y="713" on="0"/>
        <pt x="1277" y="757" on="1"/>
        <pt x="1265" y="769" on="0"/>
        <pt x="1238" y="802" on="0"/>
        <pt x="1215" y="843" on="0"/>
        <pt x="1200" y="887" on="0"/>
        <pt x="1200" y="909" on="1"/>
        <pt x="1200" y="916" on="0"/>
        <pt x="1208" y="918" on="1"/>
        <pt x="1216" y="918" on="0"/>
        <pt x="1218" y="910" on="1"/>
        <pt x="1226" y="866" on="0"/>
        <pt x="1259" y="803" on="0"/>
        <pt x="1284" y="775" on="1"/>
        <pt x="1310" y="841" on="0"/>
        <pt x="1394" y="920" on="0"/>
        <pt x="1434" y="941" on="1"/>
        <pt x="1481" y="966" on="0"/>
        <pt x="1532" y="976" on="1"/>
        <pt x="1556" y="979" on="0"/>
        <pt x="1580" y="979" on="1"/>
        <pt x="1608" y="979" on="0"/>
        <pt x="1662" y="965" on="0"/>
        <pt x="1704" y="935" on="0"/>
        <pt x="1730" y="888" on="0"/>
        <pt x="1730" y="856" on="1"/>
        <pt x="1730" y="813" on="0"/>
        <pt x="1685" y="746" on="0"/>
        <pt x="1615" y="699" on="0"/>
        <pt x="1530" y="674" on="0"/>
        <pt x="1491" y="674" on="1"/>
        <pt x="1433" y="676" on="0"/>
        <pt x="1335" y="708" on="0"/>
        <pt x="1292" y="743" on="1"/>
        <pt x="1280" y="702" on="0"/>
        <pt x="1280" y="662" on="1"/>
        <pt x="1280" y="617" on="0"/>
        <pt x="1297" y="577" on="1"/>
        <pt x="1312" y="580" on="0"/>
        <pt x="1341" y="582" on="0"/>
        <pt x="1355" y="582" on="1"/>
        <pt x="1370" y="582" on="0"/>
        <pt x="1409" y="578" on="0"/>
        <pt x="1444" y="566" on="0"/>
        <pt x="1468" y="544" on="0"/>
        <pt x="1468" y="525" on="1"/>
        <pt x="1468" y="502" on="0"/>
        <pt x="1436" y="483" on="0"/>
        <pt x="1416" y="483" on="1"/>
        <pt x="1368" y="483" on="0"/>
        <pt x="1301" y="530" on="0"/>
        <pt x="1287" y="557" on="1"/>
        <pt x="1226" y="545" on="0"/>
        <pt x="1127" y="485" on="0"/>
        <pt x="1058" y="401" on="0"/>
        <pt x="1020" y="297" on="0"/>
        <pt x="1020" y="241" on="1"/>
        <pt x="1020" y="185" on="0"/>
        <pt x="1064" y="101" on="0"/>
        <pt x="1135" y="45" on="0"/>
        <pt x="1222" y="18" on="0"/>
        <pt x="1265" y="18" on="1"/>
        <pt x="1323" y="18" on="0"/>
        <pt x="1432" y="48" on="0"/>
        <pt x="1527" y="104" on="0"/>
        <pt x="1603" y="186" on="0"/>
        <pt x="1629" y="239" on="1"/>
        <pt x="1630" y="245" on="0"/>
        <pt x="1637" y="245" on="1"/>
        <pt x="1647" y="245" on="0"/>
        <pt x="1647" y="235" on="1"/>
        <pt x="1647" y="234" on="0"/>
        <pt x="1646" y="233" on="0"/>
        <pt x="1646" y="232" on="1"/>
        <pt x="1588" y="120" on="0"/>
        <pt x="1390" y="0" on="0"/>
      </contour>
      <contour>
        <pt x="1449" y="516" on="1"/>
        <pt x="1450" y="519" on="0"/>
        <pt x="1450" y="525" on="1"/>
        <pt x="1450" y="541" on="0"/>
        <pt x="1424" y="557" on="0"/>
        <pt x="1392" y="564" on="0"/>
        <pt x="1363" y="565" on="0"/>
        <pt x="1361" y="565" on="1"/>
        <pt x="1344" y="565" on="0"/>
        <pt x="1317" y="562" on="0"/>
        <pt x="1306" y="560" on="1"/>
        <pt x="1323" y="533" on="0"/>
        <pt x="1385" y="500" on="0"/>
        <pt x="1414" y="500" on="1"/>
        <pt x="1440" y="500" on="0"/>
      </contour>
      <contour>
        <pt x="1491" y="692" on="1"/>
        <pt x="1533" y="693" on="0"/>
        <pt x="1613" y="717" on="0"/>
        <pt x="1674" y="760" on="0"/>
        <pt x="1712" y="820" on="0"/>
        <pt x="1712" y="858" on="1"/>
        <pt x="1712" y="909" on="0"/>
        <pt x="1640" y="960" on="0"/>
        <pt x="1577" y="960" on="1"/>
        <pt x="1529" y="960" on="0"/>
        <pt x="1441" y="928" on="0"/>
        <pt x="1369" y="874" on="0"/>
        <pt x="1314" y="802" on="0"/>
        <pt x="1298" y="762" on="1"/>
        <pt x="1338" y="725" on="0"/>
        <pt x="1440" y="692" on="0"/>
      </contour>
      <contour>
        <pt x="1565" y="980" on="1"/>
        <pt x="1569" y="977" on="0"/>
        <pt x="1569" y="971" on="1"/>
        <pt x="1569" y="964" on="0"/>
        <pt x="1561" y="964" on="1"/>
        <pt x="1557" y="964" on="0"/>
        <pt x="1555" y="966" on="1"/>
        <pt x="1521" y="989" on="0"/>
        <pt x="1448" y="1011" on="0"/>
        <pt x="1413" y="1013" on="1"/>
        <pt x="1406" y="1008" on="0"/>
        <pt x="1348" y="966" on="0"/>
        <pt x="1264" y="888" on="0"/>
        <pt x="1166" y="773" on="0"/>
        <pt x="1072" y="619" on="0"/>
        <pt x="991" y="425" on="0"/>
        <pt x="968" y="306" on="1"/>
        <pt x="1009" y="316" on="0"/>
        <pt x="1070" y="341" on="0"/>
        <pt x="1110" y="362" on="0"/>
        <pt x="1131" y="377" on="0"/>
        <pt x="1132" y="378" on="1"/>
        <pt x="1136" y="380" on="0"/>
        <pt x="1138" y="380" on="1"/>
        <pt x="1141" y="380" on="0"/>
        <pt x="1147" y="376" on="0"/>
        <pt x="1147" y="372" on="1"/>
        <pt x="1147" y="368" on="0"/>
        <pt x="1143" y="364" on="1"/>
        <pt x="1143" y="364" on="0"/>
        <pt x="1121" y="347" on="0"/>
        <pt x="1076" y="324" on="0"/>
        <pt x="1009" y="297" on="0"/>
        <pt x="964" y="287" on="1"/>
        <pt x="953" y="220" on="0"/>
        <pt x="943" y="80" on="0"/>
        <pt x="943" y="0" on="1"/>
        <pt x="925" y="0" on="1"/>
        <pt x="925" y="63" on="0"/>
        <pt x="901" y="201" on="0"/>
        <pt x="873" y="271" on="1"/>
        <pt x="851" y="269" on="0"/>
        <pt x="809" y="267" on="0"/>
        <pt x="786" y="267" on="1"/>
        <pt x="715" y="267" on="0"/>
        <pt x="609" y="282" on="0"/>
        <pt x="571" y="293" on="1"/>
        <pt x="530" y="226" on="0"/>
        <pt x="450" y="103" on="0"/>
        <pt x="363" y="9" on="0"/>
        <pt x="265" y="-47" on="0"/>
        <pt x="206" y="-47" on="1"/>
        <pt x="167" y="-47" on="0"/>
        <pt x="113" y="-21" on="0"/>
        <pt x="77" y="19" on="0"/>
        <pt x="57" y="66" on="0"/>
        <pt x="47" y="107" on="0"/>
        <pt x="45" y="137" on="0"/>
        <pt x="45" y="139" on="1"/>
        <pt x="45" y="149" on="0"/>
        <pt x="54" y="149" on="1"/>
        <pt x="63" y="149" on="0"/>
        <pt x="63" y="140" on="1"/>
        <pt x="63" y="120" on="0"/>
        <pt x="76" y="63" on="0"/>
        <pt x="109" y="9" on="0"/>
        <pt x="165" y="-29" on="0"/>
        <pt x="207" y="-29" on="1"/>
        <pt x="261" y="-29" on="0"/>
        <pt x="352" y="24" on="0"/>
        <pt x="434" y="114" on="0"/>
        <pt x="512" y="233" on="0"/>
        <pt x="554" y="299" on="1"/>
        <pt x="505" y="319" on="0"/>
        <pt x="463" y="371" on="0"/>
        <pt x="463" y="400" on="1"/>
        <pt x="463" y="427" on="0"/>
        <pt x="486" y="466" on="0"/>
        <pt x="525" y="490" on="0"/>
        <pt x="575" y="501" on="0"/>
        <pt x="602" y="501" on="1"/>
        <pt x="621" y="501" on="0"/>
        <pt x="660" y="497" on="0"/>
        <pt x="680" y="491" on="1"/>
        <pt x="685" y="499" on="0"/>
        <pt x="697" y="516" on="0"/>
        <pt x="703" y="524" on="1"/>
        <pt x="783" y="632" on="0"/>
        <pt x="942" y="818" on="0"/>
        <pt x="1110" y="953" on="0"/>
        <pt x="1291" y="1030" on="0"/>
        <pt x="1393" y="1030" on="1"/>
        <pt x="1434" y="1030" on="0"/>
        <pt x="1523" y="1010" on="0"/>
      </contour>
      <contour>
        <pt x="481" y="400" on="1"/>
        <pt x="481" y="383" on="0"/>
        <pt x="496" y="357" on="0"/>
        <pt x="520" y="336" on="0"/>
        <pt x="549" y="321" on="0"/>
        <pt x="564" y="315" on="1"/>
        <pt x="589" y="354" on="0"/>
        <pt x="640" y="435" on="0"/>
        <pt x="669" y="476" on="1"/>
        <pt x="637" y="484" on="0"/>
        <pt x="602" y="484" on="1"/>
        <pt x="583" y="484" on="0"/>
        <pt x="541" y="477" on="0"/>
        <pt x="505" y="459" on="0"/>
        <pt x="481" y="426" on="0"/>
      </contour>
      <contour>
        <pt x="751" y="286" on="1"/>
        <pt x="759" y="286" on="0"/>
        <pt x="776" y="285" on="0"/>
        <pt x="785" y="285" on="1"/>
        <pt x="803" y="285" on="0"/>
        <pt x="842" y="287" on="0"/>
        <pt x="866" y="289" on="1"/>
        <pt x="839" y="349" on="0"/>
        <pt x="753" y="448" on="0"/>
        <pt x="687" y="470" on="1"/>
        <pt x="658" y="430" on="0"/>
        <pt x="607" y="349" on="0"/>
        <pt x="581" y="309" on="1"/>
        <pt x="612" y="300" on="0"/>
        <pt x="695" y="288" on="0"/>
      </contour>
      <contour>
        <pt x="928" y="141" on="1"/>
        <pt x="930" y="179" on="0"/>
        <pt x="939" y="249" on="0"/>
        <pt x="945" y="282" on="1"/>
        <pt x="919" y="277" on="0"/>
        <pt x="891" y="273" on="1"/>
        <pt x="905" y="241" on="0"/>
        <pt x="923" y="172" on="0"/>
      </contour>
      <contour>
        <pt x="1164" y="795" on="1"/>
        <pt x="1197" y="840" on="0"/>
        <pt x="1263" y="911" on="0"/>
        <pt x="1320" y="965" on="0"/>
        <pt x="1367" y="1002" on="0"/>
        <pt x="1382" y="1013" on="1"/>
        <pt x="1286" y="1009" on="0"/>
        <pt x="1113" y="932" on="0"/>
        <pt x="952" y="801" on="0"/>
        <pt x="797" y="621" on="0"/>
        <pt x="718" y="513" on="1"/>
        <pt x="713" y="506" on="0"/>
        <pt x="703" y="493" on="0"/>
        <pt x="698" y="486" on="1"/>
        <pt x="768" y="460" on="0"/>
        <pt x="858" y="354" on="0"/>
        <pt x="884" y="291" on="1"/>
        <pt x="901" y="293" on="0"/>
        <pt x="934" y="298" on="0"/>
        <pt x="949" y="301" on="1"/>
        <pt x="964" y="382" on="0"/>
        <pt x="1010" y="523" on="0"/>
        <pt x="1067" y="646" on="0"/>
        <pt x="1131" y="751" on="0"/>
      </contour>
    </TTGlyph>
    <TTGlyph name="Aacute" xMin="24" yMin="-47" xMax="1628" yMax="1206">
      <component glyphName="A" x="0" y="0" flags="0x1204"/>
      <component glyphName="acute" x="1135" y="259" flags="0x1004"/>
    </TTGlyph>
    <TTGlyph name="Acircumflex" xMin="24" yMin="-47" xMax="1626" yMax="1210">
      <component glyphName="A" x="0" y="0" flags="0x1204"/>
      <component glyphName="circumflex" x="987" y="295" flags="0x1004"/>
    </TTGlyph>
    <TTGlyph name="Adieresis" xMin="24" yMin="-47" xMax="1548" yMax="1174">
      <component glyphName="A" x="0" y="0" flags="0x1204"/>
      <component glyphName="dieresis" x="1194" y="278" flags="0x1004"/>
    </TTGlyph>
    <TTGlyph name="Agrave" xMin="24" yMin="-47" xMax="1548" yMax="1315">
      <component glyphName="A" x="0" y="0" flags="0x1204"/>
      <component glyphName="grave" x="1103" y="249" flags="0x1004"/>
    </TTGlyph>
    <TTGlyph name="Aring" xMin="24" yMin="-47" xMax="1548" yMax="1294">
      <component glyphName="A" x="0" y="0" flags="0x1204"/>
      <component glyphName="ring" x="1239" y="279" flags="0x1004"/>
    </TTGlyph>
    <TTGlyph name="Atilde" xMin="24" yMin="-47" xMax="1579" yMax="1173">
      <component glyphName="A" x="0" y="0" flags="0x1204"/>
      <component glyphName="tilde" x="1180" y="263" flags="0x1004"/>
    </TTGlyph>
    <TTGlyph name="B" xMin="-188" yMin="-50" xMax="1079" yMax="1018">
      <contour>
        <pt x="1078" y="944" on="1"/>
        <pt x="1079" y="943" on="0"/>
        <pt x="1079" y="940" on="1"/>
        <pt x="1079" y="931" on="0"/>
        <pt x="1070" y="931" on="1"/>
        <pt x="1064" y="931" on="0"/>
        <pt x="1062" y="936" on="1"/>
        <pt x="1055" y="950" on="0"/>
        <pt x="1028" y="973" on="0"/>
        <pt x="994" y="990" on="0"/>
        <pt x="956" y="1000" on="0"/>
        <pt x="938" y="1000" on="1"/>
        <pt x="903" y="1000" on="0"/>
        <pt x="839" y="993" on="0"/>
        <pt x="778" y="973" on="0"/>
        <pt x="718" y="939" on="0"/>
        <pt x="685" y="912" on="1"/>
        <pt x="746" y="907" on="0"/>
        <pt x="835" y="880" on="0"/>
        <pt x="898" y="842" on="0"/>
        <pt x="937" y="796" on="0"/>
        <pt x="959" y="749" on="0"/>
        <pt x="967" y="703" on="0"/>
        <pt x="967" y="685" on="1"/>
        <pt x="967" y="665" on="0"/>
        <pt x="961" y="632" on="0"/>
        <pt x="960" y="630" on="1"/>
        <pt x="958" y="625" on="0"/>
        <pt x="944" y="589" on="0"/>
        <pt x="910" y="544" on="0"/>
        <pt x="851" y="498" on="0"/>
        <pt x="804" y="485" on="1"/>
        <pt x="846" y="449" on="0"/>
        <pt x="900" y="348" on="0"/>
        <pt x="900" y="285" on="1"/>
        <pt x="900" y="221" on="0"/>
        <pt x="849" y="107" on="0"/>
        <pt x="763" y="22" on="0"/>
        <pt x="648" y="-28" on="0"/>
        <pt x="584" y="-28" on="1"/>
        <pt x="531" y="-28" on="0"/>
        <pt x="431" y="-4" on="0"/>
        <pt x="354" y="50" on="0"/>
        <pt x="307" y="136" on="0"/>
        <pt x="307" y="197" on="1"/>
        <pt x="307" y="216" on="0"/>
        <pt x="309" y="234" on="0"/>
        <pt x="313" y="242" on="0"/>
        <pt x="317" y="242" on="0"/>
        <pt x="319" y="242" on="1"/>
        <pt x="324" y="242" on="0"/>
        <pt x="328" y="236" on="0"/>
        <pt x="328" y="233" on="1"/>
        <pt x="328" y="225" on="0"/>
        <pt x="325" y="208" on="0"/>
        <pt x="325" y="197" on="1"/>
        <pt x="325" y="170" on="0"/>
        <pt x="346" y="94" on="0"/>
        <pt x="381" y="55" on="1"/>
        <pt x="399" y="37" on="0"/>
        <pt x="447" y="12" on="0"/>
        <pt x="501" y="-3" on="0"/>
        <pt x="558" y="-10" on="0"/>
        <pt x="584" y="-10" on="1"/>
        <pt x="636" y="-10" on="0"/>
        <pt x="742" y="31" on="0"/>
        <pt x="828" y="107" on="0"/>
        <pt x="882" y="215" on="0"/>
        <pt x="882" y="283" on="1"/>
        <pt x="882" y="343" on="0"/>
        <pt x="832" y="436" on="0"/>
        <pt x="794" y="471" on="1"/>
        <pt x="786" y="477" on="0"/>
        <pt x="783" y="481" on="1"/>
        <pt x="748" y="475" on="0"/>
        <pt x="712" y="475" on="1"/>
        <pt x="701" y="475" on="0"/>
        <pt x="654" y="477" on="0"/>
        <pt x="606" y="487" on="0"/>
        <pt x="569" y="510" on="0"/>
        <pt x="569" y="530" on="1"/>
        <pt x="569" y="551" on="0"/>
        <pt x="604" y="573" on="0"/>
        <pt x="623" y="573" on="1"/>
        <pt x="660" y="573" on="0"/>
        <pt x="738" y="538" on="0"/>
        <pt x="787" y="500" on="1"/>
        <pt x="837" y="510" on="0"/>
        <pt x="898" y="554" on="0"/>
        <pt x="931" y="599" on="0"/>
        <pt x="942" y="633" on="0"/>
        <pt x="943" y="635" on="1"/>
        <pt x="946" y="647" on="0"/>
        <pt x="949" y="669" on="0"/>
        <pt x="949" y="685" on="1"/>
        <pt x="949" y="710" on="0"/>
        <pt x="931" y="778" on="0"/>
        <pt x="872" y="842" on="0"/>
        <pt x="760" y="890" on="0"/>
        <pt x="666" y="896" on="1"/>
        <pt x="628" y="860" on="0"/>
        <pt x="555" y="768" on="0"/>
        <pt x="482" y="660" on="0"/>
        <pt x="408" y="538" on="0"/>
        <pt x="369" y="472" on="1"/>
        <pt x="310" y="372" on="0"/>
        <pt x="210" y="184" on="0"/>
        <pt x="110" y="38" on="0"/>
        <pt x="-1" y="-50" on="0"/>
        <pt x="-71" y="-50" on="1"/>
        <pt x="-90" y="-50" on="0"/>
        <pt x="-131" y="-36" on="0"/>
        <pt x="-166" y="-11" on="0"/>
        <pt x="-188" y="22" on="0"/>
        <pt x="-188" y="41" on="1"/>
        <pt x="-188" y="50" on="0"/>
        <pt x="-179" y="50" on="1"/>
        <pt x="-172" y="50" on="0"/>
        <pt x="-170" y="43" on="1"/>
        <pt x="-163" y="9" on="0"/>
        <pt x="-106" y="-32" on="0"/>
        <pt x="-71" y="-32" on="1"/>
        <pt x="-35" y="-32" on="0"/>
        <pt x="29" y="-5" on="0"/>
        <pt x="58" y="20" on="1"/>
        <pt x="95" y="51" on="0"/>
        <pt x="180" y="177" on="0"/>
        <pt x="274" y="337" on="0"/>
        <pt x="375" y="518" on="0"/>
        <pt x="480" y="692" on="0"/>
        <pt x="587" y="845" on="0"/>
        <pt x="641" y="897" on="1"/>
        <pt x="544" y="897" on="0"/>
        <pt x="400" y="844" on="0"/>
        <pt x="350" y="809" on="1"/>
        <pt x="324" y="791" on="0"/>
        <pt x="270" y="741" on="0"/>
        <pt x="252" y="717" on="1"/>
        <pt x="249" y="713" on="0"/>
        <pt x="244" y="713" on="1"/>
        <pt x="235" y="713" on="0"/>
        <pt x="235" y="723" on="1"/>
        <pt x="235" y="724" on="0"/>
        <pt x="237" y="728" on="1"/>
        <pt x="238" y="728" on="0"/>
        <pt x="260" y="756" on="0"/>
        <pt x="304" y="797" on="0"/>
        <pt x="370" y="846" on="0"/>
        <pt x="458" y="887" on="0"/>
        <pt x="568" y="915" on="0"/>
        <pt x="634" y="915" on="1"/>
        <pt x="640" y="915" on="0"/>
        <pt x="655" y="915" on="0"/>
        <pt x="660" y="914" on="1"/>
        <pt x="773" y="1018" on="0"/>
        <pt x="921" y="1018" on="1"/>
        <pt x="942" y="1018" on="0"/>
        <pt x="989" y="1011" on="0"/>
        <pt x="1032" y="993" on="0"/>
        <pt x="1068" y="965" on="0"/>
      </contour>
      <contour>
        <pt x="716" y="493" on="1"/>
        <pt x="742" y="493" on="0"/>
        <pt x="763" y="496" on="1"/>
        <pt x="719" y="526" on="0"/>
        <pt x="658" y="557" on="0"/>
        <pt x="624" y="557" on="1"/>
        <pt x="611" y="557" on="0"/>
        <pt x="587" y="542" on="0"/>
        <pt x="587" y="530" on="1"/>
        <pt x="587" y="494" on="0"/>
      </contour>
    </TTGlyph>
    <TTGlyph name="C" xMin="41" yMin="-31" xMax="926" yMax="944">
      <contour>
        <pt x="163" y="-14" on="1"/>
        <pt x="131" y="-2" on="0"/>
        <pt x="85" y="41" on="0"/>
        <pt x="55" y="96" on="0"/>
        <pt x="41" y="158" on="0"/>
        <pt x="41" y="190" on="1"/>
        <pt x="41" y="264" on="0"/>
        <pt x="109" y="425" on="0"/>
        <pt x="221" y="582" on="0"/>
        <pt x="367" y="727" on="0"/>
        <pt x="444" y="784" on="1"/>
        <pt x="437" y="794" on="0"/>
        <pt x="421" y="820" on="0"/>
        <pt x="408" y="850" on="0"/>
        <pt x="400" y="881" on="0"/>
        <pt x="400" y="896" on="1"/>
        <pt x="400" y="904" on="0"/>
        <pt x="409" y="904" on="1"/>
        <pt x="414" y="904" on="0"/>
        <pt x="416" y="898" on="0"/>
        <pt x="417" y="895" on="1"/>
        <pt x="422" y="868" on="0"/>
        <pt x="443" y="816" on="0"/>
        <pt x="459" y="795" on="1"/>
        <pt x="506" y="829" on="0"/>
        <pt x="602" y="885" on="0"/>
        <pt x="694" y="923" on="0"/>
        <pt x="779" y="944" on="0"/>
        <pt x="814" y="944" on="1"/>
        <pt x="874" y="944" on="0"/>
        <pt x="926" y="890" on="0"/>
        <pt x="926" y="850" on="1"/>
        <pt x="926" y="826" on="0"/>
        <pt x="910" y="782" on="0"/>
        <pt x="898" y="766" on="1"/>
        <pt x="895" y="762" on="0"/>
        <pt x="868" y="730" on="0"/>
        <pt x="816" y="694" on="0"/>
        <pt x="739" y="665" on="0"/>
        <pt x="687" y="665" on="1"/>
        <pt x="643" y="665" on="0"/>
        <pt x="569" y="684" on="0"/>
        <pt x="511" y="714" on="0"/>
        <pt x="468" y="751" on="0"/>
        <pt x="455" y="770" on="1"/>
        <pt x="379" y="711" on="0"/>
        <pt x="236" y="569" on="0"/>
        <pt x="126" y="417" on="0"/>
        <pt x="59" y="262" on="0"/>
        <pt x="59" y="190" on="1"/>
        <pt x="60" y="147" on="0"/>
        <pt x="86" y="73" on="0"/>
        <pt x="136" y="18" on="0"/>
        <pt x="209" y="-13" on="0"/>
        <pt x="258" y="-13" on="1"/>
        <pt x="303" y="-11" on="0"/>
        <pt x="374" y="7" on="0"/>
        <pt x="412" y="30" on="1"/>
        <pt x="433" y="42" on="0"/>
        <pt x="481" y="78" on="0"/>
        <pt x="533" y="128" on="0"/>
        <pt x="588" y="194" on="0"/>
        <pt x="616" y="237" on="1"/>
        <pt x="619" y="241" on="0"/>
        <pt x="624" y="241" on="1"/>
        <pt x="633" y="241" on="0"/>
        <pt x="633" y="232" on="1"/>
        <pt x="633" y="229" on="0"/>
        <pt x="631" y="227" on="1"/>
        <pt x="574" y="139" on="0"/>
        <pt x="465" y="39" on="0"/>
        <pt x="421" y="14" on="1"/>
        <pt x="380" y="-9" on="0"/>
        <pt x="300" y="-31" on="0"/>
        <pt x="258" y="-31" on="1"/>
        <pt x="237" y="-31" on="0"/>
        <pt x="188" y="-24" on="0"/>
      </contour>
      <contour>
        <pt x="516" y="735" on="1"/>
        <pt x="545" y="713" on="0"/>
        <pt x="633" y="683" on="0"/>
        <pt x="687" y="683" on="1"/>
        <pt x="737" y="683" on="0"/>
        <pt x="811" y="711" on="0"/>
        <pt x="859" y="746" on="0"/>
        <pt x="883" y="775" on="0"/>
        <pt x="884" y="776" on="1"/>
        <pt x="894" y="790" on="0"/>
        <pt x="908" y="830" on="0"/>
        <pt x="908" y="850" on="1"/>
        <pt x="908" y="864" on="0"/>
        <pt x="900" y="892" on="0"/>
        <pt x="879" y="913" on="0"/>
        <pt x="842" y="926" on="0"/>
        <pt x="814" y="926" on="1"/>
        <pt x="781" y="926" on="0"/>
        <pt x="700" y="906" on="0"/>
        <pt x="611" y="868" on="0"/>
        <pt x="516" y="814" on="0"/>
        <pt x="469" y="780" on="1"/>
        <pt x="479" y="768" on="0"/>
        <pt x="502" y="746" on="0"/>
      </contour>
    </TTGlyph>
    <TTGlyph name="Ccedilla" xMin="16" yMin="-240" xMax="926" yMax="944">
      <component glyphName="C" x="0" y="0" flags="0x1204"/>
      <component glyphName="cedilla" x="-4" y="-17" flags="0x1004"/>
    </TTGlyph>
    <TTGlyph name="D" xMin="-152" yMin="-64" xMax="1165" yMax="968">
      <contour>
        <pt x="1164" y="873" on="1"/>
        <pt x="1164" y="872" on="0"/>
        <pt x="1165" y="870" on="0"/>
        <pt x="1165" y="869" on="1"/>
        <pt x="1165" y="860" on="0"/>
        <pt x="1156" y="860" on="1"/>
        <pt x="1149" y="860" on="0"/>
        <pt x="1148" y="866" on="1"/>
        <pt x="1137" y="890" on="0"/>
        <pt x="1101" y="922" on="0"/>
        <pt x="1055" y="942" on="0"/>
        <pt x="1002" y="950" on="0"/>
        <pt x="975" y="950" on="1"/>
        <pt x="905" y="950" on="0"/>
        <pt x="783" y="906" on="0"/>
        <pt x="732" y="868" on="1"/>
        <pt x="793" y="841" on="0"/>
        <pt x="875" y="763" on="0"/>
        <pt x="926" y="669" on="0"/>
        <pt x="948" y="565" on="0"/>
        <pt x="948" y="513" on="1"/>
        <pt x="948" y="464" on="0"/>
        <pt x="928" y="346" on="0"/>
        <pt x="886" y="227" on="0"/>
        <pt x="821" y="114" on="0"/>
        <pt x="731" y="27" on="0"/>
        <pt x="615" y="-26" on="0"/>
        <pt x="543" y="-26" on="1"/>
        <pt x="508" y="-26" on="0"/>
        <pt x="435" y="-6" on="0"/>
        <pt x="375" y="36" on="0"/>
        <pt x="336" y="102" on="0"/>
        <pt x="336" y="149" on="1"/>
        <pt x="336" y="169" on="0"/>
        <pt x="348" y="212" on="0"/>
        <pt x="378" y="248" on="0"/>
        <pt x="427" y="271" on="0"/>
        <pt x="463" y="271" on="1"/>
        <pt x="466" y="271" on="0"/>
        <pt x="507" y="267" on="0"/>
        <pt x="554" y="258" on="0"/>
        <pt x="593" y="244" on="0"/>
        <pt x="593" y="234" on="1"/>
        <pt x="593" y="231" on="0"/>
        <pt x="587" y="225" on="0"/>
        <pt x="583" y="225" on="1"/>
        <pt x="581" y="225" on="0"/>
        <pt x="580" y="226" on="1"/>
        <pt x="543" y="241" on="0"/>
        <pt x="486" y="253" on="0"/>
        <pt x="463" y="253" on="1"/>
        <pt x="433" y="253" on="0"/>
        <pt x="391" y="234" on="0"/>
        <pt x="366" y="204" on="0"/>
        <pt x="354" y="166" on="0"/>
        <pt x="354" y="146" on="1"/>
        <pt x="354" y="107" on="0"/>
        <pt x="389" y="49" on="0"/>
        <pt x="443" y="11" on="0"/>
        <pt x="510" y="-8" on="0"/>
        <pt x="543" y="-8" on="1"/>
        <pt x="607" y="-8" on="0"/>
        <pt x="714" y="38" on="0"/>
        <pt x="800" y="116" on="0"/>
        <pt x="865" y="219" on="0"/>
        <pt x="908" y="335" on="0"/>
        <pt x="930" y="456" on="0"/>
        <pt x="930" y="513" on="1"/>
        <pt x="930" y="565" on="0"/>
        <pt x="908" y="666" on="0"/>
        <pt x="858" y="755" on="0"/>
        <pt x="776" y="830" on="0"/>
        <pt x="715" y="856" on="1"/>
        <pt x="654" y="809" on="0"/>
        <pt x="549" y="684" on="0"/>
        <pt x="499" y="610" on="1"/>
        <pt x="547" y="610" on="0"/>
        <pt x="637" y="636" on="0"/>
        <pt x="679" y="666" on="1"/>
        <pt x="686" y="671" on="0"/>
        <pt x="709" y="692" on="0"/>
        <pt x="733" y="714" on="0"/>
        <pt x="752" y="730" on="0"/>
        <pt x="755" y="730" on="1"/>
        <pt x="764" y="730" on="0"/>
        <pt x="764" y="721" on="1"/>
        <pt x="764" y="722" on="0"/>
        <pt x="765" y="719" on="0"/>
        <pt x="755" y="704" on="0"/>
        <pt x="724" y="676" on="0"/>
        <pt x="693" y="654" on="1"/>
        <pt x="652" y="625" on="0"/>
        <pt x="560" y="592" on="0"/>
        <pt x="510" y="592" on="1"/>
        <pt x="504" y="592" on="0"/>
        <pt x="493" y="592" on="0"/>
        <pt x="487" y="593" on="1"/>
        <pt x="465" y="561" on="0"/>
        <pt x="421" y="493" on="0"/>
        <pt x="400" y="459" on="1"/>
        <pt x="359" y="394" on="0"/>
        <pt x="289" y="266" on="0"/>
        <pt x="224" y="149" on="0"/>
        <pt x="160" y="50" on="0"/>
        <pt x="91" y="-23" on="0"/>
        <pt x="12" y="-64" on="0"/>
        <pt x="-35" y="-64" on="1"/>
        <pt x="-54" y="-64" on="0"/>
        <pt x="-95" y="-50" on="0"/>
        <pt x="-130" y="-25" on="0"/>
        <pt x="-152" y="8" on="0"/>
        <pt x="-152" y="27" on="1"/>
        <pt x="-152" y="36" on="0"/>
        <pt x="-143" y="36" on="1"/>
        <pt x="-136" y="36" on="0"/>
        <pt x="-134" y="30" on="1"/>
        <pt x="-126" y="-6" on="0"/>
        <pt x="-70" y="-46" on="0"/>
        <pt x="-35" y="-46" on="1"/>
        <pt x="31" y="-46" on="0"/>
        <pt x="131" y="40" on="0"/>
        <pt x="225" y="184" on="0"/>
        <pt x="322" y="369" on="0"/>
        <pt x="385" y="468" on="1"/>
        <pt x="405" y="500" on="0"/>
        <pt x="447" y="564" on="0"/>
        <pt x="467" y="596" on="1"/>
        <pt x="435" y="601" on="0"/>
        <pt x="380" y="626" on="0"/>
        <pt x="339" y="663" on="0"/>
        <pt x="315" y="710" on="0"/>
        <pt x="315" y="737" on="1"/>
        <pt x="315" y="777" on="0"/>
        <pt x="342" y="817" on="1"/>
        <pt x="377" y="870" on="0"/>
        <pt x="481" y="912" on="0"/>
        <pt x="540" y="912" on="1"/>
        <pt x="584" y="912" on="0"/>
        <pt x="671" y="893" on="0"/>
        <pt x="712" y="877" on="1"/>
        <pt x="771" y="919" on="0"/>
        <pt x="899" y="968" on="0"/>
        <pt x="975" y="968" on="1"/>
        <pt x="1002" y="968" on="0"/>
        <pt x="1059" y="959" on="0"/>
        <pt x="1110" y="938" on="0"/>
        <pt x="1152" y="901" on="0"/>
      </contour>
      <contour>
        <pt x="571" y="737" on="1"/>
        <pt x="600" y="773" on="0"/>
        <pt x="662" y="837" on="0"/>
        <pt x="696" y="864" on="1"/>
        <pt x="660" y="877" on="0"/>
        <pt x="579" y="894" on="0"/>
        <pt x="539" y="894" on="1"/>
        <pt x="502" y="894" on="0"/>
        <pt x="429" y="871" on="0"/>
        <pt x="370" y="829" on="0"/>
        <pt x="334" y="773" on="0"/>
        <pt x="334" y="740" on="1"/>
        <pt x="334" y="694" on="0"/>
        <pt x="413" y="624" on="0"/>
        <pt x="479" y="613" on="1"/>
        <pt x="524" y="681" on="0"/>
      </contour>
    </TTGlyph>
    <TTGlyph name="E" xMin="104" yMin="-14" xMax="833" yMax="965">
      <contour>
        <pt x="368" y="-14" on="1"/>
        <pt x="314" y="-12" on="0"/>
        <pt x="218" y="22" on="0"/>
        <pt x="146" y="83" on="0"/>
        <pt x="104" y="171" on="0"/>
        <pt x="104" y="228" on="1"/>
        <pt x="104" y="278" on="0"/>
        <pt x="127" y="358" on="0"/>
        <pt x="162" y="419" on="0"/>
        <pt x="202" y="464" on="0"/>
        <pt x="219" y="478" on="1"/>
        <pt x="257" y="510" on="0"/>
        <pt x="336" y="551" on="0"/>
        <pt x="381" y="560" on="1"/>
        <pt x="365" y="604" on="0"/>
        <pt x="365" y="653" on="1"/>
        <pt x="365" y="699" on="0"/>
        <pt x="380" y="743" on="1"/>
        <pt x="368" y="755" on="0"/>
        <pt x="341" y="788" on="0"/>
        <pt x="318" y="829" on="0"/>
        <pt x="303" y="873" on="0"/>
        <pt x="303" y="895" on="1"/>
        <pt x="303" y="902" on="0"/>
        <pt x="311" y="904" on="1"/>
        <pt x="319" y="904" on="0"/>
        <pt x="321" y="896" on="1"/>
        <pt x="329" y="852" on="0"/>
        <pt x="362" y="789" on="0"/>
        <pt x="387" y="761" on="1"/>
        <pt x="404" y="804" on="0"/>
        <pt x="454" y="868" on="0"/>
        <pt x="509" y="913" on="0"/>
        <pt x="563" y="941" on="0"/>
        <pt x="607" y="956" on="0"/>
        <pt x="635" y="962" on="0"/>
        <pt x="635" y="962" on="1"/>
        <pt x="659" y="965" on="0"/>
        <pt x="683" y="965" on="1"/>
        <pt x="711" y="965" on="0"/>
        <pt x="765" y="951" on="0"/>
        <pt x="807" y="921" on="0"/>
        <pt x="833" y="874" on="0"/>
        <pt x="833" y="842" on="1"/>
        <pt x="833" y="799" on="0"/>
        <pt x="788" y="732" on="0"/>
        <pt x="718" y="685" on="0"/>
        <pt x="633" y="660" on="0"/>
        <pt x="594" y="660" on="1"/>
        <pt x="536" y="662" on="0"/>
        <pt x="438" y="694" on="0"/>
        <pt x="395" y="729" on="1"/>
        <pt x="383" y="688" on="0"/>
        <pt x="383" y="648" on="1"/>
        <pt x="383" y="603" on="0"/>
        <pt x="400" y="563" on="1"/>
        <pt x="415" y="566" on="0"/>
        <pt x="444" y="568" on="0"/>
        <pt x="458" y="568" on="1"/>
        <pt x="473" y="568" on="0"/>
        <pt x="512" y="564" on="0"/>
        <pt x="547" y="552" on="0"/>
        <pt x="571" y="530" on="0"/>
        <pt x="571" y="511" on="1"/>
        <pt x="571" y="488" on="0"/>
        <pt x="539" y="469" on="0"/>
        <pt x="519" y="469" on="1"/>
        <pt x="471" y="469" on="0"/>
        <pt x="404" y="516" on="0"/>
        <pt x="390" y="543" on="1"/>
        <pt x="330" y="531" on="0"/>
        <pt x="231" y="471" on="0"/>
        <pt x="161" y="387" on="0"/>
        <pt x="123" y="283" on="0"/>
        <pt x="123" y="227" on="1"/>
        <pt x="123" y="171" on="0"/>
        <pt x="167" y="87" on="0"/>
        <pt x="238" y="31" on="0"/>
        <pt x="325" y="4" on="0"/>
        <pt x="368" y="4" on="1"/>
        <pt x="426" y="4" on="0"/>
        <pt x="535" y="34" on="0"/>
        <pt x="630" y="90" on="0"/>
        <pt x="706" y="172" on="0"/>
        <pt x="732" y="225" on="1"/>
        <pt x="733" y="231" on="0"/>
        <pt x="740" y="231" on="1"/>
        <pt x="750" y="231" on="0"/>
        <pt x="750" y="221" on="1"/>
        <pt x="750" y="220" on="0"/>
        <pt x="749" y="219" on="0"/>
        <pt x="749" y="218" on="1"/>
        <pt x="691" y="106" on="0"/>
        <pt x="493" y="-14" on="0"/>
      </contour>
      <contour>
        <pt x="552" y="502" on="1"/>
        <pt x="553" y="505" on="0"/>
        <pt x="553" y="511" on="1"/>
        <pt x="553" y="527" on="0"/>
        <pt x="527" y="543" on="0"/>
        <pt x="495" y="550" on="0"/>
        <pt x="466" y="551" on="0"/>
        <pt x="464" y="551" on="1"/>
        <pt x="447" y="551" on="0"/>
        <pt x="420" y="548" on="0"/>
        <pt x="409" y="546" on="1"/>
        <pt x="426" y="519" on="0"/>
        <pt x="488" y="486" on="0"/>
        <pt x="517" y="486" on="1"/>
        <pt x="543" y="486" on="0"/>
      </contour>
      <contour>
        <pt x="594" y="678" on="1"/>
        <pt x="636" y="679" on="0"/>
        <pt x="716" y="703" on="0"/>
        <pt x="777" y="746" on="0"/>
        <pt x="815" y="806" on="0"/>
        <pt x="815" y="844" on="1"/>
        <pt x="815" y="895" on="0"/>
        <pt x="743" y="946" on="0"/>
        <pt x="680" y="946" on="1"/>
        <pt x="634" y="946" on="0"/>
        <pt x="548" y="916" on="0"/>
        <pt x="475" y="863" on="0"/>
        <pt x="418" y="791" on="0"/>
        <pt x="401" y="748" on="1"/>
        <pt x="441" y="711" on="0"/>
        <pt x="543" y="678" on="0"/>
      </contour>
    </TTGlyph>
    <TTGlyph name="Eacute" xMin="104" yMin="-14" xMax="1010" yMax="1167">
      <component glyphName="E" x="0" y="0" flags="0x1204"/>
      <component glyphName="acute" x="517" y="220" flags="0x1004"/>
    </TTGlyph>
    <TTGlyph name="Ecircumflex" xMin="104" yMin="-14" xMax="986" yMax="1130">
      <component glyphName="E" x="0" y="0" flags="0x1204"/>
      <component glyphName="circumflex" x="347" y="215" flags="0x1004"/>
    </TTGlyph>
    <TTGlyph name="Edieresis" xMin="104" yMin="-14" xMax="837" yMax="1096">
      <component glyphName="E" x="0" y="0" flags="0x1204"/>
      <component glyphName="dieresis" x="523" y="200" flags="0x1004"/>
    </TTGlyph>
    <TTGlyph name="Egrave" xMin="104" yMin="-14" xMax="880" yMax="1266">
      <component glyphName="E" x="0" y="0" flags="0x1204"/>
      <component glyphName="grave" x="473" y="200" flags="0x1004"/>
    </TTGlyph>
    <TTGlyph name="Eth" xMin="-152" yMin="-64" xMax="1165" yMax="968">
      <contour>
        <pt x="1164" y="873" on="1"/>
        <pt x="1164" y="872" on="0"/>
        <pt x="1165" y="870" on="0"/>
        <pt x="1165" y="869" on="1"/>
        <pt x="1165" y="860" on="0"/>
        <pt x="1156" y="860" on="1"/>
        <pt x="1149" y="860" on="0"/>
        <pt x="1148" y="866" on="1"/>
        <pt x="1137" y="890" on="0"/>
        <pt x="1101" y="922" on="0"/>
        <pt x="1055" y="942" on="0"/>
        <pt x="1002" y="950" on="0"/>
        <pt x="975" y="950" on="1"/>
        <pt x="905" y="950" on="0"/>
        <pt x="783" y="906" on="0"/>
        <pt x="732" y="868" on="1"/>
        <pt x="793" y="841" on="0"/>
        <pt x="875" y="763" on="0"/>
        <pt x="926" y="669" on="0"/>
        <pt x="948" y="565" on="0"/>
        <pt x="948" y="513" on="1"/>
        <pt x="948" y="464" on="0"/>
        <pt x="928" y="346" on="0"/>
        <pt x="886" y="227" on="0"/>
        <pt x="821" y="114" on="0"/>
        <pt x="731" y="27" on="0"/>
        <pt x="615" y="-26" on="0"/>
        <pt x="543" y="-26" on="1"/>
        <pt x="508" y="-26" on="0"/>
        <pt x="435" y="-6" on="0"/>
        <pt x="375" y="36" on="0"/>
        <pt x="336" y="102" on="0"/>
        <pt x="336" y="149" on="1"/>
        <pt x="336" y="169" on="0"/>
        <pt x="348" y="212" on="0"/>
        <pt x="378" y="248" on="0"/>
        <pt x="427" y="271" on="0"/>
        <pt x="463" y="271" on="1"/>
        <pt x="466" y="271" on="0"/>
        <pt x="507" y="267" on="0"/>
        <pt x="554" y="258" on="0"/>
        <pt x="593" y="244" on="0"/>
        <pt x="593" y="234" on="1"/>
        <pt x="593" y="231" on="0"/>
        <pt x="587" y="225" on="0"/>
        <pt x="583" y="225" on="1"/>
        <pt x="581" y="225" on="0"/>
        <pt x="580" y="226" on="1"/>
        <pt x="543" y="241" on="0"/>
        <pt x="486" y="253" on="0"/>
        <pt x="463" y="253" on="1"/>
        <pt x="433" y="253" on="0"/>
        <pt x="391" y="234" on="0"/>
        <pt x="366" y="204" on="0"/>
        <pt x="354" y="166" on="0"/>
        <pt x="354" y="146" on="1"/>
        <pt x="354" y="107" on="0"/>
        <pt x="389" y="49" on="0"/>
        <pt x="443" y="11" on="0"/>
        <pt x="510" y="-8" on="0"/>
        <pt x="543" y="-8" on="1"/>
        <pt x="607" y="-8" on="0"/>
        <pt x="714" y="38" on="0"/>
        <pt x="800" y="116" on="0"/>
        <pt x="865" y="219" on="0"/>
        <pt x="908" y="335" on="0"/>
        <pt x="930" y="456" on="0"/>
        <pt x="930" y="513" on="1"/>
        <pt x="930" y="565" on="0"/>
        <pt x="908" y="666" on="0"/>
        <pt x="858" y="755" on="0"/>
        <pt x="776" y="830" on="0"/>
        <pt x="715" y="856" on="1"/>
        <pt x="654" y="809" on="0"/>
        <pt x="549" y="684" on="0"/>
        <pt x="499" y="610" on="1"/>
        <pt x="547" y="610" on="0"/>
        <pt x="637" y="636" on="0"/>
        <pt x="679" y="666" on="1"/>
        <pt x="686" y="671" on="0"/>
        <pt x="709" y="692" on="0"/>
        <pt x="733" y="714" on="0"/>
        <pt x="752" y="730" on="0"/>
        <pt x="755" y="730" on="1"/>
        <pt x="764" y="730" on="0"/>
        <pt x="764" y="721" on="1"/>
        <pt x="764" y="722" on="0"/>
        <pt x="765" y="719" on="0"/>
        <pt x="755" y="704" on="0"/>
        <pt x="724" y="676" on="0"/>
        <pt x="693" y="654" on="1"/>
        <pt x="652" y="625" on="0"/>
        <pt x="560" y="592" on="0"/>
        <pt x="510" y="592" on="1"/>
        <pt x="504" y="592" on="0"/>
        <pt x="493" y="592" on="0"/>
        <pt x="487" y="593" on="1"/>
        <pt x="465" y="561" on="0"/>
        <pt x="421" y="493" on="0"/>
        <pt x="400" y="459" on="1"/>
        <pt x="359" y="394" on="0"/>
        <pt x="289" y="266" on="0"/>
        <pt x="224" y="149" on="0"/>
        <pt x="160" y="50" on="0"/>
        <pt x="91" y="-23" on="0"/>
        <pt x="12" y="-64" on="0"/>
        <pt x="-35" y="-64" on="1"/>
        <pt x="-54" y="-64" on="0"/>
        <pt x="-95" y="-50" on="0"/>
        <pt x="-130" y="-25" on="0"/>
        <pt x="-152" y="8" on="0"/>
        <pt x="-152" y="27" on="1"/>
        <pt x="-152" y="36" on="0"/>
        <pt x="-143" y="36" on="1"/>
        <pt x="-136" y="36" on="0"/>
        <pt x="-134" y="30" on="1"/>
        <pt x="-126" y="-6" on="0"/>
        <pt x="-70" y="-46" on="0"/>
        <pt x="-35" y="-46" on="1"/>
        <pt x="31" y="-46" on="0"/>
        <pt x="131" y="40" on="0"/>
        <pt x="225" y="184" on="0"/>
        <pt x="322" y="369" on="0"/>
        <pt x="385" y="468" on="1"/>
        <pt x="405" y="500" on="0"/>
        <pt x="447" y="564" on="0"/>
        <pt x="467" y="596" on="1"/>
        <pt x="435" y="601" on="0"/>
        <pt x="380" y="626" on="0"/>
        <pt x="339" y="663" on="0"/>
        <pt x="315" y="710" on="0"/>
        <pt x="315" y="737" on="1"/>
        <pt x="315" y="777" on="0"/>
        <pt x="342" y="817" on="1"/>
        <pt x="377" y="870" on="0"/>
        <pt x="481" y="912" on="0"/>
        <pt x="540" y="912" on="1"/>
        <pt x="584" y="912" on="0"/>
        <pt x="671" y="893" on="0"/>
        <pt x="712" y="877" on="1"/>
        <pt x="771" y="919" on="0"/>
        <pt x="899" y="968" on="0"/>
        <pt x="975" y="968" on="1"/>
        <pt x="1002" y="968" on="0"/>
        <pt x="1059" y="959" on="0"/>
        <pt x="1110" y="938" on="0"/>
        <pt x="1152" y="901" on="0"/>
      </contour>
      <contour>
        <pt x="571" y="737" on="1"/>
        <pt x="600" y="773" on="0"/>
        <pt x="662" y="837" on="0"/>
        <pt x="696" y="864" on="1"/>
        <pt x="660" y="877" on="0"/>
        <pt x="579" y="894" on="0"/>
        <pt x="539" y="894" on="1"/>
        <pt x="502" y="894" on="0"/>
        <pt x="429" y="871" on="0"/>
        <pt x="370" y="829" on="0"/>
        <pt x="334" y="773" on="0"/>
        <pt x="334" y="740" on="1"/>
        <pt x="334" y="694" on="0"/>
        <pt x="413" y="624" on="0"/>
        <pt x="479" y="613" on="1"/>
        <pt x="524" y="681" on="0"/>
      </contour>
      <contour>
        <pt x="96" y="270" on="1"/>
        <pt x="94" y="269" on="0"/>
        <pt x="92" y="269" on="1"/>
        <pt x="88" y="269" on="0"/>
        <pt x="83" y="275" on="0"/>
        <pt x="83" y="278" on="1"/>
        <pt x="83" y="283" on="0"/>
        <pt x="88" y="286" on="1"/>
        <pt x="636" y="542" on="1"/>
        <pt x="637" y="543" on="0"/>
        <pt x="640" y="543" on="1"/>
        <pt x="649" y="543" on="0"/>
        <pt x="649" y="533" on="1"/>
        <pt x="649" y="529" on="0"/>
        <pt x="644" y="526" on="1"/>
      </contour>
    </TTGlyph>
    <TTGlyph name="Euro" xMin="-133" yMin="-18" xMax="926" yMax="944">
      <contour>
        <pt x="604" y="545" on="1"/>
        <pt x="-1" y="545" on="1"/>
        <pt x="-10" y="545" on="0"/>
        <pt x="-10" y="554" on="1"/>
        <pt x="-10" y="563" on="0"/>
        <pt x="-1" y="563" on="1"/>
        <pt x="604" y="563" on="1"/>
        <pt x="613" y="563" on="0"/>
        <pt x="613" y="554" on="1"/>
        <pt x="613" y="545" on="0"/>
      </contour>
      <contour>
        <pt x="481" y="336" on="1"/>
        <pt x="-124" y="336" on="1"/>
        <pt x="-133" y="336" on="0"/>
        <pt x="-133" y="345" on="1"/>
        <pt x="-133" y="354" on="0"/>
        <pt x="-124" y="354" on="1"/>
        <pt x="481" y="354" on="1"/>
        <pt x="490" y="354" on="0"/>
        <pt x="490" y="345" on="1"/>
        <pt x="490" y="336" on="0"/>
      </contour>
      <contour>
        <pt x="137" y="5" on="1"/>
        <pt x="83" y="30" on="0"/>
        <pt x="41" y="126" on="0"/>
        <pt x="41" y="190" on="1"/>
        <pt x="41" y="264" on="0"/>
        <pt x="109" y="425" on="0"/>
        <pt x="221" y="582" on="0"/>
        <pt x="367" y="727" on="0"/>
        <pt x="444" y="784" on="1"/>
        <pt x="437" y="794" on="0"/>
        <pt x="421" y="820" on="0"/>
        <pt x="408" y="850" on="0"/>
        <pt x="400" y="881" on="0"/>
        <pt x="400" y="896" on="1"/>
        <pt x="400" y="904" on="0"/>
        <pt x="409" y="904" on="1"/>
        <pt x="414" y="904" on="0"/>
        <pt x="416" y="898" on="0"/>
        <pt x="417" y="895" on="1"/>
        <pt x="422" y="868" on="0"/>
        <pt x="443" y="816" on="0"/>
        <pt x="459" y="795" on="1"/>
        <pt x="506" y="829" on="0"/>
        <pt x="602" y="885" on="0"/>
        <pt x="694" y="923" on="0"/>
        <pt x="779" y="944" on="0"/>
        <pt x="814" y="944" on="1"/>
        <pt x="868" y="944" on="0"/>
        <pt x="926" y="886" on="0"/>
        <pt x="926" y="846" on="1"/>
        <pt x="926" y="804" on="0"/>
        <pt x="880" y="737" on="0"/>
        <pt x="809" y="690" on="0"/>
        <pt x="725" y="665" on="0"/>
        <pt x="687" y="665" on="1"/>
        <pt x="617" y="665" on="0"/>
        <pt x="491" y="719" on="0"/>
        <pt x="455" y="770" on="1"/>
        <pt x="356" y="693" on="0"/>
        <pt x="182" y="509" on="0"/>
        <pt x="126" y="409" on="1"/>
        <pt x="113" y="386" on="0"/>
        <pt x="89" y="331" on="0"/>
        <pt x="70" y="271" on="0"/>
        <pt x="59" y="209" on="0"/>
        <pt x="59" y="179" on="1"/>
        <pt x="59" y="144" on="0"/>
        <pt x="79" y="80" on="0"/>
        <pt x="122" y="31" on="0"/>
        <pt x="190" y="1" on="0"/>
        <pt x="238" y="1" on="1"/>
        <pt x="287" y="1" on="0"/>
        <pt x="394" y="37" on="0"/>
        <pt x="494" y="101" on="0"/>
        <pt x="583" y="187" on="0"/>
        <pt x="616" y="237" on="1"/>
        <pt x="619" y="241" on="0"/>
        <pt x="624" y="241" on="1"/>
        <pt x="633" y="241" on="0"/>
        <pt x="633" y="232" on="1"/>
        <pt x="633" y="229" on="0"/>
        <pt x="631" y="227" on="1"/>
        <pt x="601" y="180" on="0"/>
        <pt x="514" y="92" on="0"/>
        <pt x="412" y="24" on="0"/>
        <pt x="300" y="-18" on="0"/>
        <pt x="244" y="-18" on="1"/>
        <pt x="217" y="-18" on="0"/>
        <pt x="163" y="-7" on="0"/>
      </contour>
      <contour>
        <pt x="516" y="735" on="1"/>
        <pt x="551" y="709" on="0"/>
        <pt x="632" y="683" on="0"/>
        <pt x="674" y="683" on="1"/>
        <pt x="720" y="683" on="0"/>
        <pt x="805" y="708" on="0"/>
        <pt x="870" y="751" on="0"/>
        <pt x="909" y="810" on="0"/>
        <pt x="909" y="844" on="1"/>
        <pt x="909" y="879" on="0"/>
        <pt x="859" y="926" on="0"/>
        <pt x="814" y="926" on="1"/>
        <pt x="781" y="926" on="0"/>
        <pt x="700" y="906" on="0"/>
        <pt x="611" y="868" on="0"/>
        <pt x="516" y="814" on="0"/>
        <pt x="469" y="780" on="1"/>
        <pt x="479" y="768" on="0"/>
        <pt x="502" y="746" on="0"/>
      </contour>
    </TTGlyph>
    <TTGlyph name="F" xMin="-29" yMin="-40" xMax="1376" yMax="948">
      <contour>
        <pt x="1357" y="913" on="1"/>
        <pt x="1376" y="896" on="0"/>
        <pt x="1376" y="867" on="1"/>
        <pt x="1376" y="852" on="0"/>
        <pt x="1361" y="812" on="0"/>
        <pt x="1319" y="775" on="0"/>
        <pt x="1244" y="746" on="0"/>
        <pt x="1184" y="743" on="1"/>
        <pt x="1154" y="743" on="0"/>
        <pt x="1096" y="744" on="0"/>
        <pt x="1027" y="751" on="0"/>
        <pt x="943" y="767" on="0"/>
        <pt x="887" y="781" on="1"/>
        <pt x="811" y="718" on="0"/>
        <pt x="673" y="552" on="0"/>
        <pt x="608" y="467" on="1"/>
        <pt x="616" y="465" on="0"/>
        <pt x="632" y="465" on="0"/>
        <pt x="640" y="465" on="1"/>
        <pt x="666" y="465" on="0"/>
        <pt x="720" y="477" on="0"/>
        <pt x="750" y="493" on="1"/>
        <pt x="751" y="494" on="0"/>
        <pt x="754" y="494" on="1"/>
        <pt x="763" y="494" on="0"/>
        <pt x="763" y="485" on="1"/>
        <pt x="763" y="480" on="0"/>
        <pt x="758" y="478" on="1"/>
        <pt x="726" y="461" on="0"/>
        <pt x="667" y="447" on="0"/>
        <pt x="640" y="447" on="1"/>
        <pt x="617" y="447" on="0"/>
        <pt x="596" y="450" on="1"/>
        <pt x="584" y="436" on="0"/>
        <pt x="554" y="393" on="0"/>
        <pt x="540" y="375" on="1"/>
        <pt x="473" y="284" on="0"/>
        <pt x="361" y="132" on="0"/>
        <pt x="257" y="22" on="0"/>
        <pt x="156" y="-40" on="0"/>
        <pt x="101" y="-40" on="1"/>
        <pt x="39" y="-40" on="0"/>
        <pt x="-29" y="21" on="0"/>
        <pt x="-29" y="75" on="1"/>
        <pt x="-29" y="80" on="0"/>
        <pt x="-28" y="97" on="0"/>
        <pt x="-25" y="113" on="0"/>
        <pt x="-20" y="125" on="0"/>
        <pt x="-15" y="125" on="1"/>
        <pt x="-6" y="125" on="0"/>
        <pt x="-6" y="116" on="1"/>
        <pt x="-6" y="105" on="0"/>
        <pt x="-11" y="84" on="0"/>
        <pt x="-11" y="75" on="1"/>
        <pt x="-11" y="25" on="0"/>
        <pt x="51" y="-22" on="0"/>
        <pt x="102" y="-22" on="1"/>
        <pt x="146" y="-22" on="0"/>
        <pt x="238" y="29" on="0"/>
        <pt x="292" y="87" on="1"/>
        <pt x="317" y="114" on="0"/>
        <pt x="381" y="195" on="0"/>
        <pt x="446" y="281" on="0"/>
        <pt x="505" y="361" on="0"/>
        <pt x="525" y="386" on="1"/>
        <pt x="533" y="397" on="1"/>
        <pt x="513" y="390" on="0"/>
        <pt x="453" y="380" on="0"/>
        <pt x="427" y="380" on="1"/>
        <pt x="413" y="380" on="0"/>
        <pt x="369" y="384" on="0"/>
        <pt x="329" y="398" on="0"/>
        <pt x="300" y="422" on="0"/>
        <pt x="300" y="443" on="1"/>
        <pt x="300" y="463" on="0"/>
        <pt x="318" y="489" on="0"/>
        <pt x="347" y="504" on="0"/>
        <pt x="383" y="510" on="0"/>
        <pt x="400" y="510" on="1"/>
        <pt x="431" y="510" on="0"/>
        <pt x="479" y="500" on="0"/>
        <pt x="522" y="487" on="0"/>
        <pt x="564" y="474" on="0"/>
        <pt x="588" y="470" on="1"/>
        <pt x="652" y="555" on="0"/>
        <pt x="789" y="718" on="0"/>
        <pt x="865" y="786" on="1"/>
        <pt x="817" y="799" on="0"/>
        <pt x="705" y="834" on="0"/>
        <pt x="639" y="858" on="1"/>
        <pt x="600" y="872" on="0"/>
        <pt x="530" y="884" on="0"/>
        <pt x="498" y="884" on="1"/>
        <pt x="466" y="884" on="0"/>
        <pt x="399" y="871" on="0"/>
        <pt x="334" y="846" on="0"/>
        <pt x="275" y="809" on="0"/>
        <pt x="252" y="786" on="1"/>
        <pt x="249" y="783" on="0"/>
        <pt x="245" y="783" on="1"/>
        <pt x="241" y="783" on="0"/>
        <pt x="236" y="789" on="0"/>
        <pt x="236" y="792" on="1"/>
        <pt x="236" y="796" on="0"/>
        <pt x="238" y="798" on="1"/>
        <pt x="287" y="847" on="0"/>
        <pt x="424" y="902" on="0"/>
        <pt x="498" y="902" on="1"/>
        <pt x="531" y="902" on="0"/>
        <pt x="605" y="889" on="0"/>
        <pt x="645" y="875" on="1"/>
        <pt x="714" y="849" on="0"/>
        <pt x="831" y="813" on="0"/>
        <pt x="882" y="800" on="1"/>
        <pt x="960" y="867" on="0"/>
        <pt x="1131" y="948" on="0"/>
        <pt x="1226" y="948" on="1"/>
        <pt x="1242" y="948" on="0"/>
        <pt x="1279" y="946" on="0"/>
        <pt x="1314" y="938" on="0"/>
        <pt x="1346" y="925" on="0"/>
      </contour>
      <contour>
        <pt x="551" y="421" on="1"/>
        <pt x="558" y="429" on="0"/>
        <pt x="570" y="446" on="0"/>
        <pt x="576" y="454" on="1"/>
        <pt x="549" y="460" on="0"/>
        <pt x="508" y="473" on="0"/>
        <pt x="468" y="485" on="0"/>
        <pt x="427" y="492" on="0"/>
        <pt x="400" y="492" on="1"/>
        <pt x="389" y="492" on="0"/>
        <pt x="362" y="488" on="0"/>
        <pt x="336" y="478" on="0"/>
        <pt x="319" y="459" on="0"/>
        <pt x="319" y="443" on="1"/>
        <pt x="319" y="429" on="0"/>
        <pt x="342" y="412" on="0"/>
        <pt x="375" y="402" on="0"/>
        <pt x="410" y="398" on="0"/>
        <pt x="422" y="398" on="1"/>
        <pt x="437" y="398" on="0"/>
        <pt x="476" y="403" on="0"/>
        <pt x="513" y="410" on="0"/>
        <pt x="544" y="418" on="0"/>
      </contour>
      <contour>
        <pt x="1313" y="797" on="1"/>
        <pt x="1329" y="805" on="0"/>
        <pt x="1357" y="846" on="0"/>
        <pt x="1357" y="867" on="1"/>
        <pt x="1357" y="888" on="0"/>
        <pt x="1329" y="912" on="0"/>
        <pt x="1289" y="926" on="0"/>
        <pt x="1244" y="930" on="0"/>
        <pt x="1226" y="930" on="1"/>
        <pt x="1138" y="930" on="0"/>
        <pt x="978" y="856" on="0"/>
        <pt x="904" y="795" on="1"/>
        <pt x="957" y="782" on="0"/>
        <pt x="1036" y="768" on="0"/>
        <pt x="1100" y="762" on="0"/>
        <pt x="1155" y="761" on="0"/>
        <pt x="1183" y="761" on="1"/>
        <pt x="1233" y="763" on="0"/>
        <pt x="1295" y="784" on="0"/>
      </contour>
    </TTGlyph>
    <TTGlyph name="G" xMin="265" yMin="-460" xMax="1200" yMax="981">
      <contour>
        <pt x="394" y="-460" on="1"/>
        <pt x="344" y="-459" on="0"/>
        <pt x="276" y="-408" on="0"/>
        <pt x="276" y="-355" on="1"/>
        <pt x="276" y="-306" on="0"/>
        <pt x="321" y="-228" on="0"/>
        <pt x="397" y="-168" on="0"/>
        <pt x="496" y="-122" on="0"/>
        <pt x="605" y="-90" on="0"/>
        <pt x="715" y="-68" on="0"/>
        <pt x="764" y="-61" on="1"/>
        <pt x="790" y="-4" on="0"/>
        <pt x="828" y="102" on="0"/>
        <pt x="845" y="151" on="1"/>
        <pt x="812" y="104" on="0"/>
        <pt x="731" y="30" on="0"/>
        <pt x="640" y="-22" on="0"/>
        <pt x="543" y="-50" on="0"/>
        <pt x="494" y="-50" on="1"/>
        <pt x="443" y="-50" on="0"/>
        <pt x="359" y="-20" on="0"/>
        <pt x="299" y="39" on="0"/>
        <pt x="265" y="126" on="0"/>
        <pt x="265" y="183" on="1"/>
        <pt x="265" y="249" on="0"/>
        <pt x="325" y="407" on="0"/>
        <pt x="436" y="573" on="0"/>
        <pt x="593" y="738" on="0"/>
        <pt x="691" y="811" on="1"/>
        <pt x="682" y="822" on="0"/>
        <pt x="665" y="851" on="0"/>
        <pt x="652" y="883" on="0"/>
        <pt x="644" y="914" on="0"/>
        <pt x="644" y="928" on="1"/>
        <pt x="644" y="938" on="0"/>
        <pt x="654" y="938" on="1"/>
        <pt x="662" y="938" on="0"/>
        <pt x="664" y="929" on="1"/>
        <pt x="664" y="898" on="0"/>
        <pt x="693" y="840" on="0"/>
        <pt x="707" y="822" on="1"/>
        <pt x="813" y="896" on="0"/>
        <pt x="999" y="981" on="0"/>
        <pt x="1086" y="981" on="1"/>
        <pt x="1108" y="981" on="0"/>
        <pt x="1150" y="970" on="0"/>
        <pt x="1181" y="945" on="0"/>
        <pt x="1200" y="907" on="0"/>
        <pt x="1200" y="880" on="1"/>
        <pt x="1200" y="856" on="0"/>
        <pt x="1182" y="811" on="0"/>
        <pt x="1154" y="771" on="0"/>
        <pt x="1119" y="738" on="0"/>
        <pt x="1101" y="727" on="1"/>
        <pt x="1032" y="683" on="0"/>
        <pt x="949" y="683" on="1"/>
        <pt x="878" y="683" on="0"/>
        <pt x="746" y="742" on="0"/>
        <pt x="703" y="794" on="1"/>
        <pt x="615" y="729" on="0"/>
        <pt x="463" y="573" on="0"/>
        <pt x="350" y="409" on="0"/>
        <pt x="286" y="250" on="0"/>
        <pt x="286" y="182" on="1"/>
        <pt x="286" y="122" on="0"/>
        <pt x="325" y="41" on="0"/>
        <pt x="385" y="-9" on="0"/>
        <pt x="459" y="-30" on="0"/>
        <pt x="495" y="-30" on="1"/>
        <pt x="547" y="-30" on="0"/>
        <pt x="640" y="0" on="0"/>
        <pt x="682" y="24" on="1"/>
        <pt x="705" y="37" on="0"/>
        <pt x="758" y="79" on="0"/>
        <pt x="812" y="137" on="0"/>
        <pt x="863" y="215" on="0"/>
        <pt x="884" y="265" on="1"/>
        <pt x="902" y="258" on="1"/>
        <pt x="879" y="188" on="0"/>
        <pt x="826" y="29" on="0"/>
        <pt x="787" y="-59" on="1"/>
        <pt x="856" y="-53" on="0"/>
        <pt x="931" y="-53" on="1"/>
        <pt x="939" y="-53" on="0"/>
        <pt x="965" y="-52" on="0"/>
        <pt x="990" y="-53" on="0"/>
        <pt x="1008" y="-58" on="0"/>
        <pt x="1008" y="-64" on="1"/>
        <pt x="1008" y="-74" on="0"/>
        <pt x="997" y="-74" on="1"/>
        <pt x="980" y="-73" on="0"/>
        <pt x="948" y="-73" on="0"/>
        <pt x="932" y="-73" on="1"/>
        <pt x="889" y="-73" on="0"/>
        <pt x="812" y="-77" on="0"/>
        <pt x="777" y="-80" on="1"/>
        <pt x="760" y="-115" on="0"/>
        <pt x="718" y="-199" on="0"/>
        <pt x="666" y="-283" on="0"/>
        <pt x="604" y="-362" on="0"/>
        <pt x="530" y="-423" on="0"/>
        <pt x="444" y="-460" on="0"/>
      </contour>
      <contour>
        <pt x="754" y="-83" on="1"/>
        <pt x="660" y="-94" on="0"/>
        <pt x="527" y="-130" on="0"/>
        <pt x="441" y="-166" on="0"/>
        <pt x="401" y="-193" on="0"/>
        <pt x="401" y="-193" on="1"/>
        <pt x="399" y="-193" on="0"/>
        <pt x="366" y="-218" on="0"/>
        <pt x="327" y="-262" on="0"/>
        <pt x="296" y="-321" on="0"/>
        <pt x="296" y="-355" on="1"/>
        <pt x="296" y="-394" on="0"/>
        <pt x="344" y="-440" on="0"/>
        <pt x="394" y="-440" on="1"/>
        <pt x="446" y="-440" on="0"/>
        <pt x="537" y="-394" on="0"/>
        <pt x="613" y="-324" on="0"/>
        <pt x="674" y="-238" on="0"/>
        <pt x="719" y="-159" on="0"/>
        <pt x="748" y="-96" on="0"/>
      </contour>
      <contour>
        <pt x="719" y="806" on="1"/>
        <pt x="762" y="755" on="0"/>
        <pt x="883" y="703" on="0"/>
        <pt x="946" y="703" on="1"/>
        <pt x="983" y="703" on="0"/>
        <pt x="1065" y="727" on="0"/>
        <pt x="1134" y="772" on="0"/>
        <pt x="1180" y="838" on="0"/>
        <pt x="1180" y="880" on="1"/>
        <pt x="1180" y="915" on="0"/>
        <pt x="1134" y="960" on="0"/>
        <pt x="1084" y="960" on="1"/>
        <pt x="1013" y="960" on="0"/>
        <pt x="821" y="881" on="0"/>
      </contour>
    </TTGlyph>
    <TTGlyph name="H" xMin="-17" yMin="-240" xMax="1264" yMax="1105">
      <contour>
        <pt x="15" y="-194" on="1"/>
        <pt x="0" y="-175" on="0"/>
        <pt x="-17" y="-124" on="0"/>
        <pt x="-17" y="-94" on="1"/>
        <pt x="-17" y="-49" on="0"/>
        <pt x="22" y="56" on="0"/>
        <pt x="67" y="116" on="1"/>
        <pt x="132" y="202" on="0"/>
        <pt x="316" y="333" on="0"/>
        <pt x="422" y="384" on="1"/>
        <pt x="451" y="475" on="0"/>
        <pt x="507" y="649" on="0"/>
        <pt x="567" y="804" on="0"/>
        <pt x="631" y="935" on="0"/>
        <pt x="667" y="984" on="1"/>
        <pt x="635" y="996" on="0"/>
        <pt x="570" y="1039" on="0"/>
        <pt x="536" y="1078" on="1"/>
        <pt x="533" y="1081" on="0"/>
        <pt x="533" y="1084" on="1"/>
        <pt x="533" y="1087" on="0"/>
        <pt x="539" y="1093" on="0"/>
        <pt x="542" y="1093" on="1"/>
        <pt x="546" y="1093" on="0"/>
        <pt x="549" y="1090" on="1"/>
        <pt x="584" y="1049" on="0"/>
        <pt x="650" y="1007" on="0"/>
        <pt x="679" y="999" on="1"/>
        <pt x="712" y="1043" on="0"/>
        <pt x="797" y="1105" on="0"/>
        <pt x="841" y="1105" on="1"/>
        <pt x="864" y="1105" on="0"/>
        <pt x="885" y="1078" on="0"/>
        <pt x="885" y="1063" on="1"/>
        <pt x="885" y="1040" on="0"/>
        <pt x="852" y="1010" on="0"/>
        <pt x="834" y="999" on="1"/>
        <pt x="832" y="998" on="0"/>
        <pt x="816" y="989" on="0"/>
        <pt x="791" y="980" on="0"/>
        <pt x="756" y="973" on="0"/>
        <pt x="735" y="973" on="1"/>
        <pt x="711" y="973" on="0"/>
        <pt x="686" y="979" on="1"/>
        <pt x="653" y="929" on="0"/>
        <pt x="591" y="813" on="0"/>
        <pt x="562" y="739" on="1"/>
        <pt x="532" y="662" on="0"/>
        <pt x="474" y="488" on="0"/>
        <pt x="444" y="394" on="1"/>
        <pt x="492" y="416" on="0"/>
        <pt x="592" y="455" on="0"/>
        <pt x="690" y="493" on="0"/>
        <pt x="782" y="530" on="0"/>
        <pt x="822" y="550" on="1"/>
        <pt x="851" y="602" on="0"/>
        <pt x="915" y="703" on="0"/>
        <pt x="967" y="781" on="0"/>
        <pt x="1001" y="827" on="0"/>
        <pt x="1000" y="826" on="1"/>
        <pt x="1002" y="828" on="0"/>
        <pt x="1037" y="873" on="0"/>
        <pt x="1091" y="926" on="0"/>
        <pt x="1156" y="970" on="0"/>
        <pt x="1188" y="970" on="1"/>
        <pt x="1221" y="970" on="0"/>
        <pt x="1264" y="926" on="0"/>
        <pt x="1264" y="895" on="1"/>
        <pt x="1264" y="864" on="0"/>
        <pt x="1231" y="812" on="0"/>
        <pt x="1212" y="792" on="1"/>
        <pt x="1210" y="790" on="0"/>
        <pt x="1161" y="744" on="0"/>
        <pt x="1066" y="671" on="0"/>
        <pt x="927" y="581" on="0"/>
        <pt x="835" y="536" on="1"/>
        <pt x="804" y="482" on="0"/>
        <pt x="747" y="366" on="0"/>
        <pt x="703" y="251" on="0"/>
        <pt x="677" y="139" on="0"/>
        <pt x="677" y="90" on="1"/>
        <pt x="677" y="37" on="0"/>
        <pt x="706" y="-39" on="0"/>
        <pt x="755" y="-91" on="0"/>
        <pt x="819" y="-124" on="0"/>
        <pt x="854" y="-133" on="1"/>
        <pt x="860" y="-136" on="0"/>
        <pt x="860" y="-142" on="1"/>
        <pt x="860" y="-151" on="0"/>
        <pt x="851" y="-151" on="1"/>
        <pt x="849" y="-151" on="1"/>
        <pt x="810" y="-140" on="0"/>
        <pt x="740" y="-102" on="0"/>
        <pt x="689" y="-44" on="0"/>
        <pt x="659" y="36" on="0"/>
        <pt x="659" y="90" on="1"/>
        <pt x="659" y="138" on="0"/>
        <pt x="684" y="246" on="0"/>
        <pt x="725" y="358" on="0"/>
        <pt x="778" y="470" on="0"/>
        <pt x="806" y="523" on="1"/>
        <pt x="766" y="503" on="0"/>
        <pt x="676" y="467" on="0"/>
        <pt x="581" y="431" on="0"/>
        <pt x="483" y="392" on="0"/>
        <pt x="437" y="371" on="1"/>
        <pt x="422" y="326" on="0"/>
        <pt x="400" y="248" on="0"/>
        <pt x="375" y="168" on="0"/>
        <pt x="344" y="79" on="0"/>
        <pt x="320" y="22" on="1"/>
        <pt x="304" y="-17" on="0"/>
        <pt x="259" y="-108" on="0"/>
        <pt x="205" y="-187" on="0"/>
        <pt x="141" y="-240" on="0"/>
        <pt x="105" y="-240" on="1"/>
        <pt x="79" y="-240" on="0"/>
        <pt x="32" y="-215" on="0"/>
      </contour>
      <contour>
        <pt x="82" y="105" on="1"/>
        <pt x="38" y="48" on="0"/>
        <pt x="1" y="-53" on="0"/>
        <pt x="1" y="-94" on="1"/>
        <pt x="1" y="-124" on="0"/>
        <pt x="19" y="-172" on="0"/>
        <pt x="48" y="-205" on="0"/>
        <pt x="86" y="-222" on="0"/>
        <pt x="106" y="-222" on="1"/>
        <pt x="140" y="-222" on="0"/>
        <pt x="207" y="-157" on="0"/>
        <pt x="268" y="-57" on="0"/>
        <pt x="319" y="62" on="0"/>
        <pt x="337" y="116" on="1"/>
        <pt x="358" y="179" on="0"/>
        <pt x="395" y="300" on="0"/>
        <pt x="415" y="360" on="1"/>
        <pt x="314" y="310" on="0"/>
        <pt x="142" y="185" on="0"/>
      </contour>
      <contour>
        <pt x="1081" y="891" on="1"/>
        <pt x="1054" y="865" on="0"/>
        <pt x="1013" y="817" on="0"/>
        <pt x="975" y="764" on="0"/>
        <pt x="935" y="700" on="0"/>
        <pt x="908" y="658" on="1"/>
        <pt x="894" y="636" on="0"/>
        <pt x="865" y="590" on="0"/>
        <pt x="851" y="564" on="1"/>
        <pt x="934" y="607" on="0"/>
        <pt x="1061" y="690" on="0"/>
        <pt x="1148" y="757" on="0"/>
        <pt x="1195" y="801" on="0"/>
        <pt x="1198" y="804" on="1"/>
        <pt x="1216" y="823" on="0"/>
        <pt x="1246" y="869" on="0"/>
        <pt x="1246" y="895" on="1"/>
        <pt x="1246" y="918" on="0"/>
        <pt x="1210" y="952" on="0"/>
        <pt x="1188" y="952" on="1"/>
        <pt x="1172" y="952" on="0"/>
        <pt x="1142" y="940" on="0"/>
        <pt x="1115" y="922" on="0"/>
        <pt x="1091" y="900" on="0"/>
      </contour>
      <contour>
        <pt x="735" y="991" on="1"/>
        <pt x="755" y="991" on="0"/>
        <pt x="787" y="997" on="0"/>
        <pt x="799" y="1002" on="1"/>
        <pt x="813" y="1007" on="0"/>
        <pt x="824" y="1014" on="1"/>
        <pt x="836" y="1021" on="0"/>
        <pt x="867" y="1045" on="0"/>
        <pt x="867" y="1062" on="1"/>
        <pt x="867" y="1079" on="0"/>
        <pt x="847" y="1087" on="0"/>
        <pt x="837" y="1087" on="1"/>
        <pt x="818" y="1087" on="0"/>
        <pt x="778" y="1068" on="0"/>
        <pt x="742" y="1040" on="0"/>
        <pt x="710" y="1008" on="0"/>
        <pt x="698" y="994" on="1"/>
        <pt x="717" y="991" on="0"/>
      </contour>
    </TTGlyph>
    <TTGlyph name="I" xMin="-48" yMin="-119" xMax="1311" yMax="924">
      <contour>
        <pt x="90" y="-119" on="1"/>
        <pt x="63" y="-119" on="0"/>
        <pt x="14" y="-106" on="0"/>
        <pt x="-25" y="-77" on="0"/>
        <pt x="-48" y="-30" on="0"/>
        <pt x="-48" y="3" on="1"/>
        <pt x="-48" y="9" on="0"/>
        <pt x="-48" y="27" on="0"/>
        <pt x="-45" y="44" on="0"/>
        <pt x="-39" y="56" on="0"/>
        <pt x="-33" y="56" on="1"/>
        <pt x="-23" y="56" on="0"/>
        <pt x="-23" y="46" on="1"/>
        <pt x="-23" y="35" on="0"/>
        <pt x="-28" y="13" on="0"/>
        <pt x="-28" y="3" on="1"/>
        <pt x="-28" y="-27" on="0"/>
        <pt x="-7" y="-66" on="0"/>
        <pt x="27" y="-89" on="0"/>
        <pt x="69" y="-99" on="0"/>
        <pt x="89" y="-99" on="1"/>
        <pt x="138" y="-99" on="0"/>
        <pt x="230" y="-46" on="0"/>
        <pt x="327" y="52" on="0"/>
        <pt x="434" y="192" on="0"/>
        <pt x="498" y="279" on="1"/>
        <pt x="553" y="351" on="0"/>
        <pt x="657" y="501" on="0"/>
        <pt x="760" y="640" on="0"/>
        <pt x="864" y="760" on="0"/>
        <pt x="920" y="804" on="1"/>
        <pt x="889" y="815" on="0"/>
        <pt x="805" y="837" on="0"/>
        <pt x="760" y="837" on="1"/>
        <pt x="741" y="837" on="0"/>
        <pt x="704" y="832" on="0"/>
        <pt x="686" y="826" on="1"/>
        <pt x="685" y="825" on="0"/>
        <pt x="683" y="825" on="1"/>
        <pt x="673" y="825" on="0"/>
        <pt x="673" y="836" on="1"/>
        <pt x="673" y="842" on="0"/>
        <pt x="695" y="851" on="0"/>
        <pt x="725" y="856" on="0"/>
        <pt x="755" y="858" on="0"/>
        <pt x="763" y="858" on="1"/>
        <pt x="808" y="858" on="0"/>
        <pt x="895" y="834" on="0"/>
        <pt x="938" y="820" on="1"/>
        <pt x="1004" y="870" on="0"/>
        <pt x="1133" y="924" on="0"/>
        <pt x="1205" y="924" on="1"/>
        <pt x="1220" y="924" on="0"/>
        <pt x="1257" y="919" on="0"/>
        <pt x="1289" y="903" on="0"/>
        <pt x="1311" y="874" on="0"/>
        <pt x="1311" y="851" on="1"/>
        <pt x="1311" y="834" on="0"/>
        <pt x="1299" y="799" on="0"/>
        <pt x="1269" y="770" on="0"/>
        <pt x="1221" y="751" on="0"/>
        <pt x="1185" y="751" on="1"/>
        <pt x="1160" y="751" on="0"/>
        <pt x="1108" y="757" on="0"/>
        <pt x="1050" y="768" on="0"/>
        <pt x="983" y="785" on="0"/>
        <pt x="942" y="797" on="1"/>
        <pt x="886" y="752" on="0"/>
        <pt x="780" y="630" on="0"/>
        <pt x="675" y="491" on="0"/>
        <pt x="569" y="340" on="0"/>
        <pt x="514" y="267" on="1"/>
        <pt x="448" y="178" on="0"/>
        <pt x="339" y="35" on="0"/>
        <pt x="238" y="-65" on="0"/>
        <pt x="142" y="-119" on="0"/>
      </contour>
      <contour>
        <pt x="962" y="812" on="1"/>
        <pt x="1037" y="789" on="0"/>
        <pt x="1142" y="771" on="0"/>
        <pt x="1190" y="771" on="1"/>
        <pt x="1232" y="771" on="0"/>
        <pt x="1291" y="815" on="0"/>
        <pt x="1291" y="849" on="1"/>
        <pt x="1291" y="867" on="0"/>
        <pt x="1275" y="888" on="0"/>
        <pt x="1250" y="900" on="0"/>
        <pt x="1221" y="904" on="0"/>
        <pt x="1208" y="904" on="1"/>
        <pt x="1139" y="904" on="0"/>
        <pt x="1016" y="854" on="0"/>
      </contour>
    </TTGlyph>
    <TTGlyph name="Iacute" xMin="-48" yMin="-119" xMax="1404" yMax="1108">
      <component glyphName="I" x="0" y="0" flags="0x1204"/>
      <component glyphName="acute" x="911" y="161" flags="0x1004"/>
    </TTGlyph>
    <TTGlyph name="Icircumflex" xMin="-48" yMin="-119" xMax="1458" yMax="1061">
      <component glyphName="I" x="0" y="0" flags="0x1204"/>
      <component glyphName="circumflex" x="819" y="146" flags="0x1004"/>
    </TTGlyph>
    <TTGlyph name="Idieresis" xMin="-48" yMin="-119" xMax="1324" yMax="1042">
      <component glyphName="I" x="0" y="0" flags="0x1204"/>
      <component glyphName="dieresis" x="1010" y="146" flags="0x1004"/>
    </TTGlyph>
    <TTGlyph name="Igrave" xMin="-48" yMin="-119" xMax="1311" yMax="1193">
      <component glyphName="I" x="0" y="0" flags="0x1204"/>
      <component glyphName="grave" x="880" y="127" flags="0x1004"/>
    </TTGlyph>
    <TTGlyph name="J" xMin="-549" yMin="-402" xMax="1325" yMax="978">
      <contour>
        <pt x="-450" y="-402" on="1"/>
        <pt x="-492" y="-401" on="0"/>
        <pt x="-549" y="-362" on="0"/>
        <pt x="-549" y="-314" on="1"/>
        <pt x="-549" y="-271" on="0"/>
        <pt x="-505" y="-194" on="0"/>
        <pt x="-439" y="-131" on="0"/>
        <pt x="-361" y="-83" on="0"/>
        <pt x="-328" y="-69" on="1"/>
        <pt x="-272" y="-45" on="0"/>
        <pt x="-158" y="-17" on="0"/>
        <pt x="-45" y="1" on="0"/>
        <pt x="67" y="13" on="0"/>
        <pt x="121" y="21" on="1"/>
        <pt x="196" y="105" on="0"/>
        <pt x="319" y="258" on="0"/>
        <pt x="426" y="400" on="0"/>
        <pt x="523" y="529" on="0"/>
        <pt x="621" y="649" on="0"/>
        <pt x="724" y="759" on="0"/>
        <pt x="785" y="810" on="1"/>
        <pt x="795" y="818" on="0"/>
        <pt x="814" y="834" on="0"/>
        <pt x="825" y="842" on="1"/>
        <pt x="750" y="862" on="0"/>
        <pt x="635" y="881" on="0"/>
        <pt x="588" y="881" on="1"/>
        <pt x="526" y="881" on="0"/>
        <pt x="460" y="864" on="0"/>
        <pt x="455" y="864" on="1"/>
        <pt x="451" y="864" on="0"/>
        <pt x="444" y="869" on="0"/>
        <pt x="444" y="874" on="1"/>
        <pt x="444" y="881" on="0"/>
        <pt x="451" y="883" on="1"/>
        <pt x="452" y="884" on="0"/>
        <pt x="526" y="902" on="0"/>
        <pt x="590" y="902" on="1"/>
        <pt x="641" y="902" on="0"/>
        <pt x="762" y="879" on="0"/>
        <pt x="845" y="857" on="1"/>
        <pt x="1014" y="978" on="0"/>
        <pt x="1186" y="978" on="1"/>
        <pt x="1210" y="978" on="1"/>
        <pt x="1214" y="978" on="0"/>
        <pt x="1251" y="973" on="0"/>
        <pt x="1292" y="957" on="0"/>
        <pt x="1325" y="924" on="0"/>
        <pt x="1325" y="896" on="1"/>
        <pt x="1325" y="884" on="0"/>
        <pt x="1322" y="869" on="1"/>
        <pt x="1319" y="862" on="0"/>
        <pt x="1306" y="833" on="0"/>
        <pt x="1267" y="803" on="0"/>
        <pt x="1193" y="780" on="0"/>
        <pt x="1130" y="780" on="1"/>
        <pt x="1108" y="780" on="0"/>
        <pt x="1060" y="785" on="0"/>
        <pt x="995" y="797" on="0"/>
        <pt x="909" y="818" on="0"/>
        <pt x="849" y="835" on="1"/>
        <pt x="784" y="787" on="0"/>
        <pt x="672" y="677" on="0"/>
        <pt x="566" y="553" on="0"/>
        <pt x="462" y="416" on="0"/>
        <pt x="350" y="268" on="0"/>
        <pt x="224" y="108" on="0"/>
        <pt x="150" y="24" on="1"/>
        <pt x="187" y="28" on="0"/>
        <pt x="256" y="42" on="0"/>
        <pt x="319" y="67" on="0"/>
        <pt x="374" y="108" on="0"/>
        <pt x="396" y="140" on="1"/>
        <pt x="407" y="157" on="0"/>
        <pt x="422" y="187" on="0"/>
        <pt x="427" y="199" on="1"/>
        <pt x="432" y="213" on="0"/>
        <pt x="435" y="225" on="1"/>
        <pt x="439" y="233" on="0"/>
        <pt x="445" y="233" on="1"/>
        <pt x="450" y="233" on="0"/>
        <pt x="455" y="226" on="0"/>
        <pt x="455" y="223" on="1"/>
        <pt x="455" y="221" on="1"/>
        <pt x="454" y="219" on="0"/>
        <pt x="437" y="165" on="0"/>
        <pt x="413" y="130" on="1"/>
        <pt x="388" y="91" on="0"/>
        <pt x="325" y="45" on="0"/>
        <pt x="253" y="20" on="0"/>
        <pt x="173" y="8" on="0"/>
        <pt x="132" y="2" on="1"/>
        <pt x="93" y="-40" on="0"/>
        <pt x="6" y="-133" on="0"/>
        <pt x="-89" y="-223" on="0"/>
        <pt x="-189" y="-304" on="0"/>
        <pt x="-292" y="-366" on="0"/>
        <pt x="-398" y="-402" on="0"/>
      </contour>
      <contour>
        <pt x="101" y="-2" on="1"/>
        <pt x="45" y="-9" on="0"/>
        <pt x="-63" y="-22" on="0"/>
        <pt x="-168" y="-40" on="0"/>
        <pt x="-271" y="-67" on="0"/>
        <pt x="-320" y="-88" on="1"/>
        <pt x="-351" y="-102" on="0"/>
        <pt x="-424" y="-146" on="0"/>
        <pt x="-487" y="-205" on="0"/>
        <pt x="-529" y="-274" on="0"/>
        <pt x="-529" y="-311" on="1"/>
        <pt x="-529" y="-333" on="0"/>
        <pt x="-515" y="-361" on="0"/>
        <pt x="-493" y="-378" on="0"/>
        <pt x="-463" y="-384" on="0"/>
        <pt x="-448" y="-384" on="1"/>
        <pt x="-397" y="-384" on="0"/>
        <pt x="-283" y="-342" on="0"/>
        <pt x="-149" y="-251" on="0"/>
        <pt x="8" y="-106" on="0"/>
      </contour>
      <contour>
        <pt x="870" y="850" on="1"/>
        <pt x="923" y="835" on="0"/>
        <pt x="1001" y="816" on="0"/>
        <pt x="1061" y="804" on="0"/>
        <pt x="1106" y="799" on="0"/>
        <pt x="1126" y="799" on="1"/>
        <pt x="1225" y="799" on="0"/>
        <pt x="1306" y="850" on="0"/>
        <pt x="1306" y="894" on="1"/>
        <pt x="1306" y="918" on="0"/>
        <pt x="1277" y="944" on="0"/>
        <pt x="1241" y="956" on="0"/>
        <pt x="1210" y="958" on="0"/>
        <pt x="1209" y="958" on="1"/>
        <pt x="1185" y="958" on="1"/>
        <pt x="1099" y="958" on="0"/>
        <pt x="942" y="901" on="0"/>
      </contour>
    </TTGlyph>
    <TTGlyph name="K" xMin="-294" yMin="-41" xMax="1258" yMax="973">
      <contour>
        <pt x="1212" y="847" on="1"/>
        <pt x="1233" y="839" on="0"/>
        <pt x="1258" y="800" on="0"/>
        <pt x="1258" y="776" on="1"/>
        <pt x="1258" y="749" on="0"/>
        <pt x="1246" y="732" on="0"/>
        <pt x="1242" y="732" on="1"/>
        <pt x="1233" y="732" on="0"/>
        <pt x="1233" y="740" on="1"/>
        <pt x="1233" y="748" on="0"/>
        <pt x="1240" y="765" on="0"/>
        <pt x="1240" y="776" on="1"/>
        <pt x="1240" y="799" on="0"/>
        <pt x="1208" y="835" on="0"/>
        <pt x="1179" y="835" on="1"/>
        <pt x="1158" y="835" on="0"/>
        <pt x="1111" y="811" on="0"/>
        <pt x="1063" y="774" on="0"/>
        <pt x="1014" y="729" on="0"/>
        <pt x="990" y="709" on="1"/>
        <pt x="942" y="667" on="0"/>
        <pt x="833" y="586" on="0"/>
        <pt x="716" y="517" on="0"/>
        <pt x="594" y="464" on="0"/>
        <pt x="532" y="451" on="1"/>
        <pt x="560" y="413" on="0"/>
        <pt x="596" y="317" on="0"/>
        <pt x="596" y="260" on="1"/>
        <pt x="596" y="203" on="0"/>
        <pt x="575" y="105" on="0"/>
        <pt x="575" y="67" on="1"/>
        <pt x="575" y="51" on="0"/>
        <pt x="584" y="18" on="0"/>
        <pt x="604" y="-8" on="0"/>
        <pt x="633" y="-24" on="0"/>
        <pt x="653" y="-24" on="1"/>
        <pt x="685" y="-24" on="0"/>
        <pt x="749" y="13" on="0"/>
        <pt x="770" y="35" on="1"/>
        <pt x="774" y="37" on="0"/>
        <pt x="776" y="37" on="1"/>
        <pt x="779" y="37" on="0"/>
        <pt x="785" y="33" on="0"/>
        <pt x="785" y="28" on="1"/>
        <pt x="785" y="24" on="0"/>
        <pt x="783" y="22" on="1"/>
        <pt x="772" y="11" on="0"/>
        <pt x="741" y="-12" on="0"/>
        <pt x="707" y="-30" on="0"/>
        <pt x="670" y="-41" on="0"/>
        <pt x="652" y="-41" on="1"/>
        <pt x="610" y="-41" on="0"/>
        <pt x="557" y="20" on="0"/>
        <pt x="557" y="67" on="1"/>
        <pt x="557" y="110" on="0"/>
        <pt x="578" y="205" on="0"/>
        <pt x="578" y="260" on="1"/>
        <pt x="578" y="318" on="0"/>
        <pt x="541" y="409" on="0"/>
        <pt x="512" y="447" on="1"/>
        <pt x="492" y="443" on="0"/>
        <pt x="454" y="440" on="0"/>
        <pt x="434" y="440" on="1"/>
        <pt x="372" y="440" on="0"/>
        <pt x="315" y="459" on="1"/>
        <pt x="305" y="445" on="0"/>
        <pt x="285" y="417" on="0"/>
        <pt x="274" y="403" on="1"/>
        <pt x="205" y="311" on="0"/>
        <pt x="92" y="158" on="0"/>
        <pt x="-11" y="49" on="0"/>
        <pt x="-110" y="-11" on="0"/>
        <pt x="-164" y="-11" on="1"/>
        <pt x="-230" y="-11" on="0"/>
        <pt x="-294" y="52" on="0"/>
        <pt x="-294" y="103" on="1"/>
        <pt x="-294" y="108" on="0"/>
        <pt x="-294" y="125" on="0"/>
        <pt x="-291" y="141" on="0"/>
        <pt x="-285" y="153" on="0"/>
        <pt x="-280" y="153" on="1"/>
        <pt x="-271" y="153" on="0"/>
        <pt x="-271" y="145" on="1"/>
        <pt x="-271" y="134" on="0"/>
        <pt x="-276" y="112" on="0"/>
        <pt x="-276" y="103" on="1"/>
        <pt x="-276" y="60" on="0"/>
        <pt x="-222" y="7" on="0"/>
        <pt x="-164" y="7" on="1"/>
        <pt x="-109" y="7" on="0"/>
        <pt x="-8" y="75" on="0"/>
        <pt x="99" y="197" on="0"/>
        <pt x="221" y="366" on="0"/>
        <pt x="298" y="466" on="1"/>
        <pt x="290" y="471" on="0"/>
        <pt x="272" y="482" on="0"/>
        <pt x="255" y="497" on="0"/>
        <pt x="244" y="518" on="0"/>
        <pt x="244" y="532" on="1"/>
        <pt x="244" y="559" on="0"/>
        <pt x="286" y="591" on="0"/>
        <pt x="313" y="591" on="1"/>
        <pt x="330" y="591" on="0"/>
        <pt x="364" y="583" on="0"/>
        <pt x="379" y="576" on="1"/>
        <pt x="439" y="657" on="0"/>
        <pt x="561" y="803" on="0"/>
        <pt x="624" y="859" on="1"/>
        <pt x="577" y="868" on="0"/>
        <pt x="466" y="894" on="0"/>
        <pt x="357" y="917" on="0"/>
        <pt x="262" y="933" on="0"/>
        <pt x="231" y="933" on="1"/>
        <pt x="174" y="933" on="0"/>
        <pt x="122" y="900" on="0"/>
        <pt x="122" y="871" on="1"/>
        <pt x="122" y="867" on="1"/>
        <pt x="122" y="859" on="0"/>
        <pt x="112" y="859" on="1"/>
        <pt x="107" y="859" on="0"/>
        <pt x="104" y="868" on="0"/>
        <pt x="104" y="873" on="1"/>
        <pt x="104" y="883" on="0"/>
        <pt x="115" y="910" on="0"/>
        <pt x="143" y="934" on="0"/>
        <pt x="192" y="951" on="0"/>
        <pt x="231" y="951" on="1"/>
        <pt x="265" y="951" on="0"/>
        <pt x="365" y="934" on="0"/>
        <pt x="478" y="910" on="0"/>
        <pt x="594" y="883" on="0"/>
        <pt x="642" y="873" on="1"/>
        <pt x="694" y="918" on="0"/>
        <pt x="810" y="971" on="0"/>
        <pt x="871" y="973" on="1"/>
        <pt x="883" y="973" on="0"/>
        <pt x="912" y="968" on="0"/>
        <pt x="936" y="953" on="0"/>
        <pt x="952" y="927" on="0"/>
        <pt x="952" y="906" on="1"/>
        <pt x="952" y="882" on="0"/>
        <pt x="931" y="851" on="0"/>
        <pt x="897" y="833" on="0"/>
        <pt x="856" y="825" on="0"/>
        <pt x="837" y="825" on="1"/>
        <pt x="815" y="825" on="0"/>
        <pt x="716" y="840" on="0"/>
        <pt x="647" y="854" on="1"/>
        <pt x="582" y="801" on="0"/>
        <pt x="459" y="653" on="0"/>
        <pt x="396" y="568" on="1"/>
        <pt x="430" y="551" on="0"/>
        <pt x="494" y="498" on="0"/>
        <pt x="519" y="467" on="1"/>
        <pt x="579" y="478" on="0"/>
        <pt x="701" y="529" on="0"/>
        <pt x="819" y="598" on="0"/>
        <pt x="930" y="680" on="0"/>
        <pt x="979" y="722" on="1"/>
        <pt x="1002" y="742" on="0"/>
        <pt x="1051" y="788" on="0"/>
        <pt x="1101" y="827" on="0"/>
        <pt x="1152" y="853" on="0"/>
        <pt x="1179" y="853" on="1"/>
        <pt x="1195" y="853" on="0"/>
      </contour>
      <contour>
        <pt x="717" y="905" on="1"/>
        <pt x="704" y="897" on="0"/>
        <pt x="678" y="879" on="0"/>
        <pt x="665" y="869" on="1"/>
        <pt x="730" y="856" on="0"/>
        <pt x="820" y="843" on="0"/>
        <pt x="840" y="843" on="1"/>
        <pt x="854" y="843" on="0"/>
        <pt x="887" y="848" on="0"/>
        <pt x="916" y="862" on="0"/>
        <pt x="935" y="887" on="0"/>
        <pt x="935" y="907" on="1"/>
        <pt x="935" y="922" on="0"/>
        <pt x="924" y="940" on="0"/>
        <pt x="906" y="951" on="0"/>
        <pt x="883" y="955" on="0"/>
        <pt x="871" y="955" on="1"/>
        <pt x="832" y="954" on="0"/>
        <pt x="755" y="928" on="0"/>
      </contour>
      <contour>
        <pt x="262" y="532" on="1"/>
        <pt x="262" y="515" on="0"/>
        <pt x="294" y="488" on="0"/>
        <pt x="309" y="481" on="1"/>
        <pt x="323" y="501" on="0"/>
        <pt x="353" y="541" on="0"/>
        <pt x="368" y="561" on="1"/>
        <pt x="355" y="566" on="0"/>
        <pt x="328" y="574" on="0"/>
        <pt x="313" y="574" on="1"/>
        <pt x="296" y="574" on="0"/>
        <pt x="262" y="553" on="0"/>
      </contour>
      <contour>
        <pt x="434" y="458" on="1"/>
        <pt x="450" y="458" on="0"/>
        <pt x="482" y="461" on="0"/>
        <pt x="499" y="463" on="1"/>
        <pt x="478" y="486" on="0"/>
        <pt x="445" y="517" on="0"/>
        <pt x="418" y="537" on="0"/>
        <pt x="395" y="549" on="0"/>
        <pt x="385" y="554" on="1"/>
        <pt x="370" y="534" on="0"/>
        <pt x="341" y="494" on="0"/>
        <pt x="326" y="474" on="1"/>
        <pt x="377" y="458" on="0"/>
      </contour>
    </TTGlyph>
    <TTGlyph name="L" xMin="12" yMin="-243" xMax="1328" yMax="933">
      <contour>
        <pt x="540" y="-188" on="1"/>
        <pt x="497" y="-164" on="0"/>
        <pt x="432" y="-115" on="0"/>
        <pt x="380" y="-66" on="0"/>
        <pt x="338" y="-18" on="0"/>
        <pt x="319" y="3" on="1"/>
        <pt x="283" y="-24" on="0"/>
        <pt x="197" y="-54" on="0"/>
        <pt x="159" y="-54" on="1"/>
        <pt x="135" y="-54" on="0"/>
        <pt x="83" y="-43" on="0"/>
        <pt x="40" y="-20" on="0"/>
        <pt x="12" y="16" on="0"/>
        <pt x="12" y="40" on="1"/>
        <pt x="12" y="64" on="0"/>
        <pt x="31" y="97" on="0"/>
        <pt x="61" y="119" on="0"/>
        <pt x="98" y="129" on="0"/>
        <pt x="116" y="129" on="1"/>
        <pt x="181" y="127" on="0"/>
        <pt x="276" y="71" on="0"/>
        <pt x="322" y="26" on="1"/>
        <pt x="397" y="81" on="0"/>
        <pt x="553" y="253" on="0"/>
        <pt x="641" y="372" on="1"/>
        <pt x="690" y="438" on="0"/>
        <pt x="781" y="569" on="0"/>
        <pt x="870" y="691" on="0"/>
        <pt x="961" y="796" on="0"/>
        <pt x="1009" y="837" on="1"/>
        <pt x="976" y="848" on="0"/>
        <pt x="896" y="871" on="0"/>
        <pt x="862" y="871" on="1"/>
        <pt x="833" y="871" on="0"/>
        <pt x="785" y="861" on="0"/>
        <pt x="749" y="849" on="0"/>
        <pt x="728" y="839" on="0"/>
        <pt x="727" y="839" on="1"/>
        <pt x="723" y="837" on="0"/>
        <pt x="722" y="837" on="1"/>
        <pt x="718" y="837" on="0"/>
        <pt x="713" y="843" on="0"/>
        <pt x="713" y="846" on="1"/>
        <pt x="713" y="852" on="0"/>
        <pt x="718" y="854" on="1"/>
        <pt x="718" y="854" on="0"/>
        <pt x="740" y="865" on="0"/>
        <pt x="777" y="878" on="0"/>
        <pt x="830" y="889" on="0"/>
        <pt x="862" y="889" on="1"/>
        <pt x="881" y="889" on="0"/>
        <pt x="923" y="882" on="0"/>
        <pt x="967" y="871" on="0"/>
        <pt x="1008" y="857" on="0"/>
        <pt x="1026" y="850" on="1"/>
        <pt x="1073" y="887" on="0"/>
        <pt x="1183" y="933" on="0"/>
        <pt x="1245" y="933" on="1"/>
        <pt x="1277" y="933" on="0"/>
        <pt x="1328" y="897" on="0"/>
        <pt x="1328" y="863" on="1"/>
        <pt x="1328" y="849" on="0"/>
        <pt x="1316" y="820" on="0"/>
        <pt x="1289" y="796" on="0"/>
        <pt x="1247" y="781" on="0"/>
        <pt x="1217" y="781" on="1"/>
        <pt x="1190" y="781" on="0"/>
        <pt x="1145" y="789" on="0"/>
        <pt x="1101" y="802" on="0"/>
        <pt x="1055" y="820" on="0"/>
        <pt x="1029" y="830" on="1"/>
        <pt x="980" y="791" on="0"/>
        <pt x="888" y="686" on="0"/>
        <pt x="798" y="563" on="0"/>
        <pt x="705" y="429" on="0"/>
        <pt x="655" y="361" on="1"/>
        <pt x="567" y="243" on="0"/>
        <pt x="409" y="67" on="0"/>
        <pt x="334" y="13" on="1"/>
        <pt x="355" y="-8" on="0"/>
        <pt x="396" y="-54" on="0"/>
        <pt x="446" y="-101" on="0"/>
        <pt x="507" y="-149" on="0"/>
        <pt x="549" y="-172" on="1"/>
        <pt x="599" y="-200" on="0"/>
        <pt x="689" y="-225" on="0"/>
        <pt x="727" y="-225" on="1"/>
        <pt x="749" y="-225" on="0"/>
        <pt x="794" y="-215" on="0"/>
        <pt x="830" y="-192" on="0"/>
        <pt x="853" y="-156" on="0"/>
        <pt x="853" y="-129" on="1"/>
        <pt x="853" y="-109" on="0"/>
        <pt x="838" y="-76" on="0"/>
        <pt x="819" y="-52" on="0"/>
        <pt x="804" y="-38" on="0"/>
        <pt x="804" y="-37" on="1"/>
        <pt x="804" y="-27" on="0"/>
        <pt x="813" y="-27" on="1"/>
        <pt x="815" y="-26" on="0"/>
        <pt x="819" y="-29" on="1"/>
        <pt x="823" y="-31" on="0"/>
        <pt x="835" y="-43" on="0"/>
        <pt x="845" y="-57" on="1"/>
        <pt x="871" y="-94" on="0"/>
        <pt x="871" y="-130" on="1"/>
        <pt x="871" y="-163" on="0"/>
        <pt x="842" y="-206" on="0"/>
        <pt x="798" y="-232" on="0"/>
        <pt x="748" y="-243" on="0"/>
        <pt x="727" y="-243" on="1"/>
        <pt x="686" y="-243" on="0"/>
        <pt x="591" y="-217" on="0"/>
      </contour>
      <contour>
        <pt x="30" y="39" on="1"/>
        <pt x="33" y="17" on="0"/>
        <pt x="60" y="-12" on="0"/>
        <pt x="98" y="-29" on="0"/>
        <pt x="141" y="-36" on="0"/>
        <pt x="159" y="-36" on="1"/>
        <pt x="194" y="-36" on="0"/>
        <pt x="269" y="-9" on="0"/>
        <pt x="307" y="16" on="1"/>
        <pt x="265" y="58" on="0"/>
        <pt x="173" y="111" on="0"/>
        <pt x="116" y="111" on="1"/>
        <pt x="81" y="111" on="0"/>
        <pt x="30" y="74" on="0"/>
      </contour>
      <contour>
        <pt x="1099" y="823" on="1"/>
        <pt x="1127" y="812" on="0"/>
        <pt x="1181" y="799" on="0"/>
        <pt x="1213" y="799" on="1"/>
        <pt x="1232" y="799" on="0"/>
        <pt x="1267" y="806" on="0"/>
        <pt x="1294" y="822" on="0"/>
        <pt x="1310" y="845" on="0"/>
        <pt x="1310" y="862" on="1"/>
        <pt x="1310" y="878" on="0"/>
        <pt x="1297" y="898" on="0"/>
        <pt x="1276" y="910" on="0"/>
        <pt x="1252" y="915" on="0"/>
        <pt x="1242" y="915" on="1"/>
        <pt x="1186" y="913" on="0"/>
        <pt x="1092" y="875" on="0"/>
        <pt x="1046" y="843" on="1"/>
        <pt x="1061" y="837" on="0"/>
        <pt x="1087" y="828" on="0"/>
      </contour>
    </TTGlyph>
    <TTGlyph name="Lslash" xMin="12" yMin="-243" xMax="1328" yMax="933">
      <contour>
        <pt x="926" y="488" on="1"/>
        <pt x="378" y="232" on="1"/>
        <pt x="376" y="231" on="0"/>
        <pt x="374" y="231" on="1"/>
        <pt x="370" y="231" on="0"/>
        <pt x="365" y="237" on="0"/>
        <pt x="365" y="240" on="1"/>
        <pt x="365" y="245" on="0"/>
        <pt x="370" y="248" on="1"/>
        <pt x="918" y="504" on="1"/>
        <pt x="919" y="505" on="0"/>
        <pt x="922" y="505" on="1"/>
        <pt x="931" y="505" on="0"/>
        <pt x="931" y="495" on="1"/>
        <pt x="931" y="491" on="0"/>
      </contour>
      <contour>
        <pt x="540" y="-188" on="1"/>
        <pt x="497" y="-164" on="0"/>
        <pt x="432" y="-115" on="0"/>
        <pt x="380" y="-66" on="0"/>
        <pt x="338" y="-18" on="0"/>
        <pt x="319" y="3" on="1"/>
        <pt x="283" y="-24" on="0"/>
        <pt x="197" y="-54" on="0"/>
        <pt x="159" y="-54" on="1"/>
        <pt x="135" y="-54" on="0"/>
        <pt x="83" y="-43" on="0"/>
        <pt x="40" y="-20" on="0"/>
        <pt x="12" y="16" on="0"/>
        <pt x="12" y="40" on="1"/>
        <pt x="12" y="64" on="0"/>
        <pt x="31" y="97" on="0"/>
        <pt x="61" y="119" on="0"/>
        <pt x="98" y="129" on="0"/>
        <pt x="116" y="129" on="1"/>
        <pt x="181" y="127" on="0"/>
        <pt x="276" y="71" on="0"/>
        <pt x="322" y="26" on="1"/>
        <pt x="397" y="81" on="0"/>
        <pt x="553" y="253" on="0"/>
        <pt x="641" y="372" on="1"/>
        <pt x="690" y="438" on="0"/>
        <pt x="781" y="569" on="0"/>
        <pt x="870" y="691" on="0"/>
        <pt x="961" y="796" on="0"/>
        <pt x="1009" y="837" on="1"/>
        <pt x="976" y="848" on="0"/>
        <pt x="896" y="871" on="0"/>
        <pt x="862" y="871" on="1"/>
        <pt x="833" y="871" on="0"/>
        <pt x="785" y="861" on="0"/>
        <pt x="749" y="849" on="0"/>
        <pt x="728" y="839" on="0"/>
        <pt x="727" y="839" on="1"/>
        <pt x="723" y="837" on="0"/>
        <pt x="722" y="837" on="1"/>
        <pt x="718" y="837" on="0"/>
        <pt x="713" y="843" on="0"/>
        <pt x="713" y="846" on="1"/>
        <pt x="713" y="852" on="0"/>
        <pt x="718" y="854" on="1"/>
        <pt x="718" y="854" on="0"/>
        <pt x="740" y="865" on="0"/>
        <pt x="777" y="878" on="0"/>
        <pt x="830" y="889" on="0"/>
        <pt x="862" y="889" on="1"/>
        <pt x="881" y="889" on="0"/>
        <pt x="923" y="882" on="0"/>
        <pt x="967" y="871" on="0"/>
        <pt x="1008" y="857" on="0"/>
        <pt x="1026" y="850" on="1"/>
        <pt x="1073" y="887" on="0"/>
        <pt x="1183" y="933" on="0"/>
        <pt x="1245" y="933" on="1"/>
        <pt x="1277" y="933" on="0"/>
        <pt x="1328" y="897" on="0"/>
        <pt x="1328" y="863" on="1"/>
        <pt x="1328" y="849" on="0"/>
        <pt x="1316" y="820" on="0"/>
        <pt x="1289" y="796" on="0"/>
        <pt x="1247" y="781" on="0"/>
        <pt x="1217" y="781" on="1"/>
        <pt x="1190" y="781" on="0"/>
        <pt x="1145" y="789" on="0"/>
        <pt x="1101" y="802" on="0"/>
        <pt x="1055" y="820" on="0"/>
        <pt x="1029" y="830" on="1"/>
        <pt x="980" y="791" on="0"/>
        <pt x="888" y="686" on="0"/>
        <pt x="798" y="563" on="0"/>
        <pt x="705" y="429" on="0"/>
        <pt x="655" y="361" on="1"/>
        <pt x="567" y="243" on="0"/>
        <pt x="409" y="67" on="0"/>
        <pt x="334" y="13" on="1"/>
        <pt x="355" y="-8" on="0"/>
        <pt x="396" y="-54" on="0"/>
        <pt x="446" y="-101" on="0"/>
        <pt x="507" y="-149" on="0"/>
        <pt x="549" y="-172" on="1"/>
        <pt x="599" y="-200" on="0"/>
        <pt x="689" y="-225" on="0"/>
        <pt x="727" y="-225" on="1"/>
        <pt x="749" y="-225" on="0"/>
        <pt x="794" y="-215" on="0"/>
        <pt x="830" y="-192" on="0"/>
        <pt x="853" y="-156" on="0"/>
        <pt x="853" y="-129" on="1"/>
        <pt x="853" y="-109" on="0"/>
        <pt x="838" y="-76" on="0"/>
        <pt x="819" y="-52" on="0"/>
        <pt x="804" y="-38" on="0"/>
        <pt x="804" y="-37" on="1"/>
        <pt x="804" y="-27" on="0"/>
        <pt x="813" y="-27" on="1"/>
        <pt x="815" y="-26" on="0"/>
        <pt x="819" y="-29" on="1"/>
        <pt x="823" y="-31" on="0"/>
        <pt x="835" y="-43" on="0"/>
        <pt x="845" y="-57" on="1"/>
        <pt x="871" y="-94" on="0"/>
        <pt x="871" y="-130" on="1"/>
        <pt x="871" y="-163" on="0"/>
        <pt x="842" y="-206" on="0"/>
        <pt x="798" y="-232" on="0"/>
        <pt x="748" y="-243" on="0"/>
        <pt x="727" y="-243" on="1"/>
        <pt x="686" y="-243" on="0"/>
        <pt x="591" y="-217" on="0"/>
      </contour>
      <contour>
        <pt x="30" y="39" on="1"/>
        <pt x="33" y="17" on="0"/>
        <pt x="60" y="-12" on="0"/>
        <pt x="98" y="-29" on="0"/>
        <pt x="141" y="-36" on="0"/>
        <pt x="159" y="-36" on="1"/>
        <pt x="194" y="-36" on="0"/>
        <pt x="269" y="-9" on="0"/>
        <pt x="307" y="16" on="1"/>
        <pt x="265" y="58" on="0"/>
        <pt x="173" y="111" on="0"/>
        <pt x="116" y="111" on="1"/>
        <pt x="81" y="111" on="0"/>
        <pt x="30" y="74" on="0"/>
      </contour>
      <contour>
        <pt x="1099" y="823" on="1"/>
        <pt x="1127" y="812" on="0"/>
        <pt x="1181" y="799" on="0"/>
        <pt x="1213" y="799" on="1"/>
        <pt x="1232" y="799" on="0"/>
        <pt x="1267" y="806" on="0"/>
        <pt x="1294" y="822" on="0"/>
        <pt x="1310" y="845" on="0"/>
        <pt x="1310" y="862" on="1"/>
        <pt x="1310" y="878" on="0"/>
        <pt x="1297" y="898" on="0"/>
        <pt x="1276" y="910" on="0"/>
        <pt x="1252" y="915" on="0"/>
        <pt x="1242" y="915" on="1"/>
        <pt x="1186" y="913" on="0"/>
        <pt x="1092" y="875" on="0"/>
        <pt x="1046" y="843" on="1"/>
        <pt x="1061" y="837" on="0"/>
        <pt x="1087" y="828" on="0"/>
      </contour>
    </TTGlyph>
    <TTGlyph name="M" xMin="-554" yMin="-199" xMax="1320" yMax="923">
      <contour>
        <pt x="1018" y="-150" on="1"/>
        <pt x="1000" y="-133" on="0"/>
        <pt x="978" y="-93" on="0"/>
        <pt x="967" y="-51" on="0"/>
        <pt x="964" y="-9" on="0"/>
        <pt x="964" y="11" on="1"/>
        <pt x="967" y="88" on="0"/>
        <pt x="1005" y="251" on="0"/>
        <pt x="1060" y="410" on="0"/>
        <pt x="1128" y="560" on="0"/>
        <pt x="1195" y="689" on="0"/>
        <pt x="1256" y="790" on="0"/>
        <pt x="1277" y="821" on="1"/>
        <pt x="1284" y="832" on="0"/>
        <pt x="1297" y="862" on="0"/>
        <pt x="1297" y="874" on="1"/>
        <pt x="1297" y="885" on="0"/>
        <pt x="1284" y="899" on="0"/>
        <pt x="1267" y="899" on="1"/>
        <pt x="1230" y="899" on="0"/>
        <pt x="1129" y="854" on="0"/>
        <pt x="1011" y="774" on="0"/>
        <pt x="882" y="662" on="0"/>
        <pt x="752" y="528" on="0"/>
        <pt x="625" y="377" on="0"/>
        <pt x="570" y="297" on="1"/>
        <pt x="561" y="225" on="0"/>
        <pt x="561" y="148" on="1"/>
        <pt x="561" y="134" on="0"/>
        <pt x="562" y="109" on="0"/>
        <pt x="562" y="95" on="1"/>
        <pt x="562" y="78" on="0"/>
        <pt x="557" y="27" on="0"/>
        <pt x="539" y="-20" on="0"/>
        <pt x="503" y="-53" on="0"/>
        <pt x="473" y="-53" on="1"/>
        <pt x="442" y="-53" on="0"/>
        <pt x="410" y="-5" on="0"/>
        <pt x="410" y="24" on="1"/>
        <pt x="410" y="43" on="0"/>
        <pt x="422" y="84" on="0"/>
        <pt x="440" y="123" on="0"/>
        <pt x="460" y="158" on="0"/>
        <pt x="469" y="172" on="1"/>
        <pt x="488" y="206" on="0"/>
        <pt x="530" y="271" on="0"/>
        <pt x="552" y="304" on="1"/>
        <pt x="561" y="377" on="0"/>
        <pt x="595" y="513" on="0"/>
        <pt x="637" y="641" on="0"/>
        <pt x="686" y="761" on="0"/>
        <pt x="712" y="820" on="1"/>
        <pt x="721" y="841" on="0"/>
        <pt x="728" y="870" on="0"/>
        <pt x="728" y="879" on="1"/>
        <pt x="727" y="894" on="0"/>
        <pt x="715" y="905" on="0"/>
        <pt x="702" y="905" on="1"/>
        <pt x="645" y="905" on="0"/>
        <pt x="521" y="822" on="0"/>
        <pt x="389" y="686" on="0"/>
        <pt x="253" y="513" on="0"/>
        <pt x="117" y="334" on="0"/>
        <pt x="-16" y="164" on="0"/>
        <pt x="-79" y="99" on="1"/>
        <pt x="-163" y="13" on="0"/>
        <pt x="-317" y="-71" on="0"/>
        <pt x="-400" y="-71" on="1"/>
        <pt x="-442" y="-69" on="0"/>
        <pt x="-501" y="-40" on="0"/>
        <pt x="-538" y="3" on="0"/>
        <pt x="-554" y="57" on="0"/>
        <pt x="-554" y="84" on="1"/>
        <pt x="-554" y="96" on="0"/>
        <pt x="-548" y="134" on="0"/>
        <pt x="-538" y="170" on="0"/>
        <pt x="-524" y="196" on="0"/>
        <pt x="-516" y="196" on="1"/>
        <pt x="-507" y="196" on="0"/>
        <pt x="-507" y="186" on="1"/>
        <pt x="-507" y="183" on="0"/>
        <pt x="-508" y="182" on="1"/>
        <pt x="-521" y="163" on="0"/>
        <pt x="-536" y="111" on="0"/>
        <pt x="-536" y="84" on="1"/>
        <pt x="-536" y="59" on="0"/>
        <pt x="-521" y="10" on="0"/>
        <pt x="-486" y="-29" on="0"/>
        <pt x="-430" y="-53" on="0"/>
        <pt x="-388" y="-53" on="1"/>
        <pt x="-330" y="-53" on="0"/>
        <pt x="-214" y="1" on="0"/>
        <pt x="-93" y="105" on="0"/>
        <pt x="36" y="257" on="0"/>
        <pt x="108" y="354" on="1"/>
        <pt x="157" y="420" on="0"/>
        <pt x="259" y="557" on="0"/>
        <pt x="363" y="683" on="0"/>
        <pt x="465" y="794" on="0"/>
        <pt x="565" y="876" on="0"/>
        <pt x="659" y="923" on="0"/>
        <pt x="702" y="923" on="1"/>
        <pt x="725" y="923" on="0"/>
        <pt x="746" y="898" on="0"/>
        <pt x="746" y="879" on="1"/>
        <pt x="746" y="867" on="0"/>
        <pt x="738" y="835" on="0"/>
        <pt x="728" y="812" on="1"/>
        <pt x="704" y="757" on="0"/>
        <pt x="659" y="645" on="0"/>
        <pt x="618" y="527" on="0"/>
        <pt x="585" y="403" on="0"/>
        <pt x="575" y="336" on="1"/>
        <pt x="632" y="415" on="0"/>
        <pt x="758" y="562" on="0"/>
        <pt x="887" y="691" on="0"/>
        <pt x="1014" y="798" on="0"/>
        <pt x="1129" y="875" on="0"/>
        <pt x="1230" y="917" on="0"/>
        <pt x="1267" y="917" on="1"/>
        <pt x="1289" y="915" on="0"/>
        <pt x="1316" y="897" on="0"/>
        <pt x="1316" y="876" on="1"/>
        <pt x="1316" y="856" on="0"/>
        <pt x="1279" y="788" on="0"/>
        <pt x="1221" y="690" on="0"/>
        <pt x="1148" y="560" on="0"/>
        <pt x="1112" y="479" on="1"/>
        <pt x="1088" y="424" on="0"/>
        <pt x="1043" y="306" on="0"/>
        <pt x="1007" y="186" on="0"/>
        <pt x="984" y="67" on="0"/>
        <pt x="982" y="10" on="1"/>
        <pt x="982" y="9" on="1"/>
        <pt x="982" y="-4" on="1"/>
        <pt x="982" y="-38" on="0"/>
        <pt x="1001" y="-109" on="0"/>
        <pt x="1030" y="-137" on="1"/>
        <pt x="1055" y="-160" on="0"/>
        <pt x="1118" y="-181" on="0"/>
        <pt x="1149" y="-181" on="1"/>
        <pt x="1186" y="-181" on="0"/>
        <pt x="1243" y="-154" on="0"/>
        <pt x="1281" y="-121" on="0"/>
        <pt x="1301" y="-93" on="0"/>
        <pt x="1302" y="-91" on="1"/>
        <pt x="1304" y="-86" on="0"/>
        <pt x="1309" y="-86" on="1"/>
        <pt x="1314" y="-86" on="0"/>
        <pt x="1320" y="-92" on="0"/>
        <pt x="1320" y="-95" on="1"/>
        <pt x="1320" y="-98" on="0"/>
        <pt x="1318" y="-100" on="1"/>
        <pt x="1317" y="-101" on="0"/>
        <pt x="1295" y="-132" on="0"/>
        <pt x="1253" y="-169" on="0"/>
        <pt x="1191" y="-199" on="0"/>
        <pt x="1149" y="-199" on="1"/>
        <pt x="1070" y="-199" on="0"/>
      </contour>
      <contour>
        <pt x="473" y="-35" on="1"/>
        <pt x="496" y="-35" on="0"/>
        <pt x="524" y="-8" on="0"/>
        <pt x="539" y="32" on="0"/>
        <pt x="544" y="77" on="0"/>
        <pt x="544" y="95" on="1"/>
        <pt x="544" y="109" on="0"/>
        <pt x="543" y="133" on="0"/>
        <pt x="543" y="144" on="1"/>
        <pt x="543" y="176" on="0"/>
        <pt x="546" y="231" on="0"/>
        <pt x="548" y="265" on="1"/>
        <pt x="510" y="209" on="0"/>
        <pt x="463" y="126" on="0"/>
        <pt x="437" y="67" on="0"/>
        <pt x="427" y="32" on="0"/>
        <pt x="427" y="24" on="1"/>
        <pt x="427" y="3" on="0"/>
        <pt x="449" y="-35" on="0"/>
      </contour>
    </TTGlyph>
    <TTGlyph name="N" xMin="-358" yMin="-64" xMax="1674" yMax="981">
      <contour>
        <pt x="-324" y="-16" on="1"/>
        <pt x="-343" y="7" on="0"/>
        <pt x="-358" y="61" on="0"/>
        <pt x="-358" y="89" on="1"/>
        <pt x="-358" y="101" on="0"/>
        <pt x="-353" y="139" on="0"/>
        <pt x="-343" y="176" on="0"/>
        <pt x="-329" y="203" on="0"/>
        <pt x="-321" y="203" on="1"/>
        <pt x="-312" y="203" on="0"/>
        <pt x="-312" y="193" on="1"/>
        <pt x="-312" y="190" on="0"/>
        <pt x="-313" y="189" on="1"/>
        <pt x="-327" y="169" on="0"/>
        <pt x="-340" y="117" on="0"/>
        <pt x="-340" y="89" on="1"/>
        <pt x="-340" y="53" on="0"/>
        <pt x="-317" y="2" on="0"/>
        <pt x="-279" y="-31" on="0"/>
        <pt x="-230" y="-46" on="0"/>
        <pt x="-204" y="-46" on="1"/>
        <pt x="-89" y="-46" on="0"/>
        <pt x="157" y="162" on="0"/>
        <pt x="303" y="360" on="1"/>
        <pt x="353" y="427" on="0"/>
        <pt x="456" y="563" on="0"/>
        <pt x="558" y="688" on="0"/>
        <pt x="657" y="797" on="0"/>
        <pt x="749" y="877" on="0"/>
        <pt x="833" y="923" on="0"/>
        <pt x="868" y="923" on="1"/>
        <pt x="887" y="923" on="0"/>
        <pt x="910" y="906" on="0"/>
        <pt x="910" y="889" on="1"/>
        <pt x="910" y="876" on="0"/>
        <pt x="875" y="805" on="0"/>
        <pt x="821" y="703" on="0"/>
        <pt x="755" y="576" on="0"/>
        <pt x="724" y="507" on="1"/>
        <pt x="698" y="451" on="0"/>
        <pt x="651" y="332" on="0"/>
        <pt x="615" y="215" on="0"/>
        <pt x="594" y="103" on="0"/>
        <pt x="594" y="54" on="1"/>
        <pt x="594" y="44" on="0"/>
        <pt x="596" y="22" on="0"/>
        <pt x="603" y="3" on="0"/>
        <pt x="615" y="-9" on="0"/>
        <pt x="624" y="-9" on="1"/>
        <pt x="649" y="-9" on="0"/>
        <pt x="706" y="75" on="0"/>
        <pt x="781" y="213" on="0"/>
        <pt x="881" y="393" on="0"/>
        <pt x="949" y="489" on="1"/>
        <pt x="1023" y="594" on="0"/>
        <pt x="1157" y="735" on="0"/>
        <pt x="1259" y="822" on="0"/>
        <pt x="1323" y="861" on="0"/>
        <pt x="1327" y="863" on="1"/>
        <pt x="1329" y="865" on="0"/>
        <pt x="1350" y="877" on="0"/>
        <pt x="1366" y="886" on="1"/>
        <pt x="1340" y="919" on="0"/>
        <pt x="1320" y="966" on="0"/>
        <pt x="1319" y="970" on="1"/>
        <pt x="1319" y="972" on="1"/>
        <pt x="1319" y="975" on="0"/>
        <pt x="1324" y="981" on="0"/>
        <pt x="1329" y="981" on="1"/>
        <pt x="1331" y="981" on="0"/>
        <pt x="1345" y="958" on="0"/>
        <pt x="1361" y="928" on="0"/>
        <pt x="1377" y="900" on="0"/>
        <pt x="1382" y="895" on="1"/>
        <pt x="1401" y="904" on="0"/>
        <pt x="1445" y="924" on="0"/>
        <pt x="1492" y="941" on="0"/>
        <pt x="1542" y="952" on="0"/>
        <pt x="1568" y="952" on="1"/>
        <pt x="1619" y="952" on="0"/>
        <pt x="1674" y="909" on="0"/>
        <pt x="1674" y="874" on="1"/>
        <pt x="1674" y="851" on="0"/>
        <pt x="1653" y="820" on="0"/>
        <pt x="1622" y="801" on="0"/>
        <pt x="1585" y="793" on="0"/>
        <pt x="1569" y="793" on="1"/>
        <pt x="1513" y="793" on="0"/>
        <pt x="1414" y="834" on="0"/>
        <pt x="1378" y="872" on="1"/>
        <pt x="1351" y="857" on="0"/>
        <pt x="1272" y="810" on="0"/>
        <pt x="1169" y="723" on="0"/>
        <pt x="1040" y="585" on="0"/>
        <pt x="964" y="478" on="1"/>
        <pt x="891" y="376" on="0"/>
        <pt x="789" y="192" on="0"/>
        <pt x="713" y="54" on="0"/>
        <pt x="654" y="-27" on="0"/>
        <pt x="624" y="-27" on="1"/>
        <pt x="607" y="-27" on="0"/>
        <pt x="588" y="-7" on="0"/>
        <pt x="578" y="21" on="0"/>
        <pt x="576" y="53" on="0"/>
        <pt x="576" y="65" on="1"/>
        <pt x="578" y="133" on="0"/>
        <pt x="616" y="285" on="0"/>
        <pt x="673" y="439" on="0"/>
        <pt x="742" y="589" on="0"/>
        <pt x="808" y="720" on="0"/>
        <pt x="865" y="825" on="0"/>
        <pt x="882" y="858" on="1"/>
        <pt x="892" y="875" on="0"/>
        <pt x="892" y="887" on="1"/>
        <pt x="892" y="905" on="0"/>
        <pt x="868" y="905" on="1"/>
        <pt x="821" y="905" on="0"/>
        <pt x="693" y="808" on="0"/>
        <pt x="548" y="650" on="0"/>
        <pt x="393" y="452" on="0"/>
        <pt x="318" y="350" on="1"/>
        <pt x="244" y="251" on="0"/>
        <pt x="110" y="96" on="0"/>
        <pt x="-18" y="-10" on="0"/>
        <pt x="-142" y="-64" on="0"/>
        <pt x="-204" y="-64" on="1"/>
        <pt x="-240" y="-64" on="0"/>
        <pt x="-302" y="-42" on="0"/>
      </contour>
      <contour>
        <pt x="1569" y="811" on="1"/>
        <pt x="1584" y="811" on="0"/>
        <pt x="1615" y="817" on="0"/>
        <pt x="1640" y="832" on="0"/>
        <pt x="1655" y="856" on="0"/>
        <pt x="1655" y="874" on="1"/>
        <pt x="1655" y="903" on="0"/>
        <pt x="1604" y="934" on="0"/>
        <pt x="1568" y="934" on="1"/>
        <pt x="1545" y="934" on="0"/>
        <pt x="1499" y="924" on="0"/>
        <pt x="1454" y="908" on="0"/>
        <pt x="1412" y="890" on="0"/>
        <pt x="1394" y="881" on="1"/>
        <pt x="1434" y="843" on="0"/>
        <pt x="1522" y="811" on="0"/>
      </contour>
    </TTGlyph>
    <TTGlyph name="Ntilde" xMin="-358" yMin="-64" xMax="1674" yMax="1110">
      <component glyphName="N" x="0" y="0" flags="0x1204"/>
      <component glyphName="tilde" x="1026" y="200" flags="0x1004"/>
    </TTGlyph>
    <TTGlyph name="O" xMin="10" yMin="-36" xMax="1177" yMax="916">
      <contour>
        <pt x="264" y="-35" on="1"/>
        <pt x="199" y="-31" on="0"/>
        <pt x="104" y="11" on="0"/>
        <pt x="41" y="78" on="0"/>
        <pt x="10" y="166" on="0"/>
        <pt x="10" y="218" on="1"/>
        <pt x="10" y="281" on="0"/>
        <pt x="50" y="405" on="0"/>
        <pt x="113" y="519" on="0"/>
        <pt x="193" y="620" on="0"/>
        <pt x="232" y="660" on="1"/>
        <pt x="349" y="778" on="0"/>
        <pt x="597" y="905" on="0"/>
        <pt x="711" y="906" on="1"/>
        <pt x="721" y="906" on="0"/>
        <pt x="748" y="906" on="0"/>
        <pt x="755" y="899" on="1"/>
        <pt x="796" y="916" on="0"/>
        <pt x="836" y="916" on="1"/>
        <pt x="911" y="916" on="0"/>
        <pt x="1011" y="832" on="0"/>
        <pt x="1031" y="761" on="1"/>
        <pt x="1032" y="758" on="0"/>
        <pt x="1033" y="753" on="0"/>
        <pt x="1033" y="750" on="1"/>
        <pt x="1097" y="742" on="0"/>
        <pt x="1177" y="679" on="0"/>
        <pt x="1177" y="621" on="1"/>
        <pt x="1177" y="598" on="0"/>
        <pt x="1160" y="547" on="0"/>
        <pt x="1119" y="501" on="0"/>
        <pt x="1049" y="468" on="0"/>
        <pt x="996" y="463" on="1"/>
        <pt x="967" y="399" on="0"/>
        <pt x="880" y="276" on="0"/>
        <pt x="771" y="165" on="0"/>
        <pt x="644" y="71" on="0"/>
        <pt x="505" y="3" on="0"/>
        <pt x="360" y="-36" on="0"/>
        <pt x="288" y="-36" on="1"/>
        <pt x="282" y="-36" on="0"/>
        <pt x="270" y="-36" on="0"/>
      </contour>
      <contour>
        <pt x="265" y="-17" on="1"/>
        <pt x="281" y="-17" on="1"/>
        <pt x="358" y="-17" on="0"/>
        <pt x="500" y="21" on="0"/>
        <pt x="626" y="82" on="0"/>
        <pt x="736" y="161" on="0"/>
        <pt x="781" y="203" on="1"/>
        <pt x="844" y="261" on="0"/>
        <pt x="944" y="393" on="0"/>
        <pt x="976" y="462" on="1"/>
        <pt x="928" y="462" on="0"/>
        <pt x="838" y="481" on="0"/>
        <pt x="759" y="515" on="0"/>
        <pt x="695" y="563" on="0"/>
        <pt x="674" y="593" on="1"/>
        <pt x="653" y="571" on="0"/>
        <pt x="615" y="519" on="0"/>
        <pt x="598" y="487" on="1"/>
        <pt x="596" y="482" on="0"/>
        <pt x="591" y="482" on="1"/>
        <pt x="581" y="482" on="0"/>
        <pt x="581" y="492" on="1"/>
        <pt x="581" y="495" on="0"/>
        <pt x="582" y="496" on="1"/>
        <pt x="600" y="530" on="0"/>
        <pt x="641" y="586" on="0"/>
        <pt x="663" y="609" on="1"/>
        <pt x="646" y="637" on="0"/>
        <pt x="630" y="697" on="0"/>
        <pt x="630" y="726" on="1"/>
        <pt x="632" y="782" on="0"/>
        <pt x="684" y="862" on="0"/>
        <pt x="730" y="888" on="1"/>
        <pt x="701" y="888" on="1"/>
        <pt x="642" y="888" on="0"/>
        <pt x="519" y="846" on="0"/>
        <pt x="399" y="779" on="0"/>
        <pt x="290" y="692" on="0"/>
        <pt x="245" y="647" on="1"/>
        <pt x="206" y="608" on="0"/>
        <pt x="129" y="509" on="0"/>
        <pt x="67" y="398" on="0"/>
        <pt x="29" y="278" on="0"/>
        <pt x="29" y="217" on="1"/>
        <pt x="29" y="115" on="0"/>
        <pt x="149" y="-11" on="0"/>
      </contour>
      <contour>
        <pt x="722" y="565" on="1"/>
        <pt x="741" y="547" on="0"/>
        <pt x="796" y="516" on="0"/>
        <pt x="861" y="493" on="0"/>
        <pt x="932" y="480" on="0"/>
        <pt x="967" y="480" on="1"/>
        <pt x="972" y="480" on="0"/>
        <pt x="979" y="480" on="0"/>
        <pt x="984" y="481" on="1"/>
        <pt x="1003" y="525" on="0"/>
        <pt x="1026" y="613" on="0"/>
        <pt x="1026" y="658" on="1"/>
        <pt x="1026" y="669" on="0"/>
        <pt x="1024" y="709" on="0"/>
        <pt x="1019" y="733" on="1"/>
        <pt x="1008" y="733" on="1"/>
        <pt x="922" y="733" on="0"/>
        <pt x="758" y="675" on="0"/>
        <pt x="686" y="606" on="1"/>
        <pt x="702" y="584" on="0"/>
      </contour>
      <contour>
        <pt x="1044" y="657" on="1"/>
        <pt x="1042" y="606" on="0"/>
        <pt x="1020" y="522" on="0"/>
        <pt x="1004" y="482" on="1"/>
        <pt x="1036" y="484" on="0"/>
        <pt x="1092" y="507" on="0"/>
        <pt x="1134" y="545" on="0"/>
        <pt x="1159" y="593" on="0"/>
        <pt x="1159" y="621" on="1"/>
        <pt x="1158" y="652" on="0"/>
        <pt x="1135" y="692" on="0"/>
        <pt x="1100" y="717" on="0"/>
        <pt x="1057" y="729" on="0"/>
        <pt x="1037" y="732" on="1"/>
        <pt x="1042" y="708" on="0"/>
        <pt x="1044" y="669" on="0"/>
        <pt x="1044" y="658" on="1"/>
      </contour>
      <contour>
        <pt x="648" y="726" on="1"/>
        <pt x="648" y="700" on="0"/>
        <pt x="662" y="647" on="0"/>
        <pt x="677" y="622" on="1"/>
        <pt x="717" y="660" on="0"/>
        <pt x="802" y="710" on="0"/>
        <pt x="888" y="739" on="0"/>
        <pt x="974" y="751" on="0"/>
        <pt x="1015" y="751" on="1"/>
        <pt x="995" y="823" on="0"/>
        <pt x="902" y="898" on="0"/>
        <pt x="836" y="898" on="1"/>
        <pt x="799" y="897" on="0"/>
        <pt x="731" y="871" on="0"/>
        <pt x="679" y="826" on="0"/>
        <pt x="648" y="764" on="0"/>
      </contour>
    </TTGlyph>
    <TTGlyph name="OE" xMin="10" yMin="-36" xMax="1689" yMax="965">
      <component glyphName="O" x="0" y="0" flags="0x1004"/>
      <component glyphName="E" x="856" y="0" flags="0x1004"/>
    </TTGlyph>
    <TTGlyph name="Oacute" xMin="10" yMin="-36" xMax="1210" yMax="1127">
      <component glyphName="O" x="0" y="0" flags="0x1204"/>
      <component glyphName="acute" x="717" y="180" flags="0x1004"/>
    </TTGlyph>
    <TTGlyph name="Ocircumflex" xMin="10" yMin="-36" xMax="1195" yMax="1066">
      <component glyphName="O" x="0" y="0" flags="0x1204"/>
      <component glyphName="circumflex" x="556" y="151" flags="0x1004"/>
    </TTGlyph>
    <TTGlyph name="Odieresis" xMin="10" yMin="-36" xMax="1177" yMax="1047">
      <component glyphName="O" x="0" y="0" flags="0x1204"/>
      <component glyphName="dieresis" x="742" y="151" flags="0x1004"/>
    </TTGlyph>
    <TTGlyph name="Ograve" xMin="10" yMin="-36" xMax="1177" yMax="1198">
      <component glyphName="O" x="0" y="0" flags="0x1204"/>
      <component glyphName="grave" x="610" y="132" flags="0x1004"/>
    </TTGlyph>
    <TTGlyph name="Oslash" xMin="10" yMin="-225" xMax="1177" yMax="1063">
      <component glyphName="O" x="0" y="0" flags="0x1204"/>
      <component glyphName="slash" x="-107" y="0" flags="0x1004"/>
    </TTGlyph>
    <TTGlyph name="Otilde" xMin="10" yMin="-36" xMax="1177" yMax="1066">
      <component glyphName="O" x="0" y="0" flags="0x1204"/>
      <component glyphName="tilde" x="704" y="156" flags="0x1004"/>
    </TTGlyph>
    <TTGlyph name="P" xMin="-26" yMin="-118" xMax="1291" yMax="934">
      <contour>
        <pt x="1290" y="818" on="1"/>
        <pt x="1291" y="817" on="0"/>
        <pt x="1291" y="814" on="1"/>
        <pt x="1291" y="805" on="0"/>
        <pt x="1282" y="805" on="1"/>
        <pt x="1275" y="805" on="0"/>
        <pt x="1274" y="811" on="1"/>
        <pt x="1263" y="834" on="0"/>
        <pt x="1228" y="866" on="0"/>
        <pt x="1184" y="886" on="0"/>
        <pt x="1134" y="895" on="0"/>
        <pt x="1110" y="895" on="1"/>
        <pt x="1061" y="895" on="0"/>
        <pt x="1018" y="886" on="1"/>
        <pt x="1023" y="884" on="0"/>
        <pt x="1031" y="881" on="0"/>
        <pt x="1036" y="879" on="1"/>
        <pt x="1086" y="856" on="0"/>
        <pt x="1157" y="800" on="0"/>
        <pt x="1205" y="739" on="0"/>
        <pt x="1232" y="680" on="0"/>
        <pt x="1246" y="629" on="0"/>
        <pt x="1250" y="590" on="0"/>
        <pt x="1250" y="581" on="1"/>
        <pt x="1250" y="514" on="0"/>
        <pt x="1191" y="390" on="0"/>
        <pt x="1092" y="295" on="0"/>
        <pt x="965" y="238" on="0"/>
        <pt x="897" y="238" on="1"/>
        <pt x="846" y="238" on="0"/>
        <pt x="746" y="273" on="0"/>
        <pt x="698" y="308" on="1"/>
        <pt x="680" y="321" on="0"/>
        <pt x="653" y="347" on="0"/>
        <pt x="644" y="357" on="1"/>
        <pt x="633" y="368" on="0"/>
        <pt x="625" y="379" on="1"/>
        <pt x="623" y="381" on="0"/>
        <pt x="623" y="384" on="1"/>
        <pt x="623" y="394" on="0"/>
        <pt x="631" y="394" on="1"/>
        <pt x="635" y="394" on="0"/>
        <pt x="639" y="390" on="1"/>
        <pt x="660" y="361" on="0"/>
        <pt x="719" y="312" on="0"/>
        <pt x="787" y="277" on="0"/>
        <pt x="862" y="257" on="0"/>
        <pt x="899" y="257" on="1"/>
        <pt x="957" y="257" on="0"/>
        <pt x="1075" y="307" on="0"/>
        <pt x="1171" y="395" on="0"/>
        <pt x="1232" y="513" on="0"/>
        <pt x="1232" y="581" on="1"/>
        <pt x="1232" y="590" on="0"/>
        <pt x="1228" y="631" on="0"/>
        <pt x="1213" y="684" on="0"/>
        <pt x="1182" y="745" on="0"/>
        <pt x="1127" y="804" on="0"/>
        <pt x="1045" y="858" on="0"/>
        <pt x="987" y="878" on="1"/>
        <pt x="915" y="857" on="0"/>
        <pt x="791" y="764" on="0"/>
        <pt x="679" y="637" on="0"/>
        <pt x="576" y="484" on="0"/>
        <pt x="526" y="404" on="1"/>
        <pt x="486" y="340" on="0"/>
        <pt x="416" y="212" on="0"/>
        <pt x="351" y="96" on="0"/>
        <pt x="287" y="-3" on="0"/>
        <pt x="219" y="-76" on="0"/>
        <pt x="142" y="-118" on="0"/>
        <pt x="96" y="-118" on="1"/>
        <pt x="54" y="-118" on="0"/>
        <pt x="-14" y="-72" on="0"/>
        <pt x="-26" y="-29" on="1"/>
        <pt x="-26" y="-28" on="1"/>
        <pt x="-26" y="-18" on="0"/>
        <pt x="-16" y="-18" on="1"/>
        <pt x="-10" y="-18" on="0"/>
        <pt x="-8" y="-25" on="1"/>
        <pt x="0" y="-62" on="0"/>
        <pt x="59" y="-100" on="0"/>
        <pt x="95" y="-100" on="1"/>
        <pt x="128" y="-100" on="0"/>
        <pt x="186" y="-75" on="0"/>
        <pt x="239" y="-31" on="0"/>
        <pt x="287" y="30" on="0"/>
        <pt x="311" y="67" on="1"/>
        <pt x="349" y="126" on="0"/>
        <pt x="433" y="279" on="0"/>
        <pt x="528" y="444" on="0"/>
        <pt x="634" y="609" on="0"/>
        <pt x="753" y="752" on="0"/>
        <pt x="885" y="861" on="0"/>
        <pt x="958" y="887" on="1"/>
        <pt x="940" y="894" on="0"/>
        <pt x="891" y="904" on="0"/>
        <pt x="841" y="911" on="0"/>
        <pt x="794" y="914" on="0"/>
        <pt x="777" y="914" on="1"/>
        <pt x="712" y="914" on="0"/>
        <pt x="586" y="883" on="0"/>
        <pt x="529" y="847" on="1"/>
        <pt x="538" y="834" on="0"/>
        <pt x="551" y="800" on="0"/>
        <pt x="558" y="765" on="0"/>
        <pt x="561" y="731" on="0"/>
        <pt x="561" y="718" on="1"/>
        <pt x="561" y="658" on="0"/>
        <pt x="518" y="599" on="0"/>
        <pt x="480" y="599" on="1"/>
        <pt x="443" y="599" on="0"/>
        <pt x="407" y="645" on="0"/>
        <pt x="407" y="680" on="1"/>
        <pt x="407" y="695" on="0"/>
        <pt x="420" y="738" on="0"/>
        <pt x="444" y="785" on="0"/>
        <pt x="480" y="832" on="0"/>
        <pt x="504" y="850" on="1"/>
        <pt x="486" y="871" on="0"/>
        <pt x="464" y="885" on="1"/>
        <pt x="457" y="889" on="0"/>
        <pt x="432" y="900" on="0"/>
        <pt x="407" y="912" on="0"/>
        <pt x="389" y="921" on="0"/>
        <pt x="389" y="924" on="1"/>
        <pt x="389" y="934" on="0"/>
        <pt x="399" y="934" on="1"/>
        <pt x="401" y="934" on="1"/>
        <pt x="401" y="934" on="0"/>
        <pt x="425" y="926" on="0"/>
        <pt x="461" y="909" on="0"/>
        <pt x="501" y="881" on="0"/>
        <pt x="518" y="861" on="1"/>
        <pt x="571" y="895" on="0"/>
        <pt x="698" y="932" on="0"/>
        <pt x="763" y="932" on="1"/>
        <pt x="874" y="932" on="0"/>
        <pt x="988" y="897" on="1"/>
        <pt x="1014" y="905" on="0"/>
        <pt x="1071" y="913" on="0"/>
        <pt x="1101" y="913" on="1"/>
        <pt x="1130" y="913" on="0"/>
        <pt x="1187" y="904" on="0"/>
        <pt x="1237" y="883" on="0"/>
        <pt x="1277" y="846" on="0"/>
      </contour>
      <contour>
        <pt x="537" y="779" on="1"/>
        <pt x="533" y="810" on="0"/>
        <pt x="515" y="836" on="1"/>
        <pt x="492" y="818" on="0"/>
        <pt x="459" y="774" on="0"/>
        <pt x="436" y="731" on="0"/>
        <pt x="425" y="692" on="0"/>
        <pt x="425" y="680" on="1"/>
        <pt x="425" y="655" on="0"/>
        <pt x="448" y="617" on="0"/>
        <pt x="479" y="617" on="1"/>
        <pt x="507" y="617" on="0"/>
        <pt x="543" y="666" on="0"/>
        <pt x="543" y="718" on="1"/>
        <pt x="543" y="744" on="0"/>
      </contour>
    </TTGlyph>
    <TTGlyph name="Q" xMin="27" yMin="-324" xMax="1032" yMax="881">
      <contour>
        <pt x="752" y="-298" on="1"/>
        <pt x="715" y="-281" on="0"/>
        <pt x="635" y="-223" on="0"/>
        <pt x="597" y="-174" on="1"/>
        <pt x="565" y="-132" on="0"/>
        <pt x="500" y="-67" on="0"/>
        <pt x="471" y="-42" on="1"/>
        <pt x="435" y="-57" on="0"/>
        <pt x="373" y="-77" on="0"/>
        <pt x="314" y="-90" on="0"/>
        <pt x="257" y="-96" on="0"/>
        <pt x="227" y="-96" on="1"/>
        <pt x="206" y="-96" on="0"/>
        <pt x="138" y="-90" on="0"/>
        <pt x="73" y="-69" on="0"/>
        <pt x="27" y="-27" on="0"/>
        <pt x="27" y="8" on="1"/>
        <pt x="27" y="37" on="0"/>
        <pt x="53" y="74" on="0"/>
        <pt x="92" y="96" on="0"/>
        <pt x="137" y="104" on="0"/>
        <pt x="156" y="104" on="1"/>
        <pt x="203" y="104" on="0"/>
        <pt x="293" y="82" on="0"/>
        <pt x="332" y="66" on="1"/>
        <pt x="333" y="65" on="0"/>
        <pt x="356" y="56" on="0"/>
        <pt x="394" y="35" on="0"/>
        <pt x="444" y="3" on="0"/>
        <pt x="473" y="-21" on="1"/>
        <pt x="570" y="21" on="0"/>
        <pt x="745" y="159" on="0"/>
        <pt x="878" y="324" on="0"/>
        <pt x="960" y="504" on="0"/>
        <pt x="964" y="589" on="1"/>
        <pt x="964" y="656" on="0"/>
        <pt x="930" y="767" on="0"/>
        <pt x="880" y="806" on="1"/>
        <pt x="842" y="835" on="0"/>
        <pt x="749" y="864" on="0"/>
        <pt x="702" y="863" on="1"/>
        <pt x="643" y="862" on="0"/>
        <pt x="525" y="828" on="0"/>
        <pt x="417" y="770" on="0"/>
        <pt x="322" y="693" on="0"/>
        <pt x="286" y="649" on="1"/>
        <pt x="244" y="597" on="0"/>
        <pt x="192" y="471" on="0"/>
        <pt x="192" y="410" on="1"/>
        <pt x="192" y="365" on="0"/>
        <pt x="228" y="274" on="0"/>
        <pt x="297" y="202" on="0"/>
        <pt x="398" y="157" on="0"/>
        <pt x="463" y="157" on="1"/>
        <pt x="542" y="157" on="0"/>
        <pt x="660" y="206" on="0"/>
        <pt x="738" y="282" on="0"/>
        <pt x="776" y="373" on="0"/>
        <pt x="776" y="415" on="1"/>
        <pt x="776" y="462" on="0"/>
        <pt x="747" y="530" on="0"/>
        <pt x="700" y="573" on="0"/>
        <pt x="641" y="594" on="0"/>
        <pt x="612" y="594" on="1"/>
        <pt x="583" y="594" on="0"/>
        <pt x="526" y="575" on="0"/>
        <pt x="502" y="559" on="1"/>
        <pt x="498" y="557" on="0"/>
        <pt x="497" y="557" on="1"/>
        <pt x="488" y="557" on="0"/>
        <pt x="488" y="566" on="1"/>
        <pt x="488" y="571" on="0"/>
        <pt x="492" y="574" on="1"/>
        <pt x="519" y="592" on="0"/>
        <pt x="583" y="612" on="0"/>
        <pt x="616" y="612" on="1"/>
        <pt x="646" y="612" on="0"/>
        <pt x="710" y="590" on="0"/>
        <pt x="761" y="542" on="0"/>
        <pt x="794" y="467" on="0"/>
        <pt x="794" y="415" on="1"/>
        <pt x="794" y="369" on="0"/>
        <pt x="752" y="272" on="0"/>
        <pt x="670" y="191" on="0"/>
        <pt x="545" y="139" on="0"/>
        <pt x="463" y="139" on="1"/>
        <pt x="398" y="139" on="0"/>
        <pt x="292" y="183" on="0"/>
        <pt x="216" y="258" on="0"/>
        <pt x="174" y="355" on="0"/>
        <pt x="174" y="408" on="1"/>
        <pt x="174" y="466" on="0"/>
        <pt x="217" y="582" on="0"/>
        <pt x="292" y="687" on="0"/>
        <pt x="394" y="777" on="0"/>
        <pt x="511" y="843" on="0"/>
        <pt x="639" y="881" on="0"/>
        <pt x="702" y="881" on="1"/>
        <pt x="786" y="881" on="0"/>
        <pt x="894" y="825" on="0"/>
        <pt x="957" y="739" on="0"/>
        <pt x="982" y="636" on="0"/>
        <pt x="982" y="588" on="1"/>
        <pt x="977" y="500" on="0"/>
        <pt x="895" y="317" on="0"/>
        <pt x="761" y="150" on="0"/>
        <pt x="586" y="10" on="0"/>
        <pt x="489" y="-34" on="1"/>
        <pt x="518" y="-58" on="0"/>
        <pt x="580" y="-122" on="0"/>
        <pt x="612" y="-163" on="1"/>
        <pt x="648" y="-210" on="0"/>
        <pt x="723" y="-266" on="0"/>
        <pt x="793" y="-296" on="0"/>
        <pt x="853" y="-306" on="0"/>
        <pt x="874" y="-306" on="1"/>
        <pt x="898" y="-306" on="0"/>
        <pt x="948" y="-295" on="0"/>
        <pt x="988" y="-270" on="0"/>
        <pt x="1014" y="-231" on="0"/>
        <pt x="1014" y="-203" on="1"/>
        <pt x="1014" y="-179" on="0"/>
        <pt x="997" y="-147" on="0"/>
        <pt x="971" y="-129" on="0"/>
        <pt x="939" y="-122" on="0"/>
        <pt x="923" y="-122" on="1"/>
        <pt x="906" y="-122" on="0"/>
        <pt x="877" y="-131" on="0"/>
        <pt x="864" y="-130" on="1"/>
        <pt x="856" y="-130" on="0"/>
        <pt x="856" y="-121" on="1"/>
        <pt x="856" y="-120" on="0"/>
        <pt x="856" y="-114" on="0"/>
        <pt x="867" y="-108" on="0"/>
        <pt x="895" y="-104" on="0"/>
        <pt x="923" y="-104" on="1"/>
        <pt x="944" y="-104" on="0"/>
        <pt x="983" y="-114" on="0"/>
        <pt x="1014" y="-138" on="0"/>
        <pt x="1032" y="-176" on="0"/>
        <pt x="1032" y="-204" on="1"/>
        <pt x="1032" y="-237" on="0"/>
        <pt x="1001" y="-283" on="0"/>
        <pt x="955" y="-311" on="0"/>
        <pt x="899" y="-324" on="0"/>
        <pt x="874" y="-324" on="1"/>
        <pt x="851" y="-324" on="0"/>
        <pt x="788" y="-314" on="0"/>
        <pt x="751" y="-298" on="1"/>
      </contour>
      <contour>
        <pt x="51" y="32" on="1"/>
        <pt x="46" y="19" on="0"/>
        <pt x="46" y="6" on="1"/>
        <pt x="46" y="-16" on="0"/>
        <pt x="72" y="-46" on="0"/>
        <pt x="112" y="-65" on="0"/>
        <pt x="159" y="-74" on="0"/>
        <pt x="200" y="-78" on="0"/>
        <pt x="229" y="-78" on="0"/>
        <pt x="231" y="-78" on="1"/>
        <pt x="290" y="-78" on="0"/>
        <pt x="401" y="-51" on="0"/>
        <pt x="455" y="-29" on="1"/>
        <pt x="401" y="13" on="0"/>
        <pt x="330" y="47" on="0"/>
        <pt x="326" y="49" on="1"/>
        <pt x="291" y="65" on="0"/>
        <pt x="200" y="86" on="0"/>
        <pt x="156" y="86" on="1"/>
        <pt x="121" y="86" on="0"/>
        <pt x="65" y="61" on="0"/>
      </contour>
    </TTGlyph>
    <TTGlyph name="R" xMin="-96" yMin="-154" xMax="1221" yMax="898">
      <contour>
        <pt x="1220" y="783" on="1"/>
        <pt x="1220" y="782" on="0"/>
        <pt x="1221" y="780" on="0"/>
        <pt x="1221" y="779" on="1"/>
        <pt x="1221" y="770" on="0"/>
        <pt x="1212" y="770" on="1"/>
        <pt x="1206" y="770" on="0"/>
        <pt x="1204" y="775" on="1"/>
        <pt x="1193" y="801" on="0"/>
        <pt x="1156" y="834" on="0"/>
        <pt x="1110" y="852" on="0"/>
        <pt x="1058" y="859" on="0"/>
        <pt x="1031" y="859" on="1"/>
        <pt x="1009" y="859" on="0"/>
        <pt x="969" y="855" on="0"/>
        <pt x="949" y="851" on="1"/>
        <pt x="950" y="851" on="0"/>
        <pt x="951" y="850" on="0"/>
        <pt x="952" y="850" on="1"/>
        <pt x="1023" y="822" on="0"/>
        <pt x="1107" y="742" on="0"/>
        <pt x="1151" y="659" on="0"/>
        <pt x="1164" y="588" on="0"/>
        <pt x="1164" y="569" on="1"/>
        <pt x="1164" y="546" on="0"/>
        <pt x="1155" y="478" on="0"/>
        <pt x="1118" y="401" on="0"/>
        <pt x="1043" y="321" on="0"/>
        <pt x="977" y="286" on="1"/>
        <pt x="926" y="259" on="0"/>
        <pt x="822" y="237" on="0"/>
        <pt x="772" y="237" on="1"/>
        <pt x="761" y="237" on="0"/>
        <pt x="740" y="238" on="0"/>
        <pt x="729" y="239" on="1"/>
        <pt x="736" y="205" on="0"/>
        <pt x="736" y="166" on="1"/>
        <pt x="736" y="142" on="0"/>
        <pt x="729" y="95" on="0"/>
        <pt x="721" y="49" on="0"/>
        <pt x="714" y="1" on="0"/>
        <pt x="714" y="-24" on="1"/>
        <pt x="714" y="-41" on="0"/>
        <pt x="723" y="-75" on="0"/>
        <pt x="742" y="-102" on="0"/>
        <pt x="772" y="-118" on="0"/>
        <pt x="792" y="-118" on="1"/>
        <pt x="825" y="-118" on="0"/>
        <pt x="886" y="-82" on="0"/>
        <pt x="911" y="-59" on="1"/>
        <pt x="913" y="-57" on="0"/>
        <pt x="916" y="-57" on="1"/>
        <pt x="926" y="-57" on="0"/>
        <pt x="926" y="-67" on="1"/>
        <pt x="926" y="-70" on="0"/>
        <pt x="923" y="-73" on="1"/>
        <pt x="899" y="-97" on="0"/>
        <pt x="829" y="-136" on="0"/>
        <pt x="792" y="-136" on="1"/>
        <pt x="751" y="-136" on="0"/>
        <pt x="696" y="-76" on="0"/>
        <pt x="696" y="-25" on="1"/>
        <pt x="696" y="20" on="0"/>
        <pt x="717" y="117" on="0"/>
        <pt x="717" y="165" on="1"/>
        <pt x="717" y="184" on="0"/>
        <pt x="714" y="221" on="0"/>
        <pt x="710" y="241" on="1"/>
        <pt x="655" y="247" on="0"/>
        <pt x="570" y="270" on="0"/>
        <pt x="505" y="297" on="0"/>
        <pt x="456" y="326" on="0"/>
        <pt x="437" y="338" on="1"/>
        <pt x="403" y="282" on="0"/>
        <pt x="342" y="165" on="0"/>
        <pt x="281" y="55" on="0"/>
        <pt x="218" y="-41" on="0"/>
        <pt x="148" y="-113" on="0"/>
        <pt x="69" y="-154" on="0"/>
        <pt x="22" y="-154" on="1"/>
        <pt x="-18" y="-154" on="0"/>
        <pt x="-86" y="-108" on="0"/>
        <pt x="-96" y="-65" on="1"/>
        <pt x="-96" y="-63" on="1"/>
        <pt x="-96" y="-54" on="0"/>
        <pt x="-87" y="-54" on="1"/>
        <pt x="-80" y="-54" on="0"/>
        <pt x="-78" y="-61" on="1"/>
        <pt x="-70" y="-96" on="0"/>
        <pt x="-15" y="-136" on="0"/>
        <pt x="22" y="-136" on="1"/>
        <pt x="84" y="-136" on="0"/>
        <pt x="181" y="-57" on="0"/>
        <pt x="270" y="76" on="0"/>
        <pt x="364" y="252" on="0"/>
        <pt x="423" y="349" on="1"/>
        <pt x="407" y="361" on="0"/>
        <pt x="385" y="398" on="0"/>
        <pt x="385" y="421" on="1"/>
        <pt x="385" y="459" on="0"/>
        <pt x="433" y="490" on="0"/>
        <pt x="464" y="490" on="1"/>
        <pt x="486" y="490" on="0"/>
        <pt x="509" y="484" on="1"/>
        <pt x="548" y="544" on="0"/>
        <pt x="633" y="659" on="0"/>
        <pt x="726" y="756" on="0"/>
        <pt x="829" y="831" on="0"/>
        <pt x="888" y="852" on="1"/>
        <pt x="792" y="878" on="0"/>
        <pt x="693" y="878" on="1"/>
        <pt x="685" y="878" on="0"/>
        <pt x="636" y="875" on="0"/>
        <pt x="569" y="862" on="0"/>
        <pt x="493" y="835" on="0"/>
        <pt x="459" y="811" on="1"/>
        <pt x="477" y="783" on="0"/>
        <pt x="491" y="718" on="0"/>
        <pt x="491" y="682" on="1"/>
        <pt x="491" y="664" on="0"/>
        <pt x="483" y="622" on="0"/>
        <pt x="463" y="586" on="0"/>
        <pt x="432" y="563" on="0"/>
        <pt x="408" y="563" on="1"/>
        <pt x="376" y="563" on="0"/>
        <pt x="336" y="608" on="0"/>
        <pt x="336" y="643" on="1"/>
        <pt x="336" y="658" on="0"/>
        <pt x="349" y="702" on="0"/>
        <pt x="374" y="750" on="0"/>
        <pt x="410" y="797" on="0"/>
        <pt x="433" y="815" on="1"/>
        <pt x="424" y="826" on="0"/>
        <pt x="404" y="842" on="0"/>
        <pt x="393" y="849" on="1"/>
        <pt x="387" y="853" on="0"/>
        <pt x="362" y="865" on="0"/>
        <pt x="337" y="877" on="0"/>
        <pt x="319" y="887" on="0"/>
        <pt x="319" y="890" on="1"/>
        <pt x="319" y="898" on="0"/>
        <pt x="328" y="898" on="1"/>
        <pt x="330" y="898" on="1"/>
        <pt x="330" y="898" on="0"/>
        <pt x="354" y="891" on="0"/>
        <pt x="389" y="874" on="0"/>
        <pt x="430" y="846" on="0"/>
        <pt x="448" y="825" on="1"/>
        <pt x="448" y="826" on="1"/>
        <pt x="486" y="851" on="0"/>
        <pt x="565" y="879" on="0"/>
        <pt x="633" y="893" on="0"/>
        <pt x="684" y="896" on="0"/>
        <pt x="693" y="896" on="1"/>
        <pt x="747" y="896" on="0"/>
        <pt x="857" y="880" on="0"/>
        <pt x="919" y="862" on="1"/>
        <pt x="943" y="869" on="0"/>
        <pt x="994" y="877" on="0"/>
        <pt x="1022" y="877" on="1"/>
        <pt x="1051" y="877" on="0"/>
        <pt x="1110" y="870" on="0"/>
        <pt x="1163" y="850" on="0"/>
        <pt x="1206" y="813" on="0"/>
      </contour>
      <contour>
        <pt x="473" y="682" on="1"/>
        <pt x="473" y="711" on="0"/>
        <pt x="462" y="772" on="0"/>
        <pt x="444" y="800" on="1"/>
        <pt x="423" y="784" on="0"/>
        <pt x="390" y="740" on="0"/>
        <pt x="366" y="696" on="0"/>
        <pt x="354" y="657" on="0"/>
        <pt x="354" y="645" on="1"/>
        <pt x="354" y="616" on="0"/>
        <pt x="383" y="581" on="0"/>
        <pt x="408" y="581" on="1"/>
        <pt x="426" y="581" on="0"/>
        <pt x="450" y="599" on="0"/>
        <pt x="465" y="628" on="0"/>
        <pt x="472" y="664" on="0"/>
      </contour>
      <contour>
        <pt x="402" y="422" on="1"/>
        <pt x="402" y="405" on="0"/>
        <pt x="418" y="375" on="0"/>
        <pt x="432" y="364" on="1"/>
        <pt x="456" y="406" on="0"/>
        <pt x="499" y="468" on="1"/>
        <pt x="481" y="473" on="0"/>
        <pt x="463" y="473" on="1"/>
        <pt x="440" y="473" on="0"/>
        <pt x="402" y="451" on="0"/>
      </contour>
      <contour>
        <pt x="447" y="353" on="1"/>
        <pt x="504" y="316" on="0"/>
        <pt x="628" y="269" on="0"/>
        <pt x="704" y="259" on="1"/>
        <pt x="693" y="290" on="0"/>
        <pt x="661" y="342" on="0"/>
        <pt x="643" y="363" on="1"/>
        <pt x="620" y="390" on="0"/>
        <pt x="584" y="424" on="0"/>
        <pt x="554" y="446" on="0"/>
        <pt x="528" y="457" on="0"/>
        <pt x="516" y="462" on="1"/>
        <pt x="499" y="435" on="0"/>
        <pt x="465" y="382" on="0"/>
      </contour>
      <contour>
        <pt x="945" y="833" on="1"/>
        <pt x="938" y="836" on="0"/>
        <pt x="925" y="841" on="0"/>
        <pt x="918" y="843" on="1"/>
        <pt x="858" y="826" on="0"/>
        <pt x="751" y="755" on="0"/>
        <pt x="654" y="657" on="0"/>
        <pt x="567" y="540" on="0"/>
        <pt x="526" y="478" on="1"/>
        <pt x="549" y="468" on="0"/>
        <pt x="573" y="452" on="1"/>
        <pt x="585" y="444" on="0"/>
        <pt x="627" y="409" on="0"/>
        <pt x="672" y="359" on="0"/>
        <pt x="713" y="294" on="0"/>
        <pt x="724" y="257" on="1"/>
        <pt x="736" y="256" on="0"/>
        <pt x="760" y="255" on="0"/>
        <pt x="772" y="255" on="1"/>
        <pt x="820" y="255" on="0"/>
        <pt x="919" y="276" on="0"/>
        <pt x="968" y="302" on="1"/>
        <pt x="1023" y="332" on="0"/>
        <pt x="1093" y="396" on="0"/>
        <pt x="1132" y="463" on="0"/>
        <pt x="1146" y="530" on="0"/>
        <pt x="1146" y="562" on="1"/>
        <pt x="1146" y="597" on="0"/>
        <pt x="1129" y="672" on="0"/>
        <pt x="1084" y="744" on="0"/>
        <pt x="1006" y="808" on="0"/>
      </contour>
    </TTGlyph>
    <TTGlyph name="S" xMin="-229" yMin="-93" xMax="1045" yMax="1030">
      <contour>
        <pt x="-17" y="-6" on="1"/>
        <pt x="-46" y="-23" on="0"/>
        <pt x="-121" y="-40" on="0"/>
        <pt x="-155" y="-40" on="1"/>
        <pt x="-162" y="-40" on="0"/>
        <pt x="-187" y="-39" on="0"/>
        <pt x="-211" y="-36" on="0"/>
        <pt x="-229" y="-30" on="0"/>
        <pt x="-229" y="-24" on="1"/>
        <pt x="-229" y="-21" on="0"/>
        <pt x="-224" y="-15" on="0"/>
        <pt x="-220" y="-15" on="1"/>
        <pt x="-203" y="-15" on="0"/>
        <pt x="-170" y="-22" on="0"/>
        <pt x="-155" y="-22" on="1"/>
        <pt x="-119" y="-22" on="0"/>
        <pt x="-57" y="-6" on="0"/>
        <pt x="-31" y="7" on="1"/>
        <pt x="-67" y="45" on="0"/>
        <pt x="-101" y="134" on="0"/>
        <pt x="-101" y="180" on="1"/>
        <pt x="-101" y="217" on="0"/>
        <pt x="-80" y="293" on="0"/>
        <pt x="-40" y="356" on="0"/>
        <pt x="19" y="396" on="0"/>
        <pt x="57" y="396" on="1"/>
        <pt x="111" y="393" on="0"/>
        <pt x="167" y="326" on="0"/>
        <pt x="167" y="277" on="1"/>
        <pt x="165" y="196" on="0"/>
        <pt x="81" y="53" on="0"/>
        <pt x="-1" y="4" on="1"/>
        <pt x="47" y="-32" on="0"/>
        <pt x="158" y="-75" on="0"/>
        <pt x="226" y="-75" on="1"/>
        <pt x="271" y="-75" on="0"/>
        <pt x="350" y="-61" on="0"/>
        <pt x="416" y="-39" on="0"/>
        <pt x="470" y="-10" on="0"/>
        <pt x="489" y="4" on="1"/>
        <pt x="543" y="44" on="0"/>
        <pt x="611" y="140" on="0"/>
        <pt x="649" y="245" on="0"/>
        <pt x="664" y="360" on="0"/>
        <pt x="670" y="479" on="0"/>
        <pt x="673" y="601" on="0"/>
        <pt x="680" y="661" on="1"/>
        <pt x="635" y="661" on="0"/>
        <pt x="556" y="684" on="0"/>
        <pt x="524" y="708" on="1"/>
        <pt x="520" y="711" on="0"/>
        <pt x="520" y="716" on="1"/>
        <pt x="520" y="720" on="0"/>
        <pt x="526" y="724" on="0"/>
        <pt x="529" y="724" on="1"/>
        <pt x="533" y="724" on="0"/>
        <pt x="535" y="722" on="1"/>
        <pt x="564" y="700" on="0"/>
        <pt x="639" y="679" on="0"/>
        <pt x="682" y="679" on="1"/>
        <pt x="688" y="731" on="0"/>
        <pt x="722" y="853" on="0"/>
        <pt x="783" y="959" on="0"/>
        <pt x="874" y="1030" on="0"/>
        <pt x="937" y="1030" on="1"/>
        <pt x="984" y="1028" on="0"/>
        <pt x="1045" y="977" on="0"/>
        <pt x="1045" y="924" on="1"/>
        <pt x="1045" y="886" on="0"/>
        <pt x="1010" y="816" on="0"/>
        <pt x="956" y="757" on="0"/>
        <pt x="892" y="712" on="0"/>
        <pt x="863" y="699" on="1"/>
        <pt x="825" y="682" on="0"/>
        <pt x="740" y="663" on="0"/>
        <pt x="698" y="661" on="1"/>
        <pt x="691" y="601" on="0"/>
        <pt x="688" y="479" on="0"/>
        <pt x="683" y="358" on="0"/>
        <pt x="667" y="240" on="0"/>
        <pt x="627" y="131" on="0"/>
        <pt x="557" y="31" on="0"/>
        <pt x="500" y="-12" on="1"/>
        <pt x="459" y="-42" on="0"/>
        <pt x="319" y="-93" on="0"/>
        <pt x="226" y="-93" on="1"/>
        <pt x="162" y="-93" on="0"/>
        <pt x="44" y="-54" on="0"/>
        <pt x="-2" y="-19" on="1"/>
      </contour>
      <contour>
        <pt x="-52" y="305" on="1"/>
        <pt x="-82" y="243" on="0"/>
        <pt x="-82" y="179" on="1"/>
        <pt x="-82" y="134" on="0"/>
        <pt x="-50" y="51" on="0"/>
        <pt x="-15" y="16" on="1"/>
        <pt x="21" y="38" on="0"/>
        <pt x="80" y="96" on="0"/>
        <pt x="124" y="163" on="0"/>
        <pt x="148" y="239" on="0"/>
        <pt x="148" y="278" on="1"/>
        <pt x="148" y="320" on="0"/>
        <pt x="99" y="378" on="0"/>
        <pt x="57" y="378" on="1"/>
        <pt x="17" y="374" on="0"/>
        <pt x="-35" y="335" on="0"/>
      </contour>
      <contour>
        <pt x="738" y="836" on="1"/>
        <pt x="723" y="798" on="0"/>
        <pt x="705" y="720" on="0"/>
        <pt x="700" y="679" on="1"/>
        <pt x="752" y="681" on="0"/>
        <pt x="867" y="718" on="0"/>
        <pt x="963" y="783" on="0"/>
        <pt x="1025" y="872" on="0"/>
        <pt x="1025" y="926" on="1"/>
        <pt x="1025" y="950" on="0"/>
        <pt x="1009" y="983" on="0"/>
        <pt x="984" y="1003" on="0"/>
        <pt x="952" y="1012" on="0"/>
        <pt x="937" y="1012" on="1"/>
        <pt x="898" y="1010" on="0"/>
        <pt x="836" y="979" on="0"/>
        <pt x="787" y="929" on="0"/>
        <pt x="751" y="868" on="0"/>
      </contour>
    </TTGlyph>
    <TTGlyph name="Scaron" xMin="-229" yMin="-93" xMax="1099" yMax="1190">
      <component glyphName="S" x="0" y="0" flags="0x1204"/>
      <component glyphName="caron" x="787" y="291" flags="0x1004"/>
    </TTGlyph>
    <TTGlyph name="T" xMin="-104" yMin="-99" xMax="1296" yMax="889">
      <contour>
        <pt x="-77" y="-62" on="1"/>
        <pt x="-104" y="-32" on="0"/>
        <pt x="-104" y="15" on="1"/>
        <pt x="-104" y="20" on="0"/>
        <pt x="-103" y="37" on="0"/>
        <pt x="-100" y="53" on="0"/>
        <pt x="-95" y="65" on="0"/>
        <pt x="-90" y="65" on="1"/>
        <pt x="-81" y="65" on="0"/>
        <pt x="-81" y="56" on="1"/>
        <pt x="-81" y="45" on="0"/>
        <pt x="-86" y="24" on="0"/>
        <pt x="-86" y="15" on="1"/>
        <pt x="-86" y="-14" on="0"/>
        <pt x="-65" y="-51" on="0"/>
        <pt x="-33" y="-72" on="0"/>
        <pt x="7" y="-81" on="0"/>
        <pt x="26" y="-81" on="1"/>
        <pt x="56" y="-80" on="0"/>
        <pt x="109" y="-61" on="0"/>
        <pt x="155" y="-31" on="0"/>
        <pt x="197" y="7" on="0"/>
        <pt x="216" y="27" on="1"/>
        <pt x="250" y="63" on="0"/>
        <pt x="329" y="166" on="0"/>
        <pt x="419" y="287" on="0"/>
        <pt x="517" y="420" on="0"/>
        <pt x="622" y="552" on="0"/>
        <pt x="733" y="675" on="0"/>
        <pt x="790" y="726" on="1"/>
        <pt x="741" y="739" on="0"/>
        <pt x="629" y="774" on="0"/>
        <pt x="564" y="798" on="1"/>
        <pt x="525" y="812" on="0"/>
        <pt x="454" y="824" on="0"/>
        <pt x="422" y="824" on="1"/>
        <pt x="365" y="824" on="0"/>
        <pt x="276" y="795" on="0"/>
        <pt x="213" y="759" on="0"/>
        <pt x="179" y="728" on="0"/>
        <pt x="176" y="727" on="1"/>
        <pt x="173" y="724" on="0"/>
        <pt x="169" y="724" on="1"/>
        <pt x="161" y="724" on="0"/>
        <pt x="161" y="732" on="1"/>
        <pt x="161" y="737" on="0"/>
        <pt x="163" y="739" on="1"/>
        <pt x="192" y="767" on="0"/>
        <pt x="231" y="790" on="1"/>
        <pt x="264" y="810" on="0"/>
        <pt x="360" y="842" on="0"/>
        <pt x="422" y="842" on="1"/>
        <pt x="456" y="842" on="0"/>
        <pt x="529" y="830" on="0"/>
        <pt x="570" y="815" on="1"/>
        <pt x="639" y="790" on="0"/>
        <pt x="756" y="754" on="0"/>
        <pt x="807" y="741" on="1"/>
        <pt x="885" y="805" on="0"/>
        <pt x="1055" y="889" on="0"/>
        <pt x="1151" y="889" on="1"/>
        <pt x="1174" y="889" on="0"/>
        <pt x="1225" y="883" on="0"/>
        <pt x="1268" y="865" on="0"/>
        <pt x="1296" y="832" on="0"/>
        <pt x="1296" y="804" on="1"/>
        <pt x="1296" y="766" on="0"/>
        <pt x="1250" y="718" on="0"/>
        <pt x="1183" y="692" on="0"/>
        <pt x="1107" y="683" on="0"/>
        <pt x="1078" y="683" on="1"/>
        <pt x="1038" y="683" on="0"/>
        <pt x="908" y="697" on="0"/>
        <pt x="811" y="721" on="1"/>
        <pt x="735" y="652" on="0"/>
        <pt x="589" y="479" on="0"/>
        <pt x="454" y="302" on="0"/>
        <pt x="333" y="135" on="0"/>
        <pt x="282" y="74" on="1"/>
        <pt x="257" y="44" on="0"/>
        <pt x="201" y="-18" on="0"/>
        <pt x="137" y="-68" on="0"/>
        <pt x="66" y="-99" on="0"/>
        <pt x="26" y="-99" on="1"/>
        <pt x="0" y="-99" on="0"/>
        <pt x="-59" y="-83" on="0"/>
      </contour>
      <contour>
        <pt x="1078" y="701" on="1"/>
        <pt x="1144" y="701" on="0"/>
        <pt x="1222" y="723" on="0"/>
        <pt x="1264" y="755" on="0"/>
        <pt x="1277" y="790" on="0"/>
        <pt x="1277" y="803" on="1"/>
        <pt x="1277" y="827" on="0"/>
        <pt x="1251" y="854" on="0"/>
        <pt x="1212" y="867" on="0"/>
        <pt x="1168" y="871" on="0"/>
        <pt x="1151" y="871" on="1"/>
        <pt x="1056" y="869" on="0"/>
        <pt x="897" y="791" on="0"/>
        <pt x="828" y="735" on="1"/>
        <pt x="919" y="713" on="0"/>
        <pt x="1041" y="701" on="0"/>
      </contour>
    </TTGlyph>
    <TTGlyph name="U" xMin="-170" yMin="-173" xMax="1221" yMax="926">
      <contour>
        <pt x="1221" y="815" on="1"/>
        <pt x="1221" y="808" on="0"/>
        <pt x="1215" y="807" on="1"/>
        <pt x="1204" y="805" on="0"/>
        <pt x="1121" y="771" on="0"/>
        <pt x="1002" y="696" on="0"/>
        <pt x="860" y="571" on="0"/>
        <pt x="790" y="478" on="1"/>
        <pt x="775" y="458" on="0"/>
        <pt x="722" y="376" on="0"/>
        <pt x="664" y="269" on="0"/>
        <pt x="606" y="149" on="0"/>
        <pt x="587" y="91" on="1"/>
        <pt x="579" y="66" on="0"/>
        <pt x="557" y="-15" on="0"/>
        <pt x="557" y="-54" on="1"/>
        <pt x="557" y="-74" on="0"/>
        <pt x="566" y="-111" on="0"/>
        <pt x="587" y="-139" on="0"/>
        <pt x="622" y="-156" on="0"/>
        <pt x="647" y="-156" on="1"/>
        <pt x="679" y="-156" on="0"/>
        <pt x="733" y="-118" on="0"/>
        <pt x="772" y="-59" on="0"/>
        <pt x="794" y="14" on="0"/>
        <pt x="794" y="49" on="1"/>
        <pt x="794" y="57" on="0"/>
        <pt x="802" y="59" on="1"/>
        <pt x="810" y="59" on="0"/>
        <pt x="812" y="51" on="1"/>
        <pt x="812" y="16" on="0"/>
        <pt x="789" y="-63" on="0"/>
        <pt x="747" y="-129" on="0"/>
        <pt x="686" y="-173" on="0"/>
        <pt x="648" y="-173" on="1"/>
        <pt x="618" y="-173" on="0"/>
        <pt x="576" y="-154" on="0"/>
        <pt x="550" y="-122" on="0"/>
        <pt x="539" y="-79" on="0"/>
        <pt x="539" y="-55" on="1"/>
        <pt x="539" y="-20" on="0"/>
        <pt x="555" y="51" on="0"/>
        <pt x="563" y="78" on="1"/>
        <pt x="536" y="41" on="0"/>
        <pt x="473" y="-22" on="0"/>
        <pt x="398" y="-68" on="0"/>
        <pt x="308" y="-94" on="0"/>
        <pt x="252" y="-94" on="1"/>
        <pt x="217" y="-94" on="0"/>
        <pt x="141" y="-71" on="0"/>
        <pt x="78" y="-20" on="0"/>
        <pt x="37" y="61" on="0"/>
        <pt x="37" y="118" on="1"/>
        <pt x="37" y="160" on="0"/>
        <pt x="63" y="259" on="0"/>
        <pt x="93" y="319" on="1"/>
        <pt x="132" y="397" on="0"/>
        <pt x="229" y="532" on="0"/>
        <pt x="332" y="646" on="0"/>
        <pt x="435" y="740" on="0"/>
        <pt x="480" y="778" on="1"/>
        <pt x="429" y="784" on="0"/>
        <pt x="343" y="809" on="0"/>
        <pt x="268" y="838" on="0"/>
        <pt x="198" y="868" on="0"/>
        <pt x="127" y="892" on="0"/>
        <pt x="50" y="908" on="0"/>
        <pt x="5" y="908" on="1"/>
        <pt x="-17" y="908" on="0"/>
        <pt x="-71" y="901" on="0"/>
        <pt x="-119" y="879" on="0"/>
        <pt x="-151" y="838" on="0"/>
        <pt x="-151" y="804" on="1"/>
        <pt x="-151" y="782" on="0"/>
        <pt x="-132" y="750" on="0"/>
        <pt x="-100" y="728" on="0"/>
        <pt x="-60" y="715" on="0"/>
        <pt x="-40" y="714" on="1"/>
        <pt x="-31" y="713" on="0"/>
        <pt x="-31" y="704" on="1"/>
        <pt x="-31" y="696" on="0"/>
        <pt x="-40" y="696" on="1"/>
        <pt x="-41" y="696" on="1"/>
        <pt x="-43" y="695" on="0"/>
        <pt x="-83" y="702" on="0"/>
        <pt x="-131" y="726" on="0"/>
        <pt x="-170" y="769" on="0"/>
        <pt x="-170" y="805" on="1"/>
        <pt x="-170" y="840" on="0"/>
        <pt x="-138" y="886" on="0"/>
        <pt x="-88" y="914" on="0"/>
        <pt x="-25" y="926" on="0"/>
        <pt x="5" y="926" on="1"/>
        <pt x="53" y="926" on="0"/>
        <pt x="135" y="910" on="0"/>
        <pt x="209" y="884" on="0"/>
        <pt x="280" y="853" on="0"/>
        <pt x="358" y="823" on="0"/>
        <pt x="445" y="799" on="0"/>
        <pt x="499" y="794" on="1"/>
        <pt x="517" y="809" on="0"/>
        <pt x="556" y="845" on="0"/>
        <pt x="599" y="875" on="0"/>
        <pt x="645" y="896" on="0"/>
        <pt x="671" y="896" on="1"/>
        <pt x="697" y="896" on="0"/>
        <pt x="732" y="872" on="0"/>
        <pt x="732" y="843" on="1"/>
        <pt x="732" y="816" on="0"/>
        <pt x="695" y="787" on="0"/>
        <pt x="643" y="774" on="0"/>
        <pt x="588" y="772" on="0"/>
        <pt x="570" y="772" on="1"/>
        <pt x="538" y="772" on="0"/>
        <pt x="505" y="775" on="1"/>
        <pt x="472" y="748" on="0"/>
        <pt x="396" y="681" on="0"/>
        <pt x="356" y="642" on="1"/>
        <pt x="324" y="611" on="0"/>
        <pt x="255" y="532" on="0"/>
        <pt x="188" y="443" on="0"/>
        <pt x="128" y="348" on="0"/>
        <pt x="82" y="252" on="0"/>
        <pt x="55" y="159" on="0"/>
        <pt x="55" y="118" on="1"/>
        <pt x="55" y="69" on="0"/>
        <pt x="88" y="-4" on="0"/>
        <pt x="144" y="-52" on="0"/>
        <pt x="214" y="-76" on="0"/>
        <pt x="252" y="-76" on="1"/>
        <pt x="314" y="-76" on="0"/>
        <pt x="420" y="-37" on="0"/>
        <pt x="507" y="30" on="0"/>
        <pt x="576" y="123" on="0"/>
        <pt x="601" y="177" on="1"/>
        <pt x="658" y="313" on="0"/>
        <pt x="792" y="515" on="0"/>
        <pt x="927" y="658" on="0"/>
        <pt x="1052" y="751" on="0"/>
        <pt x="1150" y="804" on="0"/>
        <pt x="1209" y="824" on="0"/>
        <pt x="1210" y="824" on="1"/>
        <pt x="1211" y="824" on="0"/>
        <pt x="1212" y="825" on="0"/>
        <pt x="1213" y="825" on="1"/>
        <pt x="1219" y="825" on="0"/>
        <pt x="1221" y="818" on="1"/>
      </contour>
      <contour>
        <pt x="664" y="878" on="1"/>
        <pt x="644" y="877" on="0"/>
        <pt x="608" y="859" on="0"/>
        <pt x="573" y="834" on="0"/>
        <pt x="541" y="805" on="0"/>
        <pt x="525" y="792" on="1"/>
        <pt x="547" y="789" on="0"/>
        <pt x="572" y="789" on="1"/>
        <pt x="585" y="789" on="0"/>
        <pt x="632" y="790" on="0"/>
        <pt x="679" y="800" on="0"/>
        <pt x="714" y="822" on="0"/>
        <pt x="714" y="843" on="1"/>
        <pt x="714" y="878" on="0"/>
        <pt x="671" y="878" on="1"/>
      </contour>
    </TTGlyph>
    <TTGlyph name="Uacute" xMin="-170" yMin="-173" xMax="1282" yMax="1054">
      <component glyphName="U" x="0" y="0" flags="0x1204"/>
      <component glyphName="acute" x="789" y="107" flags="0x1004"/>
    </TTGlyph>
    <TTGlyph name="Ucircumflex" xMin="-170" yMin="-173" xMax="1267" yMax="1076">
      <component glyphName="U" x="0" y="0" flags="0x1204"/>
      <component glyphName="circumflex" x="628" y="161" flags="0x1004"/>
    </TTGlyph>
    <TTGlyph name="Udieresis" xMin="-170" yMin="-173" xMax="1221" yMax="973">
      <component glyphName="U" x="0" y="0" flags="0x1204"/>
      <component glyphName="dieresis" x="781" y="77" flags="0x1004"/>
    </TTGlyph>
    <TTGlyph name="Ugrave" xMin="-170" yMin="-173" xMax="1221" yMax="1164">
      <component glyphName="U" x="0" y="0" flags="0x1204"/>
      <component glyphName="grave" x="681" y="98" flags="0x1004"/>
    </TTGlyph>
    <TTGlyph name="V" xMin="-167" yMin="-144" xMax="1172" yMax="933">
      <contour>
        <pt x="-87" y="-144" on="1"/>
        <pt x="-117" y="-144" on="0"/>
        <pt x="-165" y="-117" on="0"/>
        <pt x="-167" y="-87" on="1"/>
        <pt x="-167" y="-65" on="0"/>
        <pt x="-139" y="-32" on="0"/>
        <pt x="-97" y="-12" on="0"/>
        <pt x="-47" y="-2" on="0"/>
        <pt x="-26" y="-2" on="1"/>
        <pt x="-6" y="-2" on="0"/>
        <pt x="38" y="-6" on="0"/>
        <pt x="62" y="-10" on="1"/>
        <pt x="76" y="29" on="0"/>
        <pt x="125" y="136" on="0"/>
        <pt x="187" y="255" on="0"/>
        <pt x="260" y="377" on="0"/>
        <pt x="299" y="430" on="1"/>
        <pt x="350" y="500" on="0"/>
        <pt x="432" y="601" on="0"/>
        <pt x="501" y="676" on="0"/>
        <pt x="559" y="730" on="0"/>
        <pt x="587" y="753" on="1"/>
        <pt x="510" y="763" on="0"/>
        <pt x="395" y="806" on="0"/>
        <pt x="290" y="850" on="0"/>
        <pt x="183" y="883" on="0"/>
        <pt x="114" y="883" on="1"/>
        <pt x="85" y="883" on="0"/>
        <pt x="29" y="873" on="0"/>
        <pt x="-15" y="849" on="0"/>
        <pt x="-41" y="810" on="0"/>
        <pt x="-41" y="782" on="1"/>
        <pt x="-41" y="755" on="0"/>
        <pt x="-13" y="720" on="0"/>
        <pt x="24" y="698" on="0"/>
        <pt x="60" y="689" on="0"/>
        <pt x="69" y="689" on="1"/>
        <pt x="78" y="687" on="0"/>
        <pt x="78" y="679" on="1"/>
        <pt x="78" y="671" on="0"/>
        <pt x="68" y="671" on="1"/>
        <pt x="68" y="670" on="0"/>
        <pt x="49" y="672" on="0"/>
        <pt x="21" y="680" on="0"/>
        <pt x="-12" y="694" on="0"/>
        <pt x="-41" y="719" on="0"/>
        <pt x="-60" y="756" on="0"/>
        <pt x="-60" y="781" on="1"/>
        <pt x="-60" y="815" on="0"/>
        <pt x="-29" y="862" on="0"/>
        <pt x="20" y="889" on="0"/>
        <pt x="82" y="901" on="0"/>
        <pt x="114" y="901" on="1"/>
        <pt x="161" y="901" on="0"/>
        <pt x="241" y="884" on="0"/>
        <pt x="315" y="859" on="0"/>
        <pt x="388" y="827" on="0"/>
        <pt x="466" y="798" on="0"/>
        <pt x="554" y="774" on="0"/>
        <pt x="607" y="769" on="1"/>
        <pt x="631" y="789" on="0"/>
        <pt x="679" y="826" on="0"/>
        <pt x="724" y="854" on="0"/>
        <pt x="764" y="871" on="0"/>
        <pt x="780" y="871" on="1"/>
        <pt x="810" y="871" on="0"/>
        <pt x="840" y="844" on="0"/>
        <pt x="840" y="820" on="1"/>
        <pt x="840" y="789" on="0"/>
        <pt x="797" y="759" on="0"/>
        <pt x="740" y="747" on="0"/>
        <pt x="685" y="748" on="0"/>
        <pt x="673" y="748" on="1"/>
        <pt x="642" y="748" on="0"/>
        <pt x="612" y="751" on="1"/>
        <pt x="583" y="727" on="0"/>
        <pt x="524" y="673" on="0"/>
        <pt x="454" y="598" on="0"/>
        <pt x="368" y="494" on="0"/>
        <pt x="314" y="419" on="1"/>
        <pt x="276" y="367" on="0"/>
        <pt x="205" y="248" on="0"/>
        <pt x="143" y="131" on="0"/>
        <pt x="94" y="26" on="0"/>
        <pt x="80" y="-13" on="1"/>
        <pt x="119" y="-21" on="0"/>
        <pt x="204" y="-34" on="0"/>
        <pt x="287" y="-43" on="0"/>
        <pt x="362" y="-48" on="0"/>
        <pt x="392" y="-48" on="1"/>
        <pt x="421" y="-48" on="0"/>
        <pt x="507" y="-38" on="0"/>
        <pt x="612" y="-7" on="0"/>
        <pt x="728" y="51" on="0"/>
        <pt x="845" y="149" on="0"/>
        <pt x="958" y="292" on="0"/>
        <pt x="1056" y="492" on="0"/>
        <pt x="1132" y="756" on="0"/>
        <pt x="1154" y="925" on="1"/>
        <pt x="1154" y="933" on="0"/>
        <pt x="1164" y="933" on="1"/>
        <pt x="1172" y="931" on="0"/>
        <pt x="1172" y="923" on="1"/>
        <pt x="1150" y="753" on="0"/>
        <pt x="1073" y="487" on="0"/>
        <pt x="974" y="284" on="0"/>
        <pt x="859" y="138" on="0"/>
        <pt x="739" y="38" on="0"/>
        <pt x="620" y="-23" on="0"/>
        <pt x="513" y="-55" on="0"/>
        <pt x="423" y="-66" on="0"/>
        <pt x="392" y="-66" on="1"/>
        <pt x="300" y="-64" on="0"/>
        <pt x="148" y="-45" on="0"/>
        <pt x="72" y="-30" on="1"/>
        <pt x="63" y="-50" on="0"/>
        <pt x="40" y="-89" on="0"/>
        <pt x="4" y="-121" on="0"/>
        <pt x="-48" y="-143" on="0"/>
      </contour>
      <contour>
        <pt x="-129" y="-50" on="1"/>
        <pt x="-140" y="-59" on="0"/>
        <pt x="-149" y="-79" on="0"/>
        <pt x="-149" y="-87" on="1"/>
        <pt x="-147" y="-109" on="0"/>
        <pt x="-107" y="-127" on="0"/>
        <pt x="-87" y="-127" on="1"/>
        <pt x="-36" y="-124" on="0"/>
        <pt x="28" y="-75" on="0"/>
        <pt x="54" y="-27" on="1"/>
        <pt x="32" y="-24" on="0"/>
        <pt x="-8" y="-20" on="0"/>
        <pt x="-26" y="-20" on="1"/>
        <pt x="-33" y="-20" on="0"/>
        <pt x="-57" y="-22" on="0"/>
        <pt x="-85" y="-28" on="0"/>
        <pt x="-116" y="-40" on="0"/>
      </contour>
      <contour>
        <pt x="673" y="766" on="1"/>
        <pt x="706" y="766" on="0"/>
        <pt x="751" y="770" on="0"/>
        <pt x="780" y="775" on="0"/>
        <pt x="795" y="781" on="0"/>
        <pt x="799" y="783" on="1"/>
        <pt x="808" y="788" on="0"/>
        <pt x="822" y="806" on="0"/>
        <pt x="822" y="820" on="1"/>
        <pt x="822" y="838" on="0"/>
        <pt x="799" y="853" on="0"/>
        <pt x="781" y="853" on="1"/>
        <pt x="765" y="853" on="0"/>
        <pt x="721" y="837" on="0"/>
        <pt x="693" y="814" on="1"/>
        <pt x="677" y="801" on="0"/>
        <pt x="648" y="778" on="0"/>
        <pt x="633" y="767" on="1"/>
        <pt x="643" y="766" on="0"/>
        <pt x="663" y="766" on="0"/>
      </contour>
    </TTGlyph>
    <TTGlyph name="W" xMin="-86" yMin="-185" xMax="1521" yMax="898">
      <contour>
        <pt x="593" y="-134" on="1"/>
        <pt x="593" y="-111" on="0"/>
        <pt x="620" y="-84" on="0"/>
        <pt x="658" y="-71" on="0"/>
        <pt x="700" y="-67" on="0"/>
        <pt x="714" y="-67" on="1"/>
        <pt x="733" y="-67" on="0"/>
        <pt x="770" y="-70" on="0"/>
        <pt x="785" y="-72" on="1"/>
        <pt x="802" y="-48" on="0"/>
        <pt x="840" y="16" on="0"/>
        <pt x="874" y="101" on="0"/>
        <pt x="904" y="210" on="0"/>
        <pt x="914" y="280" on="1"/>
        <pt x="868" y="208" on="0"/>
        <pt x="765" y="105" on="0"/>
        <pt x="659" y="35" on="0"/>
        <pt x="555" y="-7" on="0"/>
        <pt x="463" y="-29" on="0"/>
        <pt x="389" y="-36" on="0"/>
        <pt x="366" y="-36" on="1"/>
        <pt x="327" y="-35" on="0"/>
        <pt x="266" y="-32" on="0"/>
        <pt x="217" y="-28" on="0"/>
        <pt x="176" y="-25" on="0"/>
        <pt x="158" y="-23" on="1"/>
        <pt x="135" y="-80" on="0"/>
        <pt x="46" y="-149" on="0"/>
        <pt x="-8" y="-149" on="1"/>
        <pt x="-40" y="-149" on="0"/>
        <pt x="-86" y="-117" on="0"/>
        <pt x="-86" y="-91" on="1"/>
        <pt x="-86" y="-64" on="0"/>
        <pt x="-53" y="-30" on="0"/>
        <pt x="-3" y="-9" on="0"/>
        <pt x="53" y="-1" on="0"/>
        <pt x="77" y="-1" on="1"/>
        <pt x="113" y="-1" on="0"/>
        <pt x="146" y="-4" on="1"/>
        <pt x="161" y="36" on="0"/>
        <pt x="210" y="141" on="0"/>
        <pt x="271" y="257" on="0"/>
        <pt x="342" y="374" on="0"/>
        <pt x="380" y="426" on="1"/>
        <pt x="431" y="496" on="0"/>
        <pt x="513" y="599" on="0"/>
        <pt x="582" y="674" on="0"/>
        <pt x="640" y="728" on="0"/>
        <pt x="668" y="750" on="1"/>
        <pt x="590" y="760" on="0"/>
        <pt x="473" y="803" on="0"/>
        <pt x="368" y="847" on="0"/>
        <pt x="262" y="880" on="0"/>
        <pt x="195" y="880" on="1"/>
        <pt x="170" y="880" on="0"/>
        <pt x="115" y="871" on="0"/>
        <pt x="70" y="848" on="0"/>
        <pt x="40" y="808" on="0"/>
        <pt x="40" y="776" on="1"/>
        <pt x="40" y="751" on="0"/>
        <pt x="63" y="716" on="0"/>
        <pt x="97" y="695" on="0"/>
        <pt x="135" y="686" on="0"/>
        <pt x="150" y="686" on="1"/>
        <pt x="158" y="686" on="0"/>
        <pt x="158" y="678" on="1"/>
        <pt x="158" y="668" on="0"/>
        <pt x="149" y="668" on="1"/>
        <pt x="147" y="668" on="0"/>
        <pt x="107" y="673" on="0"/>
        <pt x="60" y="695" on="0"/>
        <pt x="21" y="738" on="0"/>
        <pt x="21" y="776" on="1"/>
        <pt x="21" y="813" on="0"/>
        <pt x="55" y="861" on="0"/>
        <pt x="107" y="888" on="0"/>
        <pt x="168" y="898" on="0"/>
        <pt x="195" y="898" on="1"/>
        <pt x="266" y="898" on="0"/>
        <pt x="379" y="863" on="0"/>
        <pt x="489" y="817" on="0"/>
        <pt x="609" y="774" on="0"/>
        <pt x="687" y="766" on="1"/>
        <pt x="707" y="782" on="0"/>
        <pt x="748" y="818" on="0"/>
        <pt x="792" y="849" on="0"/>
        <pt x="838" y="869" on="0"/>
        <pt x="864" y="869" on="1"/>
        <pt x="887" y="869" on="0"/>
        <pt x="921" y="842" on="0"/>
        <pt x="921" y="816" on="1"/>
        <pt x="921" y="788" on="0"/>
        <pt x="883" y="759" on="0"/>
        <pt x="829" y="746" on="0"/>
        <pt x="772" y="745" on="0"/>
        <pt x="754" y="745" on="1"/>
        <pt x="721" y="745" on="0"/>
        <pt x="693" y="748" on="1"/>
        <pt x="664" y="724" on="0"/>
        <pt x="604" y="670" on="0"/>
        <pt x="533" y="595" on="0"/>
        <pt x="448" y="491" on="0"/>
        <pt x="394" y="416" on="1"/>
        <pt x="358" y="366" on="0"/>
        <pt x="288" y="251" on="0"/>
        <pt x="227" y="138" on="0"/>
        <pt x="179" y="34" on="0"/>
        <pt x="164" y="-5" on="1"/>
        <pt x="220" y="-10" on="0"/>
        <pt x="295" y="-15" on="0"/>
        <pt x="340" y="-18" on="0"/>
        <pt x="362" y="-18" on="0"/>
        <pt x="366" y="-18" on="1"/>
        <pt x="390" y="-18" on="0"/>
        <pt x="466" y="-11" on="0"/>
        <pt x="559" y="13" on="0"/>
        <pt x="665" y="58" on="0"/>
        <pt x="772" y="134" on="0"/>
        <pt x="875" y="246" on="0"/>
        <pt x="920" y="324" on="1"/>
        <pt x="920" y="330" on="0"/>
        <pt x="921" y="333" on="1"/>
        <pt x="932" y="428" on="0"/>
        <pt x="948" y="600" on="0"/>
        <pt x="972" y="731" on="0"/>
        <pt x="1012" y="808" on="0"/>
        <pt x="1046" y="808" on="1"/>
        <pt x="1059" y="808" on="0"/>
        <pt x="1073" y="784" on="0"/>
        <pt x="1073" y="764" on="1"/>
        <pt x="1073" y="754" on="0"/>
        <pt x="1071" y="741" on="0"/>
        <pt x="1071" y="739" on="1"/>
        <pt x="1051" y="605" on="0"/>
        <pt x="982" y="399" on="0"/>
        <pt x="937" y="319" on="1"/>
        <pt x="928" y="238" on="0"/>
        <pt x="899" y="116" on="0"/>
        <pt x="863" y="23" on="0"/>
        <pt x="824" y="-46" on="0"/>
        <pt x="805" y="-74" on="1"/>
        <pt x="814" y="-75" on="0"/>
        <pt x="835" y="-76" on="0"/>
        <pt x="847" y="-76" on="1"/>
        <pt x="887" y="-76" on="0"/>
        <pt x="994" y="-61" on="0"/>
        <pt x="1114" y="-10" on="0"/>
        <pt x="1243" y="87" on="0"/>
        <pt x="1306" y="170" on="1"/>
        <pt x="1345" y="222" on="0"/>
        <pt x="1415" y="351" on="0"/>
        <pt x="1467" y="510" on="0"/>
        <pt x="1500" y="698" on="0"/>
        <pt x="1503" y="808" on="1"/>
        <pt x="1503" y="817" on="0"/>
        <pt x="1512" y="817" on="1"/>
        <pt x="1521" y="817" on="0"/>
        <pt x="1521" y="807" on="1"/>
        <pt x="1517" y="659" on="0"/>
        <pt x="1462" y="419" on="0"/>
        <pt x="1376" y="230" on="0"/>
        <pt x="1266" y="90" on="0"/>
        <pt x="1150" y="-8" on="0"/>
        <pt x="1036" y="-66" on="0"/>
        <pt x="989" y="-78" on="1"/>
        <pt x="950" y="-88" on="0"/>
        <pt x="876" y="-94" on="0"/>
        <pt x="847" y="-94" on="1"/>
        <pt x="813" y="-94" on="0"/>
        <pt x="794" y="-91" on="1"/>
        <pt x="765" y="-131" on="0"/>
        <pt x="694" y="-185" on="0"/>
        <pt x="649" y="-185" on="1"/>
        <pt x="626" y="-185" on="0"/>
        <pt x="594" y="-163" on="0"/>
      </contour>
      <contour>
        <pt x="702" y="-154" on="1"/>
        <pt x="724" y="-143" on="0"/>
        <pt x="762" y="-105" on="0"/>
        <pt x="774" y="-88" on="1"/>
        <pt x="751" y="-85" on="0"/>
        <pt x="719" y="-85" on="1"/>
        <pt x="710" y="-85" on="0"/>
        <pt x="674" y="-86" on="0"/>
        <pt x="638" y="-95" on="0"/>
        <pt x="611" y="-115" on="0"/>
        <pt x="611" y="-134" on="1"/>
        <pt x="611" y="-154" on="0"/>
        <pt x="635" y="-168" on="0"/>
        <pt x="649" y="-168" on="1"/>
        <pt x="663" y="-168" on="0"/>
        <pt x="692" y="-159" on="0"/>
      </contour>
      <contour>
        <pt x="-48" y="-53" on="1"/>
        <pt x="-56" y="-61" on="0"/>
        <pt x="-67" y="-81" on="0"/>
        <pt x="-67" y="-92" on="1"/>
        <pt x="-67" y="-113" on="0"/>
        <pt x="-29" y="-131" on="0"/>
        <pt x="-9" y="-131" on="1"/>
        <pt x="44" y="-131" on="0"/>
        <pt x="119" y="-68" on="0"/>
        <pt x="139" y="-22" on="1"/>
        <pt x="124" y="-20" on="0"/>
        <pt x="92" y="-18" on="0"/>
        <pt x="75" y="-18" on="1"/>
        <pt x="40" y="-18" on="0"/>
        <pt x="-25" y="-33" on="0"/>
      </contour>
      <contour>
        <pt x="1025" y="782" on="1"/>
        <pt x="1006" y="761" on="0"/>
        <pt x="982" y="686" on="0"/>
        <pt x="965" y="582" on="0"/>
        <pt x="952" y="449" on="0"/>
        <pt x="943" y="368" on="1"/>
        <pt x="980" y="443" on="0"/>
        <pt x="1037" y="632" on="0"/>
        <pt x="1054" y="749" on="1"/>
        <pt x="1054" y="752" on="0"/>
        <pt x="1055" y="763" on="0"/>
        <pt x="1055" y="769" on="1"/>
        <pt x="1055" y="778" on="0"/>
        <pt x="1051" y="792" on="0"/>
        <pt x="1043" y="792" on="1"/>
        <pt x="1038" y="792" on="0"/>
        <pt x="1028" y="786" on="0"/>
      </contour>
      <contour>
        <pt x="754" y="762" on="1"/>
        <pt x="779" y="762" on="0"/>
        <pt x="831" y="765" on="0"/>
        <pt x="875" y="775" on="0"/>
        <pt x="903" y="797" on="0"/>
        <pt x="903" y="815" on="1"/>
        <pt x="901" y="838" on="0"/>
        <pt x="876" y="850" on="0"/>
        <pt x="862" y="850" on="1"/>
        <pt x="840" y="850" on="0"/>
        <pt x="799" y="832" on="0"/>
        <pt x="762" y="805" on="0"/>
        <pt x="728" y="775" on="0"/>
        <pt x="714" y="764" on="1"/>
        <pt x="724" y="763" on="0"/>
        <pt x="743" y="762" on="0"/>
      </contour>
    </TTGlyph>
    <TTGlyph name="X" xMin="-286" yMin="-103" xMax="1342" yMax="903">
      <contour>
        <pt x="1180" y="845" on="1"/>
        <pt x="1212" y="845" on="0"/>
        <pt x="1271" y="831" on="0"/>
        <pt x="1316" y="799" on="0"/>
        <pt x="1342" y="748" on="0"/>
        <pt x="1342" y="711" on="1"/>
        <pt x="1342" y="685" on="0"/>
        <pt x="1336" y="678" on="0"/>
        <pt x="1331" y="678" on="1"/>
        <pt x="1328" y="678" on="0"/>
        <pt x="1322" y="682" on="0"/>
        <pt x="1322" y="686" on="1"/>
        <pt x="1322" y="689" on="0"/>
        <pt x="1323" y="693" on="1"/>
        <pt x="1323" y="696" on="0"/>
        <pt x="1324" y="706" on="0"/>
        <pt x="1324" y="711" on="1"/>
        <pt x="1324" y="741" on="0"/>
        <pt x="1302" y="785" on="0"/>
        <pt x="1263" y="813" on="0"/>
        <pt x="1210" y="827" on="0"/>
        <pt x="1180" y="827" on="1"/>
        <pt x="1133" y="827" on="0"/>
        <pt x="1033" y="794" on="0"/>
        <pt x="935" y="739" on="0"/>
        <pt x="841" y="665" on="0"/>
        <pt x="801" y="625" on="1"/>
        <pt x="765" y="587" on="0"/>
        <pt x="680" y="488" on="0"/>
        <pt x="600" y="367" on="0"/>
        <pt x="531" y="228" on="0"/>
        <pt x="512" y="150" on="1"/>
        <pt x="509" y="137" on="0"/>
        <pt x="506" y="106" on="0"/>
        <pt x="506" y="91" on="1"/>
        <pt x="506" y="53" on="0"/>
        <pt x="529" y="-12" on="0"/>
        <pt x="572" y="-59" on="0"/>
        <pt x="633" y="-85" on="0"/>
        <pt x="670" y="-85" on="1"/>
        <pt x="701" y="-85" on="0"/>
        <pt x="764" y="-65" on="0"/>
        <pt x="814" y="-24" on="0"/>
        <pt x="845" y="36" on="0"/>
        <pt x="845" y="76" on="1"/>
        <pt x="845" y="95" on="0"/>
        <pt x="836" y="131" on="0"/>
        <pt x="814" y="158" on="0"/>
        <pt x="779" y="175" on="0"/>
        <pt x="754" y="175" on="1"/>
        <pt x="731" y="175" on="0"/>
        <pt x="686" y="157" on="0"/>
        <pt x="670" y="137" on="1"/>
        <pt x="667" y="133" on="0"/>
        <pt x="662" y="133" on="1"/>
        <pt x="658" y="133" on="0"/>
        <pt x="654" y="139" on="0"/>
        <pt x="654" y="142" on="1"/>
        <pt x="654" y="146" on="0"/>
        <pt x="656" y="148" on="1"/>
        <pt x="673" y="169" on="0"/>
        <pt x="725" y="194" on="0"/>
        <pt x="754" y="194" on="1"/>
        <pt x="782" y="194" on="0"/>
        <pt x="824" y="174" on="0"/>
        <pt x="850" y="141" on="0"/>
        <pt x="863" y="97" on="0"/>
        <pt x="863" y="74" on="1"/>
        <pt x="863" y="33" on="0"/>
        <pt x="831" y="-33" on="0"/>
        <pt x="777" y="-79" on="0"/>
        <pt x="707" y="-103" on="0"/>
        <pt x="670" y="-103" on="1"/>
        <pt x="630" y="-103" on="0"/>
        <pt x="563" y="-74" on="0"/>
        <pt x="515" y="-23" on="0"/>
        <pt x="489" y="49" on="0"/>
        <pt x="489" y="92" on="1"/>
        <pt x="489" y="142" on="0"/>
        <pt x="516" y="227" on="0"/>
        <pt x="533" y="269" on="1"/>
        <pt x="495" y="217" on="0"/>
        <pt x="448" y="163" on="1"/>
        <pt x="447" y="163" on="0"/>
        <pt x="414" y="129" on="0"/>
        <pt x="355" y="77" on="0"/>
        <pt x="271" y="17" on="0"/>
        <pt x="168" y="-35" on="0"/>
        <pt x="50" y="-69" on="0"/>
        <pt x="-15" y="-69" on="1"/>
        <pt x="-54" y="-69" on="0"/>
        <pt x="-149" y="-53" on="0"/>
        <pt x="-231" y="-11" on="0"/>
        <pt x="-286" y="61" on="0"/>
        <pt x="-286" y="117" on="1"/>
        <pt x="-286" y="177" on="0"/>
        <pt x="-233" y="264" on="0"/>
        <pt x="-148" y="319" on="0"/>
        <pt x="-43" y="346" on="0"/>
        <pt x="10" y="346" on="1"/>
        <pt x="18" y="346" on="0"/>
        <pt x="40" y="346" on="0"/>
        <pt x="40" y="338" on="1"/>
        <pt x="40" y="329" on="0"/>
        <pt x="31" y="329" on="1"/>
        <pt x="-13" y="329" on="0"/>
        <pt x="-117" y="312" on="0"/>
        <pt x="-207" y="265" on="0"/>
        <pt x="-267" y="180" on="0"/>
        <pt x="-267" y="113" on="1"/>
        <pt x="-267" y="66" on="0"/>
        <pt x="-217" y="3" on="0"/>
        <pt x="-142" y="-35" on="0"/>
        <pt x="-54" y="-51" on="0"/>
        <pt x="-15" y="-51" on="1"/>
        <pt x="30" y="-51" on="0"/>
        <pt x="115" y="-33" on="0"/>
        <pt x="194" y="-3" on="0"/>
        <pt x="265" y="36" on="0"/>
        <pt x="295" y="57" on="1"/>
        <pt x="333" y="83" on="0"/>
        <pt x="404" y="140" on="0"/>
        <pt x="434" y="175" on="1"/>
        <pt x="475" y="223" on="0"/>
        <pt x="567" y="350" on="0"/>
        <pt x="644" y="490" on="0"/>
        <pt x="694" y="635" on="0"/>
        <pt x="694" y="702" on="1"/>
        <pt x="694" y="732" on="0"/>
        <pt x="675" y="797" on="0"/>
        <pt x="624" y="850" on="0"/>
        <pt x="535" y="885" on="0"/>
        <pt x="466" y="885" on="1"/>
        <pt x="397" y="885" on="0"/>
        <pt x="299" y="841" on="0"/>
        <pt x="237" y="773" on="0"/>
        <pt x="208" y="690" on="0"/>
        <pt x="208" y="651" on="1"/>
        <pt x="208" y="619" on="0"/>
        <pt x="231" y="566" on="0"/>
        <pt x="271" y="528" on="0"/>
        <pt x="324" y="507" on="0"/>
        <pt x="355" y="507" on="1"/>
        <pt x="410" y="507" on="0"/>
        <pt x="480" y="569" on="0"/>
        <pt x="491" y="620" on="1"/>
        <pt x="493" y="627" on="0"/>
        <pt x="499" y="627" on="1"/>
        <pt x="508" y="627" on="0"/>
        <pt x="508" y="619" on="1"/>
        <pt x="508" y="595" on="0"/>
        <pt x="485" y="549" on="0"/>
        <pt x="444" y="512" on="0"/>
        <pt x="388" y="490" on="0"/>
        <pt x="356" y="490" on="1"/>
        <pt x="324" y="490" on="0"/>
        <pt x="265" y="511" on="0"/>
        <pt x="218" y="552" on="0"/>
        <pt x="190" y="613" on="0"/>
        <pt x="190" y="653" on="1"/>
        <pt x="190" y="695" on="0"/>
        <pt x="221" y="783" on="0"/>
        <pt x="288" y="856" on="0"/>
        <pt x="392" y="903" on="0"/>
        <pt x="466" y="903" on="1"/>
        <pt x="544" y="903" on="0"/>
        <pt x="640" y="862" on="0"/>
        <pt x="693" y="800" on="0"/>
        <pt x="711" y="726" on="0"/>
        <pt x="712" y="693" on="1"/>
        <pt x="710" y="640" on="0"/>
        <pt x="681" y="540" on="0"/>
        <pt x="659" y="487" on="1"/>
        <pt x="693" y="533" on="0"/>
        <pt x="759" y="608" on="0"/>
        <pt x="788" y="637" on="1"/>
        <pt x="826" y="675" on="0"/>
        <pt x="919" y="750" on="0"/>
        <pt x="1021" y="809" on="0"/>
        <pt x="1128" y="845" on="0"/>
      </contour>
    </TTGlyph>
    <TTGlyph name="Y" xMin="-82" yMin="-203" xMax="1371" yMax="973">
      <contour>
        <pt x="1371" y="861" on="1"/>
        <pt x="1371" y="855" on="0"/>
        <pt x="1340" y="846" on="0"/>
        <pt x="1282" y="825" on="0"/>
        <pt x="1202" y="786" on="0"/>
        <pt x="1106" y="715" on="0"/>
        <pt x="997" y="605" on="0"/>
        <pt x="940" y="524" on="1"/>
        <pt x="914" y="488" on="0"/>
        <pt x="835" y="373" on="0"/>
        <pt x="738" y="229" on="0"/>
        <pt x="628" y="60" on="0"/>
        <pt x="573" y="-30" on="1"/>
        <pt x="549" y="-68" on="0"/>
        <pt x="487" y="-131" on="0"/>
        <pt x="413" y="-177" on="0"/>
        <pt x="327" y="-203" on="0"/>
        <pt x="279" y="-203" on="1"/>
        <pt x="245" y="-203" on="0"/>
        <pt x="175" y="-191" on="0"/>
        <pt x="111" y="-162" on="0"/>
        <pt x="54" y="-116" on="0"/>
        <pt x="33" y="-83" on="1"/>
        <pt x="24" y="-92" on="0"/>
        <pt x="-2" y="-115" on="0"/>
        <pt x="-30" y="-135" on="0"/>
        <pt x="-60" y="-148" on="0"/>
        <pt x="-74" y="-148" on="1"/>
        <pt x="-79" y="-148" on="0"/>
        <pt x="-82" y="-142" on="0"/>
        <pt x="-82" y="-139" on="1"/>
        <pt x="-82" y="-132" on="0"/>
        <pt x="-75" y="-130" on="1"/>
        <pt x="-50" y="-125" on="0"/>
        <pt x="-1" y="-91" on="0"/>
        <pt x="24" y="-66" on="1"/>
        <pt x="13" y="-44" on="0"/>
        <pt x="1" y="3" on="0"/>
        <pt x="1" y="29" on="1"/>
        <pt x="1" y="45" on="0"/>
        <pt x="7" y="86" on="0"/>
        <pt x="23" y="122" on="0"/>
        <pt x="49" y="146" on="0"/>
        <pt x="70" y="146" on="1"/>
        <pt x="94" y="146" on="0"/>
        <pt x="120" y="107" on="0"/>
        <pt x="120" y="80" on="1"/>
        <pt x="120" y="38" on="0"/>
        <pt x="74" y="-39" on="0"/>
        <pt x="46" y="-69" on="1"/>
        <pt x="60" y="-96" on="0"/>
        <pt x="108" y="-139" on="0"/>
        <pt x="170" y="-169" on="0"/>
        <pt x="241" y="-185" on="0"/>
        <pt x="279" y="-185" on="1"/>
        <pt x="364" y="-185" on="0"/>
        <pt x="510" y="-96" on="0"/>
        <pt x="558" y="-21" on="1"/>
        <pt x="594" y="36" on="0"/>
        <pt x="659" y="140" on="0"/>
        <pt x="691" y="190" on="1"/>
        <pt x="650" y="149" on="0"/>
        <pt x="541" y="93" on="0"/>
        <pt x="476" y="93" on="1"/>
        <pt x="442" y="93" on="0"/>
        <pt x="370" y="110" on="0"/>
        <pt x="310" y="151" on="0"/>
        <pt x="271" y="219" on="0"/>
        <pt x="271" y="270" on="1"/>
        <pt x="271" y="310" on="0"/>
        <pt x="300" y="408" on="0"/>
        <pt x="332" y="469" on="1"/>
        <pt x="367" y="536" on="0"/>
        <pt x="442" y="642" on="0"/>
        <pt x="518" y="727" on="0"/>
        <pt x="593" y="795" on="0"/>
        <pt x="628" y="824" on="1"/>
        <pt x="552" y="834" on="0"/>
        <pt x="435" y="877" on="0"/>
        <pt x="329" y="921" on="0"/>
        <pt x="222" y="955" on="0"/>
        <pt x="157" y="955" on="1"/>
        <pt x="130" y="955" on="0"/>
        <pt x="74" y="945" on="0"/>
        <pt x="28" y="921" on="0"/>
        <pt x="-1" y="880" on="0"/>
        <pt x="-1" y="849" on="1"/>
        <pt x="-1" y="826" on="0"/>
        <pt x="19" y="796" on="0"/>
        <pt x="50" y="775" on="0"/>
        <pt x="90" y="763" on="0"/>
        <pt x="110" y="759" on="1"/>
        <pt x="119" y="759" on="0"/>
        <pt x="119" y="750" on="1"/>
        <pt x="117" y="741" on="0"/>
        <pt x="109" y="741" on="1"/>
        <pt x="109" y="739" on="0"/>
        <pt x="69" y="748" on="0"/>
        <pt x="21" y="773" on="0"/>
        <pt x="-19" y="816" on="0"/>
        <pt x="-19" y="849" on="1"/>
        <pt x="-19" y="879" on="0"/>
        <pt x="8" y="926" on="0"/>
        <pt x="55" y="957" on="0"/>
        <pt x="117" y="973" on="0"/>
        <pt x="153" y="973" on="1"/>
        <pt x="201" y="973" on="0"/>
        <pt x="282" y="956" on="0"/>
        <pt x="356" y="930" on="0"/>
        <pt x="428" y="899" on="0"/>
        <pt x="507" y="869" on="0"/>
        <pt x="595" y="845" on="0"/>
        <pt x="648" y="840" on="1"/>
        <pt x="666" y="855" on="0"/>
        <pt x="707" y="891" on="0"/>
        <pt x="752" y="922" on="0"/>
        <pt x="799" y="943" on="0"/>
        <pt x="822" y="943" on="1"/>
        <pt x="850" y="943" on="0"/>
        <pt x="880" y="909" on="0"/>
        <pt x="880" y="889" on="1"/>
        <pt x="880" y="869" on="0"/>
        <pt x="857" y="842" on="0"/>
        <pt x="818" y="825" on="0"/>
        <pt x="769" y="817" on="0"/>
        <pt x="744" y="817" on="1"/>
        <pt x="720" y="817" on="0"/>
        <pt x="673" y="820" on="0"/>
        <pt x="653" y="821" on="1"/>
        <pt x="617" y="792" on="0"/>
        <pt x="541" y="725" on="0"/>
        <pt x="463" y="638" on="0"/>
        <pt x="385" y="529" on="0"/>
        <pt x="348" y="460" on="1"/>
        <pt x="316" y="400" on="0"/>
        <pt x="289" y="306" on="0"/>
        <pt x="289" y="270" on="1"/>
        <pt x="289" y="225" on="0"/>
        <pt x="324" y="164" on="0"/>
        <pt x="378" y="127" on="0"/>
        <pt x="444" y="111" on="0"/>
        <pt x="476" y="111" on="1"/>
        <pt x="519" y="111" on="0"/>
        <pt x="598" y="140" on="0"/>
        <pt x="671" y="193" on="0"/>
        <pt x="739" y="266" on="0"/>
        <pt x="772" y="311" on="1"/>
        <pt x="823" y="387" on="0"/>
        <pt x="900" y="499" on="0"/>
        <pt x="925" y="534" on="1"/>
        <pt x="978" y="610" on="0"/>
        <pt x="1084" y="719" on="0"/>
        <pt x="1181" y="794" on="0"/>
        <pt x="1264" y="838" on="0"/>
        <pt x="1325" y="862" on="0"/>
        <pt x="1360" y="870" on="0"/>
        <pt x="1361" y="870" on="1"/>
        <pt x="1362" y="870" on="1"/>
        <pt x="1371" y="870" on="0"/>
        <pt x="1371" y="863" on="1"/>
      </contour>
      <contour>
        <pt x="814" y="924" on="1"/>
        <pt x="794" y="921" on="0"/>
        <pt x="759" y="903" on="0"/>
        <pt x="724" y="879" on="0"/>
        <pt x="691" y="851" on="0"/>
        <pt x="674" y="838" on="1"/>
        <pt x="688" y="836" on="0"/>
        <pt x="722" y="834" on="0"/>
        <pt x="741" y="834" on="1"/>
        <pt x="761" y="834" on="0"/>
        <pt x="804" y="839" on="0"/>
        <pt x="839" y="851" on="0"/>
        <pt x="862" y="872" on="0"/>
        <pt x="862" y="888" on="1"/>
        <pt x="862" y="902" on="0"/>
        <pt x="840" y="924" on="0"/>
        <pt x="820" y="924" on="1"/>
      </contour>
      <contour>
        <pt x="19" y="28" on="1"/>
        <pt x="19" y="-14" on="0"/>
        <pt x="38" y="-52" on="1"/>
        <pt x="49" y="-40" on="0"/>
        <pt x="72" y="-10" on="0"/>
        <pt x="90" y="23" on="0"/>
        <pt x="102" y="59" on="0"/>
        <pt x="102" y="77" on="1"/>
        <pt x="102" y="84" on="0"/>
        <pt x="99" y="101" on="0"/>
        <pt x="92" y="117" on="0"/>
        <pt x="79" y="128" on="0"/>
        <pt x="70" y="128" on="1"/>
        <pt x="56" y="128" on="0"/>
        <pt x="37" y="109" on="0"/>
        <pt x="25" y="80" on="0"/>
        <pt x="19" y="45" on="0"/>
      </contour>
    </TTGlyph>
    <TTGlyph name="Yacute" xMin="-82" yMin="-203" xMax="1487" yMax="1093">
      <component glyphName="Y" x="0" y="0" flags="0x1204"/>
      <component glyphName="acute" x="994" y="146" flags="0x1004"/>
    </TTGlyph>
    <TTGlyph name="Ydieresis" xMin="-82" yMin="-203" xMax="1371" yMax="1052">
      <component glyphName="Y" x="0" y="0" flags="0x1204"/>
      <component glyphName="dieresis" x="960" y="156" flags="0x1004"/>
    </TTGlyph>
    <TTGlyph name="Z" xMin="-85" yMin="-95" xMax="1262" yMax="904">
      <contour>
        <pt x="1220" y="891" on="1"/>
        <pt x="1237" y="884" on="0"/>
        <pt x="1262" y="849" on="0"/>
        <pt x="1262" y="829" on="1"/>
        <pt x="1262" y="816" on="0"/>
        <pt x="1248" y="781" on="0"/>
        <pt x="1203" y="750" on="0"/>
        <pt x="1121" y="728" on="0"/>
        <pt x="1053" y="728" on="1"/>
        <pt x="967" y="728" on="0"/>
        <pt x="880" y="743" on="1"/>
        <pt x="816" y="677" on="0"/>
        <pt x="705" y="523" on="0"/>
        <pt x="653" y="454" on="1"/>
        <pt x="861" y="434" on="1"/>
        <pt x="870" y="434" on="0"/>
        <pt x="870" y="424" on="1"/>
        <pt x="868" y="414" on="0"/>
        <pt x="860" y="416" on="1"/>
        <pt x="640" y="437" on="1"/>
        <pt x="622" y="413" on="0"/>
        <pt x="552" y="329" on="0"/>
        <pt x="461" y="228" on="0"/>
        <pt x="358" y="122" on="0"/>
        <pt x="307" y="76" on="1"/>
        <pt x="376" y="57" on="0"/>
        <pt x="516" y="4" on="0"/>
        <pt x="662" y="-44" on="0"/>
        <pt x="816" y="-77" on="0"/>
        <pt x="898" y="-77" on="1"/>
        <pt x="926" y="-77" on="0"/>
        <pt x="990" y="-69" on="0"/>
        <pt x="1044" y="-42" on="0"/>
        <pt x="1080" y="10" on="0"/>
        <pt x="1080" y="53" on="1"/>
        <pt x="1080" y="65" on="0"/>
        <pt x="1076" y="88" on="0"/>
        <pt x="1076" y="99" on="1"/>
        <pt x="1076" y="107" on="0"/>
        <pt x="1085" y="107" on="1"/>
        <pt x="1089" y="107" on="0"/>
        <pt x="1094" y="96" on="0"/>
        <pt x="1097" y="80" on="0"/>
        <pt x="1098" y="63" on="0"/>
        <pt x="1098" y="56" on="1"/>
        <pt x="1098" y="8" on="0"/>
        <pt x="1061" y="-51" on="0"/>
        <pt x="1004" y="-84" on="0"/>
        <pt x="932" y="-95" on="0"/>
        <pt x="898" y="-95" on="1"/>
        <pt x="814" y="-95" on="0"/>
        <pt x="660" y="-61" on="0"/>
        <pt x="513" y="-13" on="0"/>
        <pt x="368" y="41" on="0"/>
        <pt x="292" y="62" on="1"/>
        <pt x="255" y="29" on="0"/>
        <pt x="192" y="-21" on="0"/>
        <pt x="129" y="-56" on="0"/>
        <pt x="64" y="-73" on="0"/>
        <pt x="26" y="-73" on="1"/>
        <pt x="8" y="-73" on="0"/>
        <pt x="-31" y="-65" on="0"/>
        <pt x="-64" y="-45" on="0"/>
        <pt x="-85" y="-9" on="0"/>
        <pt x="-85" y="18" on="1"/>
        <pt x="-85" y="48" on="0"/>
        <pt x="-60" y="89" on="0"/>
        <pt x="-20" y="114" on="0"/>
        <pt x="30" y="125" on="0"/>
        <pt x="55" y="125" on="1"/>
        <pt x="118" y="125" on="0"/>
        <pt x="234" y="97" on="0"/>
        <pt x="287" y="82" on="1"/>
        <pt x="336" y="126" on="0"/>
        <pt x="437" y="229" on="0"/>
        <pt x="526" y="327" on="0"/>
        <pt x="598" y="412" on="0"/>
        <pt x="619" y="439" on="1"/>
        <pt x="450" y="454" on="1"/>
        <pt x="442" y="456" on="0"/>
        <pt x="442" y="462" on="1"/>
        <pt x="442" y="472" on="0"/>
        <pt x="450" y="472" on="1"/>
        <pt x="452" y="472" on="1"/>
        <pt x="632" y="456" on="1"/>
        <pt x="657" y="490" on="0"/>
        <pt x="711" y="565" on="0"/>
        <pt x="767" y="641" on="0"/>
        <pt x="826" y="714" on="0"/>
        <pt x="858" y="746" on="1"/>
        <pt x="722" y="766" on="0"/>
        <pt x="531" y="821" on="0"/>
        <pt x="477" y="841" on="1"/>
        <pt x="459" y="848" on="0"/>
        <pt x="422" y="863" on="0"/>
        <pt x="385" y="877" on="0"/>
        <pt x="346" y="886" on="0"/>
        <pt x="325" y="886" on="1"/>
        <pt x="278" y="886" on="0"/>
        <pt x="217" y="817" on="0"/>
        <pt x="217" y="763" on="1"/>
        <pt x="217" y="740" on="0"/>
        <pt x="227" y="697" on="0"/>
        <pt x="233" y="680" on="1"/>
        <pt x="236" y="671" on="0"/>
        <pt x="252" y="642" on="0"/>
        <pt x="252" y="635" on="1"/>
        <pt x="252" y="626" on="0"/>
        <pt x="242" y="626" on="1"/>
        <pt x="241" y="626" on="0"/>
        <pt x="228" y="644" on="0"/>
        <pt x="212" y="678" on="0"/>
        <pt x="199" y="730" on="0"/>
        <pt x="199" y="763" on="1"/>
        <pt x="199" y="791" on="0"/>
        <pt x="216" y="842" on="0"/>
        <pt x="249" y="881" on="0"/>
        <pt x="296" y="904" on="0"/>
        <pt x="325" y="904" on="1"/>
        <pt x="367" y="904" on="0"/>
        <pt x="444" y="873" on="0"/>
        <pt x="484" y="858" on="1"/>
        <pt x="577" y="823" on="0"/>
        <pt x="769" y="777" on="0"/>
        <pt x="874" y="762" on="1"/>
        <pt x="912" y="798" on="0"/>
        <pt x="996" y="851" on="0"/>
        <pt x="1076" y="884" on="0"/>
        <pt x="1146" y="900" on="0"/>
        <pt x="1169" y="900" on="1"/>
        <pt x="1185" y="900" on="0"/>
        <pt x="1210" y="895" on="0"/>
      </contour>
      <contour>
        <pt x="151" y="-23" on="1"/>
        <pt x="186" y="-4" on="0"/>
        <pt x="242" y="42" on="0"/>
        <pt x="271" y="68" on="1"/>
        <pt x="223" y="81" on="0"/>
        <pt x="121" y="107" on="0"/>
        <pt x="56" y="107" on="1"/>
        <pt x="35" y="107" on="0"/>
        <pt x="-9" y="99" on="0"/>
        <pt x="-44" y="79" on="0"/>
        <pt x="-67" y="45" on="0"/>
        <pt x="-67" y="19" on="1"/>
        <pt x="-67" y="-2" on="0"/>
        <pt x="-51" y="-30" on="0"/>
        <pt x="-25" y="-48" on="0"/>
        <pt x="9" y="-55" on="0"/>
        <pt x="26" y="-55" on="1"/>
        <pt x="53" y="-55" on="0"/>
        <pt x="111" y="-43" on="0"/>
      </contour>
      <contour>
        <pt x="1240" y="809" on="1"/>
        <pt x="1244" y="817" on="0"/>
        <pt x="1244" y="828" on="1"/>
        <pt x="1244" y="851" on="0"/>
        <pt x="1206" y="882" on="0"/>
        <pt x="1169" y="882" on="1"/>
        <pt x="1150" y="882" on="0"/>
        <pt x="1088" y="869" on="0"/>
        <pt x="1014" y="839" on="0"/>
        <pt x="934" y="792" on="0"/>
        <pt x="897" y="758" on="1"/>
        <pt x="933" y="751" on="0"/>
        <pt x="1011" y="746" on="0"/>
        <pt x="1053" y="746" on="1"/>
        <pt x="1104" y="746" on="0"/>
        <pt x="1172" y="759" on="0"/>
        <pt x="1214" y="778" on="0"/>
        <pt x="1235" y="800" on="0"/>
      </contour>
    </TTGlyph>
    <TTGlyph name="Zcaron" xMin="-85" yMin="-95" xMax="1262" yMax="1011">
      <component glyphName="Z" x="0" y="0" flags="0x1204"/>
      <component glyphName="caron" x="672" y="112" flags="0x1004"/>
    </TTGlyph>
    <TTGlyph name="a" xMin="-33" yMin="-18" xMax="902" yMax="521">
      <contour>
        <pt x="900" y="225" on="1"/>
        <pt x="902" y="221" on="0"/>
        <pt x="902" y="218" on="1"/>
        <pt x="902" y="216" on="0"/>
        <pt x="900" y="212" on="1"/>
        <pt x="864" y="179" on="0"/>
        <pt x="769" y="103" on="0"/>
        <pt x="664" y="38" on="0"/>
        <pt x="554" y="-5" on="0"/>
        <pt x="502" y="-5" on="1"/>
        <pt x="487" y="-5" on="0"/>
        <pt x="450" y="0" on="0"/>
        <pt x="417" y="15" on="0"/>
        <pt x="395" y="41" on="0"/>
        <pt x="395" y="61" on="1"/>
        <pt x="395" y="91" on="0"/>
        <pt x="431" y="135" on="1"/>
        <pt x="343" y="64" on="0"/>
        <pt x="192" y="-18" on="0"/>
        <pt x="129" y="-18" on="1"/>
        <pt x="97" y="-18" on="0"/>
        <pt x="38" y="2" on="0"/>
        <pt x="-7" y="40" on="0"/>
        <pt x="-33" y="94" on="0"/>
        <pt x="-33" y="129" on="1"/>
        <pt x="-33" y="230" on="0"/>
        <pt x="109" y="351" on="1"/>
        <pt x="205" y="432" on="0"/>
        <pt x="402" y="521" on="0"/>
        <pt x="490" y="521" on="1"/>
        <pt x="532" y="521" on="0"/>
        <pt x="566" y="511" on="1"/>
        <pt x="568" y="511" on="0"/>
        <pt x="595" y="501" on="0"/>
        <pt x="626" y="478" on="0"/>
        <pt x="651" y="441" on="0"/>
        <pt x="651" y="413" on="1"/>
        <pt x="651" y="344" on="0"/>
        <pt x="563" y="252" on="1"/>
        <pt x="599" y="276" on="0"/>
        <pt x="666" y="321" on="0"/>
        <pt x="717" y="355" on="0"/>
        <pt x="749" y="375" on="0"/>
        <pt x="751" y="375" on="1"/>
        <pt x="752" y="376" on="0"/>
        <pt x="755" y="376" on="1"/>
        <pt x="764" y="376" on="0"/>
        <pt x="764" y="367" on="1"/>
        <pt x="764" y="364" on="0"/>
        <pt x="743" y="351" on="0"/>
        <pt x="698" y="324" on="0"/>
        <pt x="629" y="278" on="0"/>
        <pt x="582" y="244" on="1"/>
        <pt x="498" y="183" on="0"/>
        <pt x="413" y="89" on="0"/>
        <pt x="413" y="60" on="1"/>
        <pt x="413" y="46" on="0"/>
        <pt x="432" y="27" on="0"/>
        <pt x="459" y="17" on="0"/>
        <pt x="489" y="13" on="0"/>
        <pt x="501" y="13" on="1"/>
        <pt x="546" y="13" on="0"/>
        <pt x="645" y="50" on="0"/>
        <pt x="746" y="110" on="0"/>
        <pt x="844" y="186" on="0"/>
        <pt x="887" y="226" on="1"/>
        <pt x="891" y="228" on="0"/>
        <pt x="893" y="228" on="1"/>
        <pt x="897" y="228" on="0"/>
      </contour>
      <contour>
        <pt x="129" y="0" on="1"/>
        <pt x="171" y="0" on="0"/>
        <pt x="259" y="35" on="0"/>
        <pt x="346" y="91" on="0"/>
        <pt x="430" y="157" on="0"/>
        <pt x="468" y="189" on="1"/>
        <pt x="518" y="230" on="0"/>
        <pt x="582" y="298" on="0"/>
        <pt x="620" y="354" on="0"/>
        <pt x="634" y="397" on="0"/>
        <pt x="634" y="413" on="1"/>
        <pt x="634" y="436" on="0"/>
        <pt x="612" y="467" on="0"/>
        <pt x="585" y="486" on="0"/>
        <pt x="562" y="494" on="0"/>
        <pt x="561" y="494" on="1"/>
        <pt x="528" y="503" on="0"/>
        <pt x="490" y="503" on="1"/>
        <pt x="405" y="503" on="0"/>
        <pt x="215" y="416" on="0"/>
        <pt x="121" y="337" on="1"/>
        <pt x="-15" y="222" on="0"/>
        <pt x="-15" y="129" on="1"/>
        <pt x="-15" y="99" on="0"/>
        <pt x="8" y="51" on="0"/>
        <pt x="47" y="18" on="0"/>
        <pt x="100" y="0" on="0"/>
      </contour>
    </TTGlyph>
    <TTGlyph name="aacute" xMin="-33" yMin="-18" xMax="902" yMax="708">
      <component glyphName="a" x="0" y="0" flags="0x1204"/>
      <component glyphName="acute" x="287" y="-239" flags="0x1004"/>
    </TTGlyph>
    <TTGlyph name="acircumflex" xMin="-33" yMin="-18" xMax="902" yMax="687">
      <component glyphName="a" x="0" y="0" flags="0x1204"/>
      <component glyphName="circumflex" x="182" y="-228" flags="0x1004"/>
    </TTGlyph>
    <TTGlyph name="acute" xMin="14" yMin="805" xMax="493" yMax="947">
      <contour>
        <pt x="21" y="809" on="1"/>
        <pt x="14" y="811" on="0"/>
        <pt x="14" y="818" on="1"/>
        <pt x="14" y="821" on="0"/>
        <pt x="18" y="827" on="0"/>
        <pt x="22" y="827" on="1"/>
        <pt x="39" y="827" on="0"/>
        <pt x="72" y="823" on="0"/>
        <pt x="89" y="823" on="1"/>
        <pt x="192" y="823" on="0"/>
        <pt x="396" y="891" on="0"/>
        <pt x="479" y="945" on="1"/>
        <pt x="483" y="947" on="0"/>
        <pt x="485" y="947" on="1"/>
        <pt x="493" y="947" on="0"/>
        <pt x="493" y="938" on="1"/>
        <pt x="493" y="933" on="0"/>
        <pt x="489" y="930" on="1"/>
        <pt x="395" y="870" on="0"/>
        <pt x="193" y="805" on="0"/>
        <pt x="88" y="805" on="1"/>
        <pt x="71" y="805" on="0"/>
        <pt x="38" y="807" on="0"/>
      </contour>
    </TTGlyph>
    <TTGlyph name="adieresis" xMin="-33" yMin="-18" xMax="902" yMax="677">
      <component glyphName="a" x="0" y="0" flags="0x1204"/>
      <component glyphName="dieresis" x="357" y="-219" flags="0x1004"/>
    </TTGlyph>
</ttFont>
